<svg width="78" height="64" viewBox="0 0 78 64" fill="none" xmlns="http://www.w3.org/2000/svg">
<path d="M38.919 24.449V24.464C33.107 24.464 26.011 30.048 21.222 37.523C15.954 45.746 14.849 57.05 15.73 58.393C19.233 63.733 38.919 63.275 38.919 63.275V63.26C38.919 63.26 58.605 63.718 62.108 58.378C62.989 57.036 61.884 45.731 56.616 37.508C51.827 30.034 44.73 24.449 38.919 24.449Z" fill="#D3791B"/>
<path d="M28.003 29.572C28.769 33.17 31.784 48.608 27.837 51.936C25.862 53.601 18.622 51.253 16.2 50.4C15.981 51.449 15.813 52.442 15.694 53.35C18.429 54.218 27.623 56.906 30.237 54.703C35.292 50.442 31.835 30.884 31.129 27.191C30.074 27.875 29.028 28.676 28.003 29.572Z" fill="#E0D181"/>
<path d="M28.545 29.098C28.545 29.098 33.02 48.867 28.545 52.72C26.163 54.772 16.109 50.855 16.109 50.855C15.893 51.952 15.733 52.981 15.627 53.906C15.627 53.906 27.863 58.201 30.946 55.547C36.534 50.735 31.719 26.822 31.719 26.822C30.651 27.469 29.587 28.228 28.545 29.098Z" fill="#FFA61D"/>
<path d="M49.025 53.137C44.933 49.522 47.99 32.868 48.828 28.713C47.731 27.834 46.615 27.07 45.497 26.441C44.612 31.431 41.394 51.651 46.512 56.172C49.463 58.779 60.422 55.146 62.276 54.506C62.184 53.533 62.031 52.426 61.806 51.227C60.237 51.831 51.297 55.145 49.025 53.137Z" fill="#E0D181"/>
<path d="M49.293 52.705C44.818 48.851 49.293 29.083 49.293 29.083C48.251 28.213 47.187 27.454 46.12 26.806C46.12 26.806 41.305 50.719 46.893 55.531C49.975 58.186 62.212 53.89 62.212 53.89C62.106 52.965 61.946 51.936 61.73 50.839C61.73 50.839 51.675 54.756 49.293 52.705Z" fill="#FFA61D"/>
<path d="M27.382 53.216C25.327 48.543 32 33.724 37.126 30.184C42.252 26.645 46.119 26.805 46.119 26.805C43.666 25.315 41.194 24.449 38.918 24.449V24.464C33.106 24.464 26.01 30.048 21.221 37.523C17.517 43.305 15.873 50.605 15.528 54.9C15.27 60.09 27.409 62.644 34.297 63.22C35.713 63.271 36.899 63.284 37.718 63.285C44.77 62.946 55.31 60.208 55.31 60.208C55.31 60.208 29.437 57.889 27.382 53.216Z" fill="#E0D181" fill-opacity="0.2"/>
<path d="M38.187 32.943C37.111 32.943 36.238 33.816 36.238 34.892C36.238 35.969 37.111 36.841 38.187 36.841C39.264 36.841 40.136 35.968 40.136 34.892C40.136 33.816 39.263 32.943 38.187 32.943Z" fill="#E0D181"/>
<path d="M38.064 40.753C36.988 40.753 36.115 41.626 36.115 42.702C36.115 43.779 36.988 44.651 38.064 44.651C39.141 44.651 40.013 43.778 40.013 42.702C40.014 41.626 39.141 40.753 38.064 40.753Z" fill="#E0D181"/>
<path d="M37.943 48.564C36.866 48.564 35.994 49.437 35.994 50.513C35.994 51.589 36.867 52.462 37.943 52.462C39.019 52.462 39.892 51.589 39.892 50.513C39.892 49.437 39.019 48.564 37.943 48.564Z" fill="#E0D181"/>
<path d="M38.919 32.943C37.842 32.943 36.97 33.816 36.97 34.892C36.97 35.969 37.843 36.841 38.919 36.841C39.995 36.841 40.868 35.968 40.868 34.892C40.868 33.816 39.995 32.943 38.919 32.943Z" fill="#FFA61D"/>
<path d="M38.797 40.753C37.72 40.753 36.848 41.626 36.848 42.702C36.848 43.779 37.721 44.651 38.797 44.651C39.873 44.651 40.746 43.778 40.746 42.702C40.746 41.626 39.873 40.753 38.797 40.753Z" fill="#FFA61D"/>
<path d="M38.675 48.564C37.598 48.564 36.726 49.437 36.726 50.513C36.726 51.589 37.599 52.462 38.675 52.462C39.751 52.462 40.624 51.589 40.624 50.513C40.624 49.437 39.751 48.564 38.675 48.564Z" fill="#FFA61D"/>
<path d="M62.308 54.885C62.262 55.202 62.195 55.437 62.107 55.571C58.604 60.911 38.918 60.453 38.918 60.453V60.468C38.918 60.468 19.232 60.926 15.729 55.586C15.641 55.453 15.574 55.217 15.528 54.9C14.527 55.037 14.098 56.964 14.844 58.24C18.067 63.753 38.918 63.274 38.918 63.274V63.259C38.918 63.259 59.769 63.738 62.992 58.225C63.739 56.949 63.309 55.022 62.308 54.885Z" fill="#FFA61D"/>
<path d="M38.919 11.268V11.283C37.821 11.283 34.154 25.55 34.154 25.55H38.919V25.535H43.684C43.684 25.535 40.017 11.268 38.919 11.268Z" fill="#D5DEDA"/>
<path d="M12.097 28.769C6.60498 23.521 6.48299 10.218 6.72699 8.143C6.97099 6.068 9.046 1.43 7.337 0.820004C5.628 0.210004 -1.69399 10.462 0.868008 26.816C3.43101 43.17 16.331 49.785 16.331 49.785C16.331 49.785 19.065 48.142 21.941 42.687C24.762 37.337 24.109 33.659 24.109 33.659C24.109 33.659 17.589 34.017 12.097 28.769Z" fill="url(#paint0_linear_1_774)"/>
<path d="M70.5 0.804989C68.791 1.41499 70.866 6.053 71.11 8.128C71.354 10.203 71.232 23.506 65.74 28.754C60.248 34.002 53.727 33.644 53.727 33.644C53.727 33.644 53.074 37.322 55.895 42.672C58.771 48.127 61.505 49.77 61.505 49.77C61.505 49.77 74.405 43.155 76.968 26.801C79.532 10.447 72.209 0.194989 70.5 0.804989Z" fill="url(#paint1_linear_1_774)"/>
<path d="M36.97 25.551C36.97 25.551 37.752 12.438 38.784 11.348C37.55 12.34 34.154 25.551 34.154 25.551H36.97Z" fill="#F1EFF2"/>
<path d="M43.679 24.465H33.915C33.378 24.465 32.939 24.904 32.939 25.441C32.939 25.978 33.378 26.417 33.915 26.417H43.679C44.216 26.417 44.655 25.978 44.655 25.441C44.655 24.904 44.216 24.465 43.679 24.465Z" fill="#FFA61D"/>
<path d="M3.08401 25.316C1.17001 13.102 4.76899 4.295 7.42599 0.870999C7.39499 0.855999 7.37201 0.832004 7.33801 0.820004C5.62901 0.210004 -1.69302 10.462 0.868983 26.816C3.43198 43.17 16.332 49.785 16.332 49.785C16.332 49.785 17.089 49.324 18.221 48.105C16.203 46.949 5.40501 40.126 3.08401 25.316Z" fill="#F1EFF2"/>
<path d="M71.111 8.12801C71.355 10.203 71.233 23.506 65.741 28.754C60.249 34.002 53.728 33.644 53.728 33.644C53.728 33.644 53.075 37.322 55.896 42.672C56.557 43.925 57.208 44.968 57.823 45.846C60.764 44.023 70.255 37.159 72.413 23.384C73.916 13.793 72.019 6.30499 69.848 1.87199C69.694 3.51999 70.926 6.55701 71.111 8.12801Z" fill="#F1EFF2"/>
<defs>
<linearGradient id="paint0_linear_1_774" x1="12.2532" y1="-15.7181" x2="12.2532" y2="16.0332" gradientUnits="userSpaceOnUse">
<stop stop-color="#878787"/>
<stop offset="0.2569" stop-color="#8A8A8A"/>
<stop offset="0.46" stop-color="#939493"/>
<stop offset="0.6446" stop-color="#A2A5A3"/>
<stop offset="0.8183" stop-color="#B7BCBA"/>
<stop offset="0.9828" stop-color="#D2DAD7"/>
<stop offset="1" stop-color="#D5DEDA"/>
</linearGradient>
<linearGradient id="paint1_linear_1_774" x1="65.5846" y1="-14.4315" x2="65.5846" y2="13.7509" gradientUnits="userSpaceOnUse">
<stop stop-color="#878787"/>
<stop offset="0.2569" stop-color="#8A8A8A"/>
<stop offset="0.46" stop-color="#939493"/>
<stop offset="0.6446" stop-color="#A2A5A3"/>
<stop offset="0.8183" stop-color="#B7BCBA"/>
<stop offset="0.9828" stop-color="#D2DAD7"/>
<stop offset="1" stop-color="#D5DEDA"/>
</linearGradient>
</defs>
</svg>
