<svg width="100" height="101" viewBox="0 0 100 101" fill="none" xmlns="http://www.w3.org/2000/svg">
<path fill-rule="evenodd" clip-rule="evenodd" d="M49.3337 0.645663C55.7262 1.05811 74.9037 6.14062 80.6767 11.396C81.8102 12.4294 91.0981 21.2549 94.3932 27.5525C96.814 32.1782 99.9861 50.7119 99.9993 52.2198C100.092 62.9213 90.5489 83.7612 77.4652 93.1012C74.2799 95.3763 54.2324 100.787 49.3337 100.605C32.99 100.006 15.4864 88.1563 11.1764 83.6548C8.36457 80.7144 2.429 64.8195 1.9545 61.8747C1.48879 58.9875 -0.246575 48.5831 0.0302134 45.0573C0.386085 40.5603 5.5967 24.7851 7.92084 21.3126C13.4786 12.5624 37.4362 -0.126019 49.3337 0.645663Z" fill="#A1A1A1"/>
<path fill-rule="evenodd" clip-rule="evenodd" d="M9.66921 45.528C9.93722 42.1397 13.8649 30.2496 15.6179 27.6329C15.7409 27.4378 15.8815 27.2427 16.0352 27.0431C12.995 25.8057 8.87392 22.5815 8.21929 20.8607C8.11385 21.0115 8.0128 21.1623 7.91614 21.3131C5.592 24.7812 0.381384 40.5564 0.0255127 45.0579C1.92349 44.1487 7.63064 44.468 9.66921 45.528Z" fill="url(#paint0_radial_26_821)"/>
<path fill-rule="evenodd" clip-rule="evenodd" d="M16.0352 27.0384C21.0218 20.6165 42.4268 10.6512 48.235 10.7488C49.1049 8.38936 49.1532 2.41105 48.4063 0.610462C36.4473 0.512893 14.1372 12.3542 8.21924 20.8604C8.87826 22.5768 12.9949 25.801 16.0352 27.0384Z" fill="url(#paint1_radial_26_821)"/>
<path fill-rule="evenodd" clip-rule="evenodd" d="M48.7847 10.7974C51.7459 11.3075 67.1319 15.1969 72.8434 18.9134C74.0296 15.4586 76.0198 12.4783 78.6295 9.86166C71.2836 5.18722 55.1069 1.01395 49.3383 0.641413C49.0395 0.623673 48.7319 0.610352 48.4155 0.610352C49.1624 2.41538 49.1186 8.39368 48.2443 10.7486C48.442 10.7575 48.6221 10.7708 48.7847 10.7974Z" fill="url(#paint2_radial_26_821)"/>
<path fill-rule="evenodd" clip-rule="evenodd" d="M78.6249 9.86206C76.0152 12.4787 74.025 15.459 72.8388 18.9138C73.2913 19.211 73.6867 19.5037 74.0074 19.7964C74.8378 20.5503 81.4412 26.8302 84.1081 31.5401C87.7634 30.9592 90.9971 29.234 93.9407 26.7371C90.3249 20.5193 81.7619 12.3811 80.6723 11.3921C80.1143 10.8821 79.4202 10.3676 78.6249 9.86206Z" fill="url(#paint3_radial_26_821)"/>
<path fill-rule="evenodd" clip-rule="evenodd" d="M93.941 26.7369C90.9974 29.2338 87.7638 30.959 84.1084 31.54C84.1919 31.6863 84.2709 31.8327 84.3456 31.9746C86.1689 35.4605 90.3427 51.4042 90.3515 52.544C90.3559 52.8766 90.3383 53.2269 90.3119 53.595C93.6641 52.5085 96.8802 52.1137 99.9996 52.2246C99.9864 50.7167 96.8143 32.1786 94.3935 27.5574C94.2529 27.2869 94.1036 27.0163 93.941 26.7369Z" fill="url(#paint4_radial_26_821)"/>
<path fill-rule="evenodd" clip-rule="evenodd" d="M99.9993 52.22C96.8843 52.1091 93.6682 52.5039 90.3116 53.5904C89.6482 62.039 80.6856 78.3996 71.2308 85.1452C73.164 89.1012 75.2904 91.3009 77.4652 93.0971C90.549 83.7615 100.092 62.9216 99.9993 52.22Z" fill="url(#paint5_radial_26_821)"/>
<path fill-rule="evenodd" clip-rule="evenodd" d="M77.4654 93.1015C75.295 91.3054 73.1641 89.1056 71.231 85.1497C68.8322 86.8616 53.7097 91.1103 50.028 90.8043C50.9946 94.0728 50.7398 97.3414 49.3295 100.605H49.8611C55.5331 100.433 74.3855 95.3013 77.4654 93.1015Z" fill="url(#paint6_radial_26_821)"/>
<path fill-rule="evenodd" clip-rule="evenodd" d="M49.3339 100.606C50.7442 97.3416 50.999 94.0731 50.0324 90.8045C40.2086 89.9929 19.9723 77.8899 18.7861 76.2312C15.7853 78.5862 13.2328 81.0565 11.181 83.6554C15.4822 88.1568 32.9858 100.007 49.3339 100.606Z" fill="url(#paint7_radial_26_821)"/>
<path fill-rule="evenodd" clip-rule="evenodd" d="M11.1762 83.6547C13.228 81.0602 15.7805 78.5899 18.7813 76.2305C17.8718 74.9577 11.4794 60.4155 11.1191 58.198C8.31609 60.3179 5.23188 61.4311 1.95435 61.8702C2.42884 64.8194 8.36442 80.7143 11.1762 83.6547Z" fill="url(#paint8_radial_26_821)"/>
<path fill-rule="evenodd" clip-rule="evenodd" d="M1.9545 61.8751C5.23203 61.436 8.31624 60.3184 11.1193 58.2029C10.7678 56.0253 9.45861 48.1844 9.66949 45.5279C7.62653 44.4679 1.9238 44.153 0.0302134 45.0577C-0.246575 48.5835 1.48879 58.9879 1.9545 61.8751Z" fill="url(#paint9_radial_26_821)"/>
<path fill-rule="evenodd" clip-rule="evenodd" d="M16.6861 27.6639C16.2423 28.0541 15.601 28.2936 15.3505 28.8347C12.9253 34.0369 11.6776 38.6182 10.0081 44.1175C10.0081 48.0558 10.2321 50.9651 10.8691 54.8102C11.2865 57.347 12.1476 57.7949 14.6519 56.7527C24.9677 52.4552 35.455 49.7011 45.9862 47.3506C51.0606 43.51 58.5031 36.516 62.778 31.7618C65.6996 28.5109 67.9974 24.9718 71.3189 20.4748C71.4902 20.2442 71.6177 19.9559 71.6309 19.6676C71.6485 19.3306 71.7143 18.8161 71.4067 18.6786C63.8983 15.3524 56.0296 12.6338 47.8973 11.3077C37.5507 13.7115 28.2321 17.8803 19.5945 24.138C18.8388 24.6835 18.1007 25.2556 17.3978 25.8677C16.9145 26.2845 16.9233 27.0652 16.6861 27.6639Z" fill="url(#paint10_radial_26_821)"/>
<path fill-rule="evenodd" clip-rule="evenodd" d="M72.4084 20.1108C69.5746 23.4637 67.1273 27.0959 64.8559 30.8168C64.5483 31.3224 64.2584 31.7748 65.1415 31.9832C66.7671 32.3691 68.4102 32.8524 70.0841 32.8391C73.3968 32.8081 76.6787 32.2183 79.9694 31.8502C80.8042 31.757 81.6829 31.7615 82.4649 31.4466C83.2997 31.1095 82.9922 30.6749 82.7198 30.1205C82.3815 29.4287 82.0168 28.7501 81.5379 28.1558C79.9123 26.129 78.0715 24.2885 76.2394 22.448C75.308 21.5122 74.381 20.5277 73.2563 19.8403C73.0015 19.6895 72.6017 19.8846 72.4084 20.1108Z" fill="url(#paint11_radial_26_821)"/>
<path fill-rule="evenodd" clip-rule="evenodd" d="M87.8204 54.482C84.3496 55.8879 80.9006 57.653 77.6187 59.3693C76.1644 61.5158 74.6487 63.5603 73.0758 65.525C72.7771 68.1904 72.4827 70.8603 72.184 73.5257C71.8413 76.2044 71.4987 78.8832 71.156 81.5619C70.9846 82.9145 70.9186 84.2982 71.3316 84.3426C71.5249 84.3648 72.6937 83.7128 73.9766 82.5642C75.98 80.7724 78.4008 78.1248 78.827 77.6768C81.3137 74.5679 83.5718 71.0599 85.4215 67.5785C86.7747 64.2123 88.8265 60.3583 89.5733 56.5398C89.9116 54.8146 90.1973 53.5196 87.8204 54.482Z" fill="url(#paint12_radial_26_821)"/>
<path fill-rule="evenodd" clip-rule="evenodd" d="M77.2192 58.9655C80.9932 57.5374 86.4982 54.0516 87.6449 53.6701C89.5033 53.0493 89.9646 52.8852 89.6351 51.5768C89.0332 49.182 88.5807 46.7471 87.8558 44.3833C86.6651 40.5072 85.2328 36.7064 83.8928 32.8791C83.8006 32.613 83.7083 32.3469 83.6117 32.0852C82.4254 31.9965 81.1074 32.0231 79.9651 32.1251C76.8106 32.4045 73.6736 32.8436 70.5279 33.1585C69.7854 33.2339 69.0428 33.3226 68.3003 33.2915C67.1537 33.2472 66.0201 32.9145 64.8734 32.9322C63.4192 32.9544 63.0194 33.2915 61.9957 34.1608C56.7587 38.6135 51.7326 43.1504 46.9877 47.7982C34.664 50.202 22.8587 53.3907 12.4374 58.6727C12.9031 64.4471 16.2158 71.4277 19.4274 76.2929C21.8702 78.497 24.8665 80.3109 27.9068 82.0893C34.8924 85.9522 44.2593 90.3295 50.0323 90.804C51.4207 90.9194 54.4346 90.3872 57.778 89.5889C62.1144 88.2495 66.1564 87.1984 69.7854 85.5264C70.44 84.3423 69.9787 82.6216 70.2775 81.4374C71.0507 76.0756 71.8196 70.7092 72.5929 65.3474C74.3634 63.2762 75.9188 61.1519 77.2192 58.9655Z" fill="url(#paint13_radial_26_821)"/>
<path opacity="0.5" fill-rule="evenodd" clip-rule="evenodd" d="M40.3885 22.3196C39.7558 21.9559 39.3209 20.7673 39.8086 20.2085C41.5703 18.1951 44.0746 16.8291 46.3988 15.5962C47.1676 15.1881 48.2089 15.0995 48.9822 15.503C51.1526 16.6339 53.6436 17.7915 54.9924 19.9069C56.9299 22.9404 48.4505 23.7033 47.1105 23.6944C44.7775 23.6767 42.4314 23.5037 40.3885 22.3196Z" fill="#BDC8C9"/>
<path fill-rule="evenodd" clip-rule="evenodd" d="M40.3449 21.9872C39.7123 21.6368 39.5013 20.3685 39.989 19.8318C41.7507 17.8982 44.0793 16.5234 46.3991 15.3392C47.168 14.949 48.2093 14.8647 48.9825 15.2505C51.1529 16.3326 53.5077 17.5346 54.8609 19.5658C56.7984 22.4795 48.4508 23.127 47.1152 23.1181C44.7779 23.096 42.3879 23.1226 40.3449 21.9872Z" fill="url(#paint14_radial_26_821)"/>
<path opacity="0.5" fill-rule="evenodd" clip-rule="evenodd" d="M62.1493 20.7406C61.7978 20.6918 60.2997 21.0776 59.6011 21.6364C59.276 21.8937 59.1837 22.4436 59.3551 22.8383C59.8955 24.0624 61.4507 25.1978 62.738 26.0093C63.2125 26.3109 63.9462 26.3686 64.3855 26.0093C65.0929 25.4284 65.5542 24.395 65.7431 23.4459C65.831 23.0024 65.5015 21.9957 64.9523 21.5211C64.4383 21.0732 63.107 20.8737 62.1493 20.7406Z" fill="#BDC8C9"/>
<path fill-rule="evenodd" clip-rule="evenodd" d="M62.1145 20.6388C61.763 20.5945 60.3659 20.9803 59.6673 21.4948C59.3422 21.7298 59.1797 22.3019 59.3554 22.6612C59.8958 23.7876 61.4511 24.8343 62.7384 25.5838C63.2129 25.8587 63.9466 25.9164 64.3859 25.5838C65.0933 25.0472 65.5765 24.1646 65.7654 23.2909C65.8533 22.8829 65.4667 21.7963 64.9175 21.3573C64.4035 20.9448 63.0723 20.763 62.1145 20.6388Z" fill="url(#paint15_radial_26_821)"/>
<path opacity="0.5" fill-rule="evenodd" clip-rule="evenodd" d="M44.8833 78.1911C43.7278 78.0625 39.8263 77.1444 38.8905 76.9759C38.069 76.8251 38.6006 80.6392 39.4881 81.1714C41.698 82.4974 42.7305 83.9299 43.7147 84.3468C44.1101 84.5109 45.6214 84.777 47.1152 85.1761C48.5958 85.5709 50.0544 86.0942 50.6914 86.0277C52.8354 85.8059 56.5655 83.4421 56.9785 82.0673C57.554 80.1514 56.4645 77.7787 54.7466 77.7831C53.6702 77.7831 48.8418 78.639 44.8833 78.1911Z" fill="#BDC8C9"/>
<path fill-rule="evenodd" clip-rule="evenodd" d="M44.8346 77.7385C43.6616 77.5833 39.7073 76.5898 38.7583 76.3991C37.928 76.2306 38.464 80.0579 39.3646 80.6079C41.6053 81.9783 42.651 83.4329 43.6527 83.8676C44.4479 84.2135 49.3643 85.4819 50.6647 85.3755C52.8395 85.1937 56.6882 83.2245 57.1056 81.8585C57.6899 79.9515 56.5827 77.5567 54.8385 77.5256C53.7445 77.5123 48.8503 78.2663 44.8346 77.7385Z" fill="url(#paint16_radial_26_821)"/>
<path opacity="0.75" fill-rule="evenodd" clip-rule="evenodd" d="M48.6879 1.6523C58.8763 2.91626 71.8723 6.99643 76.6129 12.1099C83.4052 14.2609 90.0129 21.4189 92.2228 28.0802C96.748 34.1561 98.5846 45.3277 98.8043 52.2019C99.9378 54.4016 98.9756 59.1027 97.495 64.4246C99.1294 59.8123 100.026 55.5326 99.9949 52.2196C99.9817 50.7118 96.8096 32.1737 94.3888 27.5524C91.0937 21.2548 81.8059 12.4248 80.6723 11.3959C74.8993 6.1405 55.7218 1.05799 49.3293 0.645542C37.4318 -0.121706 13.4742 12.5623 7.92089 21.3125C5.59674 24.7806 0.386126 40.5557 0.030255 45.0572C-0.12791 47.053 0.359726 51.2529 0.895729 55.0447C0.724384 51.7451 0.654077 46.7026 1.15933 44.7246C3.01337 37.4912 5.28037 28.772 9.08951 22.1595C20.5125 11.3205 35.7403 2.85417 48.6879 1.6523Z" fill="#EDF5F7"/>
<path fill-rule="evenodd" clip-rule="evenodd" d="M9.44995 22.5411C11.3655 24.7497 11.6994 25.4194 14.0368 27.1668C13.9928 27.5571 13.9489 27.9473 13.905 28.3376C12.6528 33.0963 10.8032 37.9171 9.09853 42.6403C8.53617 44.1926 8.46588 44.2901 6.82711 44.3079C5.34212 44.3256 4.34473 44.5252 2.85974 44.5429C5.9835 44.9598 8.77776 44.6227 9.05455 46.3612C9.696 50.3882 9.99916 54.0249 9.94644 58.0917C9.56421 59.6972 7.34107 60.5886 5.14872 61.205C7.53438 60.8547 8.02645 60.7438 9.78823 59.8746C11.0711 59.2404 10.8999 59.7592 11.4095 61.1562C13.0878 65.7464 15.1658 69.9375 17.2308 74.2926C17.9293 75.765 18.2501 76.1331 17.0727 77.3439C16.1632 78.2752 15.2538 79.211 14.3443 80.1423C15.3724 79.3972 16.3258 78.5324 17.433 77.9115C18.36 77.3926 18.6587 77.2907 19.1859 77.508C21.945 79.9694 40.7271 90.9813 50.0676 91.753C53.3627 92.0235 65.8402 88.6397 70.0975 86.7105C70.7302 86.6041 71.1256 86.8968 71.6133 87.2383C72.4436 87.8148 72.4786 88.2405 72.9971 89.0787C73.4188 89.1852 75.3565 91.1898 75.8178 91.6244C74.8996 90.5246 73.9813 89.4291 73.0675 88.3293C72.7116 87.7793 72.0745 86.4222 72.1756 85.5707C72.2503 85.4421 72.325 85.3224 72.404 85.2026C78.8844 80.0093 84.9738 70.585 88.1019 62.704C89.398 60.4644 90.6282 58.3312 90.7776 57.4486C90.9929 56.1935 90.8786 54.8231 90.9225 53.5015C93.1983 52.8895 95.7246 52.4948 98.3826 52.2065C95.6367 52.2553 93.6597 52.3085 90.9445 52.7387C90.9313 52.4682 90.9752 52.1888 90.9005 51.9316C90.2459 49.652 89.4287 47.4212 88.7653 45.146C88.181 43.1547 88.0316 41.1192 87.4516 39.1234C86.7443 36.6975 85.3912 34.4135 85.2462 31.8856C85.211 31.2514 86.5158 31.4953 86.7135 31.3933C88.3655 30.5329 89.9295 29.5084 91.5375 28.5637C90.1799 29.1181 88.8619 29.7657 87.4692 30.2225C86.529 30.5329 85.8261 30.5861 84.8419 30.6704C84.5827 30.6926 84.2884 30.5595 84.1303 30.3555C82.6233 28.4219 81.2481 26.3552 79.6357 24.5147C78.1419 22.8116 76.2835 21.4811 74.6052 19.9644C73.8144 19.2504 73.5244 19.0153 73.7133 17.9421C73.8188 17.3345 73.911 16.718 74.157 16.1548C74.671 14.9662 75.4487 13.9151 76.0945 12.7975C75.3125 13.7732 74.4383 14.9484 73.7529 15.729C73.6518 15.8443 73.3882 16.6293 73.2037 17.0817C72.6721 18.3944 72.114 18.0884 70.9541 17.5873C67.5096 16.1016 64.5046 14.3719 60.9283 13.1035C58.4504 12.4338 49.022 11.6533 49.1845 8.4734C49.3207 5.84347 48.9649 5.00082 48.6969 1.65686C48.8067 3.9586 48.8242 8.87701 47.9499 9.71078C47.3964 10.243 46.7022 10.3316 45.661 10.6421C42.3219 11.64 38.6666 12.3718 35.3276 13.3741C31.7952 15.219 15.2625 25.5879 14.9374 25.5968C13.549 25.6234 11.0184 24.0623 9.44995 22.5411ZM27.8937 82.0804C24.8578 80.302 21.8659 78.4925 19.4231 76.2928C16.2115 71.4276 12.8989 64.4514 12.4332 58.6727C22.8545 53.3906 34.6597 50.2019 46.9834 47.7982C51.7283 43.1503 56.7545 38.6134 61.9915 34.1607C63.0152 33.287 63.4193 32.9544 64.8736 32.9322C66.0246 32.9144 67.1538 33.2471 68.3005 33.2915C69.043 33.3225 69.7899 33.2294 70.528 33.1584C73.6781 32.8435 76.8151 32.4045 79.9653 32.1251C80.5452 32.0718 81.1735 32.0408 81.8017 32.0319C82.1883 32.5819 82.5134 33.0785 82.755 33.5043C82.9264 33.8014 83.0977 34.1385 83.2691 34.5066C82.9615 33.7527 82.6541 33.0919 82.3509 32.5552C82.2586 32.3912 82.1531 32.2138 82.0389 32.0319C82.5705 32.0319 83.1021 32.0452 83.6118 32.0851C83.7084 32.3468 83.8007 32.6173 83.8929 32.879C85.2329 36.7064 86.6653 40.5071 87.8559 44.3832C88.5808 46.7426 89.0333 49.1775 89.6352 51.5768C89.9647 52.8895 89.5034 53.0492 87.645 53.6701C86.4983 54.0515 80.9933 57.5374 77.2193 58.9654C75.9189 61.1563 74.3635 63.2762 72.5885 65.3473C71.8153 70.7092 71.0464 76.0755 70.2731 81.4374C69.9744 82.6215 70.4357 84.3422 69.7811 85.5264C66.1521 87.1983 62.1101 88.2494 57.7781 89.5888C54.4303 90.3871 51.4208 90.9193 50.0324 90.804C44.255 90.3294 34.8794 85.9477 27.8937 82.0804ZM78.8273 77.6765C78.3968 78.1333 75.9802 80.7765 73.9812 82.5638C72.6983 83.7125 71.5297 84.3644 71.3364 84.3422C70.9234 84.2979 70.9893 82.9142 71.1606 81.5615C71.5033 78.8828 71.846 76.2041 72.1887 73.5253C72.4875 70.8599 72.7819 68.1945 73.0806 65.5247C74.6535 63.56 76.1692 61.5155 77.6234 59.369C80.9054 57.6571 84.3586 55.892 87.825 54.4817C90.1975 53.5193 89.9164 54.8142 89.5781 56.5394C88.8312 60.3579 86.7794 64.212 85.4263 67.5781C83.5722 71.0596 81.314 74.5676 78.8273 77.6765ZM85.4218 67.5781C85.6679 67.0415 85.9842 66.4339 86.3357 65.7908C86.0457 66.3807 85.7382 66.9794 85.4218 67.5781ZM48.3762 14.5493C51.9613 14.607 64.8034 18.2613 70.304 20.7449C70.4534 20.8159 70.5939 21.459 70.5192 21.5654C67.6151 25.5525 65.4623 28.7811 62.7779 31.7614C58.4987 36.5157 51.0562 43.5096 45.9861 47.3503C35.4549 49.7008 24.9676 52.4549 14.6518 56.7523C12.1475 57.7946 11.2908 57.3422 10.869 54.8098C10.232 50.9603 10.008 48.0554 10.008 44.1172C11.6775 38.6222 12.9253 34.0365 15.3505 28.8343C15.6009 28.2977 16.2423 28.0538 16.686 27.6635C16.9233 27.0648 16.9144 26.2886 17.3977 25.8673C18.1007 25.2553 18.8388 24.6832 19.5944 24.1377C28.232 17.8799 37.5506 13.7111 47.8973 11.3074C56.0296 12.6334 63.8982 15.3521 71.4066 18.6783C71.7142 18.8158 71.644 19.3302 71.6308 19.6672C71.6176 19.9289 71.5165 20.1861 71.3715 20.4034C67.1186 17.9687 52.1193 13.5337 48.2091 13.4672C42.3307 13.3696 20.539 24.5634 17.9864 28.2134C17.2308 29.2911 11.5325 42.5561 11.2864 45.6472C11.2776 45.7625 11.2732 45.8911 11.2689 46.0286C11.9586 42.2633 17.222 30.2135 17.9469 29.1935C20.5171 25.5701 42.4582 14.4518 48.3762 14.5493ZM71.8416 21.521C71.9251 21.5698 72.0042 21.6186 72.0789 21.6674C74.5964 23.2817 79.1041 28.2844 81.5644 31.6904C81.0416 31.7747 80.4968 31.7969 79.9695 31.8545C76.6788 32.2226 73.3969 32.8125 70.0842 32.8435C68.4147 32.8568 66.7716 32.3734 65.1416 31.9875C64.2585 31.7791 64.5484 31.3267 64.856 30.8212C66.7847 27.659 68.8409 24.5679 71.1519 21.6497C71.1826 21.5521 71.7142 21.4634 71.8416 21.521ZM81.7973 31.6461C79.6269 28.3332 74.6623 22.6165 71.8944 20.7272C72.0658 20.5187 72.2371 20.3148 72.4085 20.1108C72.6018 19.8846 73.0016 19.685 73.2564 19.8402C74.3811 20.5276 75.3081 21.5122 76.2395 22.448C78.0716 24.2885 79.9124 26.129 81.538 28.1558C82.0169 28.75 82.3772 29.4286 82.7199 30.1205C82.9923 30.6704 83.2998 31.105 82.465 31.4465C82.2453 31.5352 82.0214 31.5973 81.7973 31.6461Z" fill="url(#paint17_radial_26_821)"/>
<path fill-rule="evenodd" clip-rule="evenodd" d="M11.1192 58.2028C11.4794 60.4203 17.8675 74.9626 18.7813 76.2354C19.9676 77.8941 40.2039 89.9971 50.0277 90.8087C53.7094 91.1147 68.8275 86.866 71.2307 85.1541C80.681 78.4085 89.6437 62.0435 90.3115 53.5994C90.3422 53.2357 90.3554 52.8853 90.351 52.5483C90.3422 51.4129 86.1684 35.4648 84.3451 31.979C84.2704 31.837 84.1914 31.6907 84.1079 31.5444C81.4455 26.8344 74.8377 20.5589 74.0117 19.8006C73.691 19.5078 73.2956 19.2152 72.8431 18.918C67.1316 15.2016 51.7456 11.3121 48.7888 10.8021C48.6263 10.7755 48.4462 10.7577 48.2441 10.7533C42.4315 10.6557 21.0309 20.6211 16.0443 27.0429C15.8905 27.2425 15.7499 27.442 15.6269 27.6327C13.8783 30.2449 9.95053 42.135 9.68252 45.5278C9.46285 48.1843 10.7721 56.0253 11.1192 58.2028Z" fill="url(#paint18_linear_26_821)"/>
<path opacity="0.5" fill-rule="evenodd" clip-rule="evenodd" d="M16.8443 27.1316C23.2983 20.7408 42.7174 11.9153 48.2268 12.0084C48.4289 12.0128 48.6134 12.0262 48.776 12.0528C51.5438 12.5273 65.1197 15.9156 71.644 19.3793C71.9911 19.5611 72.3163 19.7474 72.615 19.9293C72.7512 20.0091 72.8786 20.0933 73.006 20.1732C73.4629 20.4703 73.8584 20.763 74.1835 21.0557C74.8996 21.7032 79.8642 26.3866 82.9704 30.6752C83.4976 31.4025 83.9678 32.1165 84.3544 32.7995C84.4379 32.9458 84.5169 33.0922 84.596 33.2341C86.0502 35.9882 88.9807 46.5435 90.1494 51.3953C89.2926 47.4437 85.9316 35.0037 84.35 31.9746C84.2753 31.8327 84.1961 31.6863 84.1126 31.54C81.4502 26.83 74.8425 20.5546 74.0166 19.7962C73.6958 19.5035 73.3003 19.2108 72.8478 18.9137C67.1363 15.1972 51.7505 11.3077 48.7937 10.7977C48.6311 10.7711 48.4509 10.7533 48.2488 10.7489C42.4362 10.6513 21.0357 20.6167 16.0491 27.0385C15.8953 27.2381 15.7547 27.4376 15.6317 27.6283C14.1028 29.9168 10.9043 39.2967 9.94653 43.878C11.102 39.2124 13.7468 31.6198 15.2055 29.1629C15.267 29.0609 15.3241 28.9677 15.3813 28.8834C15.4999 28.6972 15.6361 28.5065 15.7855 28.3113C15.7899 28.3025 15.7943 28.298 15.8031 28.2891C16.0886 27.921 16.4401 27.5308 16.8443 27.1316Z" fill="black"/>
<path fill-rule="evenodd" clip-rule="evenodd" d="M47.8752 13.8623C36.7026 14.5497 22.6655 22.7987 18.4346 27.7747C16.0489 30.582 12.0201 40.6494 11.5808 45.4524C10.9921 51.9008 13.2634 66.687 20.126 74.2619C25.0906 79.7391 42.4009 88.9416 50.2608 88.8574C56.047 88.7953 64.1838 86.8617 69.7327 83.531C78.8975 78.0317 87.7196 63.3874 87.8954 53.1116C88.0096 46.61 84.71 38.3743 81.7268 33.0346C79.1786 28.4755 75.743 24.4573 71.745 21.1755C67.0044 17.2727 54.5796 13.4498 47.8752 13.8623Z" fill="url(#paint19_radial_26_821)"/>
<path fill-rule="evenodd" clip-rule="evenodd" d="M49.553 15.2367C39.2459 15.3032 26.3116 21.9157 20.108 28.8431C17.4456 31.8189 13.509 41.6379 13.8385 47.6562C14.2471 55.1912 18.4562 65.192 22.4894 70.2567C27.6078 76.6874 39.435 82.1867 50.0013 82.0226C67.5839 81.7477 81.9637 69.6003 84.0594 53.8873C85.3511 44.2013 79.6792 28.9628 69.9081 21.8403C64.3943 17.8267 55.9587 15.1967 49.553 15.2367Z" fill="url(#paint20_radial_26_821)"/>
<path fill-rule="evenodd" clip-rule="evenodd" d="M49.9973 18.6339C33.201 18.6339 19.5857 32.2936 19.5857 48.8005C19.5857 65.3074 32.3575 78.9671 49.9973 78.6921C67.6415 78.4127 80.4133 65.3118 80.4133 48.8005C80.4133 32.2892 66.7979 18.6339 49.9973 18.6339Z" fill="url(#paint21_radial_26_821)"/>
<path opacity="0.5" fill-rule="evenodd" clip-rule="evenodd" d="M18.5355 51.3551C20.328 54.0383 24.6512 54.7967 30.9075 53.9939C45.2918 52.1579 62.5494 44.6229 70.8179 35.3849C72.3732 33.6508 72.9004 30.8479 72.4259 28.555C71.8855 25.9428 70.0402 23.6278 68.028 21.8982C63.9772 18.4167 52.0841 15.8578 44.0133 16.9488C34.7914 18.195 25.1609 24.7144 20.7586 30.675C17.7491 34.7596 15.4513 46.7517 18.5355 51.3551Z" fill="url(#paint22_radial_26_821)"/>
<path fill-rule="evenodd" clip-rule="evenodd" d="M17.6743 65.6981C18.2499 69.1351 20.9869 73.2907 21.7909 74.1466C28.9127 81.7437 43.7451 87.3717 49.9135 87.629C56.0029 87.8817 66.1563 84.8527 70.7211 81.4466C77.4651 76.413 83.7214 68.2703 84.6352 58.6066C79.2532 75.7388 64.4076 83.1319 50.6034 83.5887C39.8174 83.9435 22.9465 77.3709 17.6743 65.6981Z" fill="url(#paint23_radial_26_821)"/>
<path opacity="0.75" fill-rule="evenodd" clip-rule="evenodd" d="M29.3389 25.3973C23.1573 32.3158 24.9498 37.9792 34.9186 34.959C42.9543 32.5242 48.2616 30.5684 55.133 25.9161C59.566 22.9137 57.4088 17.6494 48.7889 17.2946C42.493 17.0329 33.6973 20.5144 29.3389 25.3973Z" fill="url(#paint24_radial_26_821)"/>
<path fill-rule="evenodd" clip-rule="evenodd" d="M34.6726 70.2966C29.5586 71.6094 33.0602 76.1951 36.1927 77.8094C45.4718 82.5859 58.0415 81.3929 67.65 75.8448C73.5461 72.4387 78.1241 66.8817 80.7558 60.5663C83.4753 54.0425 80.2944 45.8334 74.6663 51.3505C68.5462 57.3465 63.5992 60.7526 57.4396 63.2938C49.1359 66.7176 42.1766 68.3718 34.6726 70.2966Z" fill="url(#paint25_radial_26_821)"/>
<path fill-rule="evenodd" clip-rule="evenodd" d="M57.2508 79.3041C63.8454 77.9869 71.7712 74.399 76.402 67.3518C77.9045 65.0678 78.4976 60.4599 75.0487 63.6797C68.0367 70.239 64.2496 72.4698 55.2694 75.5698C49.5447 77.5434 46.9744 77.8272 46.9392 78.6965C46.8953 79.8274 51.2273 80.5015 57.2508 79.3041Z" fill="url(#paint26_radial_26_821)"/>
<g opacity="0.5">
<path d="M61.8596 64.1184C63.2699 62.6948 65.5544 62.6948 66.9647 64.1184C68.375 65.542 68.375 67.8482 66.9647 69.2718C63.0326 73.2411 58.0064 75.6316 52.7562 76.3323C47.6378 77.0109 42.3042 76.0707 37.5592 73.3964C37.3615 73.3077 37.1726 73.2012 36.9925 73.077C31.2326 69.6355 27.3575 64.185 25.7495 58.1224C24.1415 52.0687 24.7962 45.3985 28.0737 39.5088C28.1704 39.3093 28.2802 39.123 28.4076 38.9412C31.8257 33.1669 37.2034 29.2863 43.1697 27.672C49.1668 26.0488 55.7746 26.7051 61.6091 30.018C61.8068 30.1112 61.9913 30.2265 62.167 30.3551C64.1924 31.5747 66.007 33.0648 67.5799 34.7679L67.8962 32.1069C68.129 30.1112 69.9215 28.6831 71.9029 28.9182C73.88 29.1532 75.2947 30.9627 75.0618 32.9629L73.4363 46.6269C73.2034 48.6227 71.4109 50.0508 69.4295 49.8157C69.1044 49.7758 68.7968 49.6959 68.5069 49.5806L55.779 45.4162C53.8854 44.8042 52.8441 42.7552 53.4504 40.8482C54.0567 38.9412 56.0865 37.8857 57.9757 38.4977L62.5493 39.9923C61.363 38.6485 59.9791 37.4865 58.4282 36.5596C58.3667 36.5286 58.3052 36.4931 58.2437 36.4576C54.0831 34.0317 49.3338 33.5439 45.0238 34.7058C40.7709 35.8589 36.9485 38.6174 34.5409 42.7153C34.5101 42.7774 34.475 42.8395 34.4442 42.9016C32.041 47.1015 31.5533 51.8957 32.7088 56.2464C33.8643 60.5971 36.6629 64.4999 40.8279 66.9258L40.8235 66.9302C44.2372 68.917 48.1035 69.6222 51.8116 69.1299C55.5197 68.6376 59.0653 66.9435 61.8596 64.1184Z" fill="#873700"/>
</g>
<path d="M61.8596 61.2316C63.2699 59.808 65.5544 59.808 66.9647 61.2316C68.375 62.6552 68.375 64.9614 66.9647 66.385C63.0326 70.3543 58.0064 72.7492 52.7562 73.4455C47.6378 74.124 42.3042 73.1838 37.5592 70.5095C37.3615 70.4208 37.1726 70.3144 36.9925 70.1902C31.2326 66.7486 27.3575 61.2981 25.7495 55.2355C24.1415 49.1818 24.7962 42.5116 28.0737 36.622C28.1704 36.4224 28.2802 36.2318 28.4076 36.0544C31.8257 30.2756 37.2034 26.395 43.1697 24.7807C49.1668 23.1575 55.7746 23.8183 61.6091 27.1268C61.8068 27.2199 61.9913 27.3352 62.167 27.4638C64.1924 28.6834 66.007 30.1736 67.5799 31.8766L67.8962 29.2156C68.129 27.2199 69.9215 25.7919 71.9029 26.0269C73.88 26.262 75.2947 28.0714 75.0618 30.0716L73.4363 43.7401C73.2034 45.7359 71.4109 47.1639 69.4295 46.9288C69.1044 46.8889 68.7968 46.8091 68.5069 46.6938L55.779 42.5294C53.8854 41.9173 52.8441 39.8684 53.4504 37.9614C54.0567 36.0499 56.0865 34.9988 57.9757 35.6108L62.5493 37.1054C61.363 35.7616 59.9791 34.5997 58.4282 33.6728C58.3667 33.6417 58.3052 33.6063 58.2437 33.5708C54.0831 31.1449 49.3338 30.6526 45.0238 31.819C40.7709 32.9676 36.9485 35.7306 34.5409 39.8285C34.5101 39.8906 34.475 39.9526 34.4442 40.0147C32.041 44.2146 31.5533 49.0088 32.7088 53.3595C33.8643 57.7102 36.6629 61.613 40.8279 64.0389L40.8235 64.0433C44.2372 66.0302 48.1035 66.7353 51.8116 66.2431C55.5197 65.7508 59.0653 64.0522 61.8596 61.2316Z" fill="url(#paint27_linear_26_821)"/>
<defs>
<radialGradient id="paint0_radial_26_821" cx="0" cy="0" r="1" gradientUnits="userSpaceOnUse" gradientTransform="translate(19.8602 26.0944) scale(82.2722 83.0496)">
<stop stop-color="#BDCACF"/>
<stop offset="1" stop-color="#828599"/>
</radialGradient>
<radialGradient id="paint1_radial_26_821" cx="0" cy="0" r="1" gradientUnits="userSpaceOnUse" gradientTransform="translate(44.3472 3.50072) scale(79.9089 80.6634)">
<stop stop-color="#D3DBDE"/>
<stop offset="1" stop-color="#BCC0DE"/>
</radialGradient>
<radialGradient id="paint2_radial_26_821" cx="0" cy="0" r="1" gradientUnits="userSpaceOnUse" gradientTransform="translate(51.9256 -2.49722) scale(47.1243 47.5693)">
<stop stop-color="#E4ECF0"/>
<stop offset="1" stop-color="#BCC0DE"/>
</radialGradient>
<radialGradient id="paint3_radial_26_821" cx="0" cy="0" r="1" gradientUnits="userSpaceOnUse" gradientTransform="translate(74.4415 10.3774) scale(54.1501 54.6613)">
<stop stop-color="#BDCACF"/>
<stop offset="1" stop-color="#828599"/>
</radialGradient>
<radialGradient id="paint4_radial_26_821" cx="0" cy="0" r="1" gradientUnits="userSpaceOnUse" gradientTransform="translate(81.8247 30.8091) scale(47.6152 48.0647)">
<stop stop-color="#9DA7AB"/>
<stop offset="1" stop-color="#828599"/>
</radialGradient>
<radialGradient id="paint5_radial_26_821" cx="0" cy="0" r="1" gradientUnits="userSpaceOnUse" gradientTransform="translate(51.7335 42.9687) scale(100.219 101.165)">
<stop stop-color="#9DA9AB"/>
<stop offset="1" stop-color="#5B5E6B"/>
</radialGradient>
<radialGradient id="paint6_radial_26_821" cx="0" cy="0" r="1" gradientUnits="userSpaceOnUse" gradientTransform="translate(51.5719 58.0321) scale(51.6806 52.1684)">
<stop stop-color="#9DA9AB"/>
<stop offset="1" stop-color="#555763"/>
</radialGradient>
<radialGradient id="paint7_radial_26_821" cx="0" cy="0" r="1" gradientUnits="userSpaceOnUse" gradientTransform="translate(30.2535 56.155) scale(67.2297 67.8646)">
<stop stop-color="#9DA9AB"/>
<stop offset="1" stop-color="#5B5E6B"/>
</radialGradient>
<radialGradient id="paint8_radial_26_821" cx="0" cy="0" r="1" gradientUnits="userSpaceOnUse" gradientTransform="translate(31.7846 49.203) scale(77.1798 77.909)">
<stop stop-color="#9DA7AB"/>
<stop offset="1" stop-color="#828599"/>
</radialGradient>
<radialGradient id="paint9_radial_26_821" cx="0" cy="0" r="1" gradientUnits="userSpaceOnUse" gradientTransform="translate(17.2806 43.843) scale(63.8588 64.4619)">
<stop stop-color="#AFBBBF"/>
<stop offset="1" stop-color="#828599"/>
</radialGradient>
<radialGradient id="paint10_radial_26_821" cx="0" cy="0" r="1" gradientUnits="userSpaceOnUse" gradientTransform="translate(48.2853 49.9894) scale(131.296 132.536)">
<stop stop-color="#A2ACB0"/>
<stop offset="1" stop-color="#828599"/>
</radialGradient>
<radialGradient id="paint11_radial_26_821" cx="0" cy="0" r="1" gradientUnits="userSpaceOnUse" gradientTransform="translate(64.1872 39.5426) scale(37.1784 37.5295)">
<stop stop-color="#9DA9AB"/>
<stop offset="1" stop-color="#717485"/>
</radialGradient>
<radialGradient id="paint12_radial_26_821" cx="0" cy="0" r="1" gradientUnits="userSpaceOnUse" gradientTransform="translate(104.066 85.7032) scale(52.3873 52.882)">
<stop stop-color="#ADBABD"/>
<stop offset="1" stop-color="#717485"/>
</radialGradient>
<radialGradient id="paint13_radial_26_821" cx="0" cy="0" r="1" gradientUnits="userSpaceOnUse" gradientTransform="translate(44.6921 32.8152) scale(98.2768 99.2047)">
<stop stop-color="#9DA9AB"/>
<stop offset="1" stop-color="#717485"/>
</radialGradient>
<radialGradient id="paint14_radial_26_821" cx="0" cy="0" r="1" gradientUnits="userSpaceOnUse" gradientTransform="translate(47.9131 28.2481) scale(21.0153 21.2137)">
<stop stop-color="#9DA9AB"/>
<stop offset="1" stop-color="#717485"/>
</radialGradient>
<radialGradient id="paint15_radial_26_821" cx="0" cy="0" r="1" gradientUnits="userSpaceOnUse" gradientTransform="translate(63.331 27.175) scale(10.0878 10.183)">
<stop stop-color="#9DA9AB"/>
<stop offset="1" stop-color="#717485"/>
</radialGradient>
<radialGradient id="paint16_radial_26_821" cx="0" cy="0" r="1" gradientUnits="userSpaceOnUse" gradientTransform="translate(48.4425 72.9847) scale(24.3681 24.5981)">
<stop stop-color="#717485"/>
<stop offset="1" stop-color="#9DA9AB"/>
</radialGradient>
<radialGradient id="paint17_radial_26_821" cx="0" cy="0" r="1" gradientUnits="userSpaceOnUse" gradientTransform="translate(28.2373 17.6715) scale(102.118 103.082)">
<stop stop-color="#E2F1F7"/>
<stop offset="1" stop-color="#9A9DB5"/>
</radialGradient>
<linearGradient id="paint18_linear_26_821" x1="49.9996" y1="90.8211" x2="49.9996" y2="10.7511" gradientUnits="userSpaceOnUse">
<stop stop-color="#79878F"/>
<stop offset="1" stop-color="#5D6B73"/>
</linearGradient>
<radialGradient id="paint19_radial_26_821" cx="0" cy="0" r="1" gradientUnits="userSpaceOnUse" gradientTransform="translate(40.1111 17.3575) scale(74.881 75.588)">
<stop stop-color="#FF8000"/>
<stop offset="1" stop-color="#E9440E"/>
</radialGradient>
<radialGradient id="paint20_radial_26_821" cx="0" cy="0" r="1" gradientUnits="userSpaceOnUse" gradientTransform="translate(34.6442 20.2366) scale(72.3552 73.0384)">
<stop stop-color="#FF2929"/>
<stop offset="1"/>
</radialGradient>
<radialGradient id="paint21_radial_26_821" cx="0" cy="0" r="1" gradientUnits="userSpaceOnUse" gradientTransform="translate(31.4612 11.8804) scale(72.1021 72.783)">
<stop stop-color="#FF2929"/>
<stop offset="1"/>
</radialGradient>
<radialGradient id="paint22_radial_26_821" cx="0" cy="0" r="1" gradientUnits="userSpaceOnUse" gradientTransform="translate(37.4815 10.3314) scale(79.2302 79.9782)">
<stop stop-color="#DE5634"/>
<stop offset="1"/>
</radialGradient>
<radialGradient id="paint23_radial_26_821" cx="0" cy="0" r="1" gradientUnits="userSpaceOnUse" gradientTransform="translate(56.5908 77.3186) scale(43.3631 43.7726)">
<stop stop-color="#FF6633"/>
<stop offset="1"/>
</radialGradient>
<radialGradient id="paint24_radial_26_821" cx="0" cy="0" r="1" gradientUnits="userSpaceOnUse" gradientTransform="translate(38.6882 17.1775) scale(43.6448 44.0569)">
<stop stop-color="#F9B233"/>
<stop offset="1"/>
</radialGradient>
<radialGradient id="paint25_radial_26_821" cx="0" cy="0" r="1" gradientUnits="userSpaceOnUse" gradientTransform="translate(72.8923 88.3935) scale(51.4476 51.9334)">
<stop stop-color="#FF2929"/>
<stop offset="1"/>
</radialGradient>
<radialGradient id="paint26_radial_26_821" cx="0" cy="0" r="1" gradientUnits="userSpaceOnUse" gradientTransform="translate(84.96 79.6447) scale(45.5314 45.9613)">
<stop stop-color="#FFD900"/>
<stop offset="1"/>
</radialGradient>
<linearGradient id="paint27_linear_26_821" x1="49.9993" y1="73.6579" x2="49.9993" y2="23.9327" gradientUnits="userSpaceOnUse">
<stop stop-color="#FFFBD6"/>
<stop offset="1" stop-color="white"/>
</linearGradient>
</defs>
</svg>
