<svg width="77" height="85" viewBox="0 0 77 85" fill="none" xmlns="http://www.w3.org/2000/svg">
<path d="M0.339996 84.321C4.127 75.252 13.003 39.58 14.661 38.516C16.78 37.155 17.688 37.836 20.411 36.767C23.134 35.698 20.67 33.462 26.247 33.462C31.824 33.462 41.031 36.475 43.236 39.002C45.441 41.529 48.034 39.099 49.98 42.987C51.925 46.875 51.407 48.43 52.574 52.026C53.741 55.622 60.225 56.302 65.024 59.801C68.263 62.163 73.207 81.36 76.084 84.321H0.339996Z" fill="#6A4022"/>
<path d="M0.339996 84.321C3.341 77.136 10.099 47.602 13.367 41.418C13.999 43.435 14.695 45.784 17.04 46.194C20.93 46.874 28.511 47.031 27.085 49.655C25.658 52.279 19.115 51.053 16.132 54.747C13.149 58.44 14.889 69.071 21.892 67.808C28.895 66.544 37.591 65.294 44.075 66.655C46.636 67.192 50.493 80.86 53.829 84.322L0.339996 84.321Z" fill="#412000"/>
<path d="M16.89 39.501C16.257 41.096 17.518 42.921 19.1 42.639C20.682 42.356 21.845 41.719 22.543 41.922C23.241 42.124 23.783 42.764 24.993 42.639C26.203 42.515 24.542 44.636 26.264 48.498C27.986 52.36 34.926 62.497 37.485 62.869C40.044 63.241 58.883 65.713 59.069 66.179C59.255 66.644 58.186 71.39 61.158 73.949C64.129 76.508 68.189 77.625 68.375 77.485C68.561 77.345 67.919 69.709 66.374 68.472C64.829 67.235 46.878 55.71 45.994 55.245C45.11 54.78 33.803 40.608 33.012 39.737C32.221 38.866 24.007 38.457 22.135 38.592C20.264 38.727 17.192 38.739 16.89 39.501Z" fill="#B09E91"/>
<path d="M27.819 12.677C26.769 12.501 25.415 15.88 24.865 19.629C23.909 26.145 22.713 28.136 24.54 28.629C26.198 29.077 26.695 26.439 28.203 20.991C29.382 16.733 29.993 13.04 27.819 12.677Z" fill="#FFA47C"/>
<path d="M25.096 25.87C24.236 25.578 22.894 27.628 22.376 30.756C21.779 34.36 20.85 39.506 21.624 39.722C22.152 39.87 22.408 38.857 22.973 37.395C23.538 35.932 24.413 34.018 25.076 32.363C26.418 29.013 26.876 26.474 25.096 25.87Z" fill="#FFA47C"/>
<path d="M25.167 19.215C26.616 16.714 26.627 12.957 27.637 12.652C28.669 12.341 33.005 13.14 33.005 13.14C33.005 13.14 36.06 13.237 37.094 13.542C38.106 13.841 41.166 15.1 41.595 16.059C42.244 17.51 37.026 24.879 38.975 30.797C39.535 32.496 43.438 34.418 44.06 38.093C44.425 40.249 37.666 44.318 37.666 44.318L37.26 44.391L36.854 44.464C36.854 44.464 29.704 44.414 28.793 42.427C28.048 40.801 29.234 34.426 28.913 32.666C27.956 27.409 28.332 23.605 26.393 22.691C25.949 22.481 24.496 20.373 25.167 19.215Z" fill="#FFBD95"/>
<path d="M30.793 11.577C31.1 10.771 31.061 7.737 31.061 7.737L32.991 7.73199L34.921 7.72701C34.921 7.72701 34.898 10.762 35.21 11.566C35.522 12.37 37.094 13.543 37.094 13.543L33.007 13.554L29.663 13.563C29.663 13.563 30.485 12.383 30.793 11.577Z" fill="#FFBD95"/>
<path d="M30.793 11.577C30.793 11.577 31.024 9.803 31.024 9.8C31.052 9.233 31.061 8.664 31.063 8.267V8.261L32.823 7.73199H32.992L34.922 7.72701C34.922 7.72701 34.899 10.762 35.211 11.566C35.523 12.37 37.095 13.543 37.095 13.543C37.095 13.543 34.442 12.892 33.945 12.717C33.446 12.541 30.793 11.577 30.793 11.577Z" fill="#FFA47C"/>
<path d="M28.17 22.623C29.355 22.167 29.942 21.274 30.079 21.261C30.216 21.248 29.671 22.466 30.725 23.341C31.752 24.193 34.158 23.971 34.837 22.49C35.515 21.009 36.95 15.916 38.963 15.95C40.976 15.984 38.251 29.873 37.549 31.255C36.947 32.44 28.673 37.859 28.939 42.638C28.887 42.568 28.828 42.501 28.793 42.426C28.048 40.8 29.234 34.425 28.913 32.665C27.956 27.408 28.332 23.604 26.393 22.69C26.241 22.618 25.969 22.314 25.706 21.909C25.764 21.96 26.71 23.186 28.17 22.623Z" fill="#FFA47C"/>
<path d="M41.083 15.81C42.156 16.222 41.667 19.843 40.233 23.35C37.741 29.446 37.825 31.793 35.86 31.238C34.077 30.734 34.983 28.207 36.404 22.73C37.514 18.449 38.862 14.958 41.083 15.81Z" fill="#FFBD95"/>
<path d="M36.952 29.06C36.163 28.363 33.935 28.73 31.563 31.111C28.829 33.855 24.849 37.722 25.483 38.409C25.78 38.731 26.381 38.631 27.009 38.068C28.327 36.886 31.116 35.573 33.269 34.248C36.589 32.205 38.469 30.401 36.952 29.06Z" fill="#FFBD95"/>
<path d="M35.354 1.64301C35.354 1.64301 37.528 2.094 37.769 3.043C38.01 3.992 37.269 4.764 37.792 5.627C38.315 6.49 39.617 6.43499 39.109 7.35899C38.601 8.28299 37.421 9.427 37.98 10.142C38.539 10.857 39.641 10.079 40.138 11.266C40.634 12.453 39.393 13.006 39.831 14.672C40.067 15.571 39.72 16.479 38.153 17.22C36.586 17.962 36.58 18.625 36.666 19.124C36.969 20.892 35.676 21.781 34.044 22.026C32.111 22.317 32.525 24.956 32.525 24.956C32.525 24.956 29.598 23.507 30.341 20.758C30.803 19.048 33.535 18.4 33.314 17.766C33.094 17.132 32.711 15.789 34.709 14.616C35.429 14.193 35.478 13.343 35.217 12.716C34.957 12.089 34.814 9.314 34.937 9.008C35.059 8.703 35.95 6.185 35.586 5.125C35.222 4.066 35.354 1.64301 35.354 1.64301Z" fill="#8D3B26"/>
<path d="M25.056 21.137C25.056 21.137 27.276 21.096 27.688 20.207C28.1 19.318 27.514 18.424 28.188 17.672C28.862 16.92 29.703 17.351 29.802 16.213C29.894 15.163 28.172 13.947 28.854 13.348C29.535 12.748 30.363 13.459 31.07 12.383C31.777 11.307 30.681 10.338 30.828 9.42C30.976 8.502 31.906 7.81001 30.503 6.79201C29.1 5.77401 29.001 4.98701 29.142 4.50101C29.283 4.01401 28.623 3.59 28.594 3.274C28.565 2.958 28.993 2.224 28.993 2.224C28.993 2.224 28.347 2.25301 27.877 3.00101C27.406 3.74901 27.666 5.229 27.333 5.811C26.999 6.394 26.805 7.85101 27.418 8.41901C28.03 8.98701 27.438 9.736 26.969 10.227C25.422 11.845 25.812 13.555 26.009 13.819C27.075 15.255 24.673 16.815 25.202 17.804C26.314 19.885 25.056 21.137 25.056 21.137Z" fill="#8D3B26"/>
<path d="M36.41 5.51101C36.37 8.54301 33.737 10.967 32.189 10.947C30.682 10.927 28.673 8.42101 28.425 5.35601C28.18 2.33301 30.035 0.390005 32.327 0.420005C34.618 0.450005 36.449 2.47801 36.41 5.51101Z" fill="#FFBD95"/>
<path d="M30.386 2.801C30.832 3.583 31.727 3.96701 33.552 3.85001C34.858 3.76601 35.953 5.434 36.042 6.146C36.076 6.418 35.811 7.94901 35.811 7.94901C35.811 7.94901 39.663 5.893 35.354 1.642C32.315 -1.356 29.613 0.971002 29.627 1.239C29.64 1.508 30.171 2.424 30.386 2.801Z" fill="#8D3B26"/>
<path d="M31.023 2.001C31.023 2.001 31.187 3.19599 30.184 3.64599C27.6 4.80599 29.211 8.233 29.211 8.233C29.211 8.233 24.835 3.268 29.626 1.24C31.649 0.384003 31.023 2.001 31.023 2.001Z" fill="#8D3B26"/>
<path d="M41.435 33.645C43.57 35.555 44.597 38.221 45.463 41.546C46.486 45.473 46.992 51.323 47.151 53.262C48.681 53.683 50.206 54.458 50.851 54.818C51.683 55.282 55.402 58.735 58.656 61.207C59.794 62.072 60.714 62.563 61.477 62.906C62.16 63.01 63.107 62.986 64.079 62.393C64.833 61.933 67.04 61.571 68.77 61.896C70.5 62.221 75.058 63.792 75.058 63.792C75.058 63.792 70.352 66.826 68.704 67.141C67.932 67.288 67.068 67.224 66.199 67.046C66.488 67.487 66.736 67.96 66.923 68.468C67.502 70.043 67.29 75.641 67.29 75.641C67.29 75.641 63.611 72.525 62.448 71.204C61.285 69.883 60.703 67.771 60.479 66.917C60.309 66.268 59.987 65.818 59.674 65.505C55.209 63.596 46.525 61.62 42.737 59.784C40.871 58.879 34.663 52.656 31.852 48.909C29.79 46.161 28.503 43.626 28.448 40.348C28.418 38.655 39.588 31.994 41.435 33.645Z" fill="#C0C2A0"/>
<path d="M67.259 70.757C67.297 71.388 67.316 72.061 67.323 72.703C65.447 70.663 60.593 65.354 60.735 65.195C60.875 65.039 65.344 69.112 67.259 70.757Z" fill="#ABAE81"/>
<path d="M75.057 63.792C75.057 63.792 74.667 64.043 74.082 64.403C72.243 64.235 62.095 63.547 62.151 63.394C62.199 63.263 69.897 63.237 73.207 63.174C74.259 63.518 75.057 63.792 75.057 63.792Z" fill="#ABAE81"/>
<path d="M61.681 64.166C61.714 64.047 69.206 65.271 72.035 65.613C71.499 65.915 70.951 66.21 70.44 66.461C68.625 65.958 61.647 64.289 61.681 64.166Z" fill="#ABAE81"/>
<path d="M66.198 67.046C66.487 67.487 66.736 67.96 66.922 68.468L66.923 68.472C65.658 67.793 61.102 64.939 61.158 64.84C61.209 64.75 66.057 66.49 68.142 67.209C67.523 67.25 66.863 67.182 66.198 67.046Z" fill="#ABAE81"/>
<path d="M31.85 48.909C29.788 46.161 28.501 43.626 28.446 40.348C28.442 40.124 28.47 39.31 32.063 36.907C34.778 35.09 36.978 34.266 37.731 34.076C37.712 34.105 34.186 36.407 36.791 41.618C37.078 42.191 42.204 53.405 42.091 53.901C41.978 54.396 38.21 46.83 36.51 47.632C34.08 48.779 40.723 55.652 42.237 56.549C43.75 57.446 59.64 64.346 60.432 65.421C61.224 66.497 62.285 68.886 63.522 70.217C64.613 71.391 66.728 74.79 67.213 75.576C66.704 75.143 63.516 72.418 62.447 71.204C61.284 69.883 60.702 67.771 60.478 66.917C60.308 66.269 59.986 65.818 59.673 65.506C55.208 63.596 46.524 61.621 42.736 59.785C40.869 58.879 34.662 52.655 31.85 48.909Z" fill="#ABAE81"/>
<path d="M21.576 36.366C21.576 36.366 21.166 37.981 21.022 38.108C20.878 38.234 17.554 38.773 17.484 39.012C17.414 39.252 18.905 38.989 18.945 39.14C18.985 39.292 17.005 39.893 16.894 40.143C16.783 40.394 19.065 39.716 19.087 39.799C19.109 39.882 17.093 41 17.29 41.217C17.463 41.408 19.467 40.203 19.54 40.264C19.665 40.369 18.081 41.726 18.289 41.914C18.417 42.03 20.645 40.161 21.433 40.081C21.945 40.029 22.462 40.869 22.741 40.995C23.02 41.121 23.476 41.002 23.56 40.902C23.644 40.802 23.04 40.607 22.974 40.358C22.909 40.109 22.888 39.503 22.851 39.218C22.757 38.493 23.23 36.586 23.23 36.586L21.576 36.366Z" fill="#FFA47C"/>
<path d="M26.264 36.419C25.816 36.64 24.783 36.885 24.123 36.719C23.82 36.643 23.738 36.777 23.648 36.739C23.371 36.622 23.287 36.594 23.229 36.589C22.947 36.565 21.771 37.202 21.614 37.356C21.456 37.51 20.393 38.186 20.426 38.303C20.459 38.42 20.843 38.643 21.455 38.345C22.067 38.047 22.824 37.723 22.708 37.824C22.592 37.925 22.079 38.629 21.925 38.947C21.826 39.152 22.008 39.279 22.18 39.31C22.281 39.328 22.816 38.975 22.816 38.975C22.816 38.975 22.855 39.411 22.942 39.434C23.242 39.515 23.569 39.137 23.709 39.046C23.826 38.97 23.691 39.477 23.827 39.498C24.332 39.574 24.972 38.384 25.375 38.678C25.578 38.826 26.609 39.108 27.196 38.136L28.017 37.244L27.338 35.447C27.338 35.447 26.816 36.146 26.264 36.419Z" fill="#FFBD95"/>
</svg>
