<svg width="109" height="103" viewBox="0 0 109 103" fill="none" xmlns="http://www.w3.org/2000/svg">
<path d="M24.193 2.32901H23.91V5.03601H24.193V2.32901Z" fill="#FFCE74"/>
<path d="M24.051 3.87499C24.2741 3.87499 24.455 3.755 24.455 3.60699C24.455 3.45898 24.2741 3.33899 24.051 3.33899C23.8279 3.33899 23.647 3.45898 23.647 3.60699C23.647 3.755 23.8279 3.87499 24.051 3.87499Z" fill="#FFCE74"/>
<path d="M23.92 1.991L24.051 0.283997L24.183 1.991H23.92Z" fill="#FFCE74"/>
<path d="M24.162 2.78599H23.94C23.671 2.78599 23.453 2.56799 23.453 2.29899V1.78799H24.648V2.29899C24.649 2.56799 24.431 2.78599 24.162 2.78599Z" fill="#FFCE74"/>
<path d="M29.353 28.801H18.604V58.933H29.353V28.801Z" fill="#6A4022"/>
<path d="M29.505 31.771H18.323V32.1H29.505V31.771Z" fill="#FFCE74"/>
<path d="M19.705 31.771H18.917V30.459C18.917 30.241 19.093 30.065 19.311 30.065C19.529 30.065 19.705 30.242 19.705 30.459V31.771Z" fill="#C2C0AC"/>
<path d="M20.868 31.771H20.08V30.459C20.08 30.241 20.256 30.065 20.474 30.065C20.692 30.065 20.868 30.242 20.868 30.459V31.771Z" fill="#C2C0AC"/>
<path d="M22.031 31.771H21.243V30.459C21.243 30.241 21.419 30.065 21.637 30.065C21.855 30.065 22.031 30.242 22.031 30.459V31.771Z" fill="#C2C0AC"/>
<path d="M23.195 31.771H22.407V30.459C22.407 30.241 22.583 30.065 22.801 30.065C23.019 30.065 23.195 30.242 23.195 30.459V31.771Z" fill="#C2C0AC"/>
<path d="M24.358 31.771H23.57V30.459C23.57 30.241 23.747 30.065 23.964 30.065C24.182 30.065 24.358 30.242 24.358 30.459V31.771Z" fill="#C2C0AC"/>
<path d="M25.522 31.771H24.734V30.459C24.734 30.241 24.91 30.065 25.128 30.065C25.346 30.065 25.522 30.242 25.522 30.459V31.771Z" fill="#C2C0AC"/>
<path d="M26.685 31.771H25.897V30.459C25.897 30.241 26.073 30.065 26.291 30.065C26.509 30.065 26.685 30.242 26.685 30.459V31.771Z" fill="#C2C0AC"/>
<path d="M27.849 31.771H27.061V30.459C27.061 30.241 27.237 30.065 27.455 30.065C27.673 30.065 27.849 30.242 27.849 30.459V31.771Z" fill="#C2C0AC"/>
<path d="M29.012 31.771H28.224V30.459C28.224 30.241 28.4 30.065 28.618 30.065C28.836 30.065 29.012 30.242 29.012 30.459V31.771Z" fill="#C2C0AC"/>
<path d="M26.775 41.677H26.27V44.378H26.775V41.677Z" fill="#303335"/>
<path d="M25.486 41.677H24.981V44.378H25.486V41.677Z" fill="#303335"/>
<path d="M24.198 41.677H23.693V44.378H24.198V41.677Z" fill="#303335"/>
<path d="M22.909 41.677H22.404V44.378H22.909V41.677Z" fill="#303335"/>
<path d="M21.62 41.677H21.115V44.378H21.62V41.677Z" fill="#303335"/>
<path d="M26.241 32.099H21.587V37.191H26.241V32.099Z" fill="#FFA447"/>
<path d="M25.847 34.645C25.847 35.713 24.981 36.578 23.914 36.578C22.846 36.578 21.981 35.713 21.981 34.645C21.981 33.577 22.847 32.712 23.914 32.712C24.981 32.712 25.847 33.578 25.847 34.645Z" fill="#FFCE74"/>
<path d="M23.914 36.048C24.6889 36.048 25.317 35.4199 25.317 34.645C25.317 33.8701 24.6889 33.242 23.914 33.242C23.1391 33.242 22.511 33.8701 22.511 34.645C22.511 35.4199 23.1391 36.048 23.914 36.048Z" fill="#303335"/>
<path d="M26.24 37.194H21.587V41.5H26.24V37.194Z" fill="#303335"/>
<path d="M23.017 41.5H21.93V38.954C21.93 38.654 22.173 38.411 22.473 38.411C22.773 38.411 23.016 38.654 23.016 38.954V41.5H23.017Z" fill="#010E11"/>
<path d="M24.457 41.5H23.37V38.954C23.37 38.654 23.613 38.411 23.913 38.411C24.213 38.411 24.456 38.654 24.456 38.954V41.5H24.457Z" fill="#010E11"/>
<path d="M25.897 41.5H24.81V38.954C24.81 38.654 25.053 38.411 25.353 38.411C25.653 38.411 25.896 38.654 25.896 38.954V41.5H25.897Z" fill="#010E11"/>
<path d="M27.017 40.312H20.94V41.677H27.017V40.312Z" fill="#303335"/>
<path d="M26.604 21.726H21.499L17.709 28.801H30.394L26.604 21.726Z" fill="#ABAE81"/>
<path d="M26.635 15.206H21.469V21.726H26.635V15.206Z" fill="#8B9072"/>
<path d="M26.923 14.735H21.18V15.206H26.923V14.735Z" fill="#747A56"/>
<path d="M27.174 14.394H20.929V14.735H27.174V14.394Z" fill="#8D9154"/>
<path d="M20.769 14.394L24.051 4.84299L27.334 14.394H20.769Z" fill="#ABAE81"/>
<path d="M22.689 8.07199L24.051 4.30099L25.414 8.07199H22.689Z" fill="#B3B68D"/>
<path d="M25.018 20.387H23.085V17.323C23.085 16.789 23.518 16.356 24.052 16.356C24.586 16.356 25.019 16.789 25.019 17.323V20.387H25.018Z" fill="#010E11"/>
<path d="M25.852 22.004C25.852 22.527 25.046 22.952 24.051 22.952C23.057 22.952 22.251 22.528 22.251 22.004C22.251 21.481 23.057 21.056 24.051 21.056C25.046 21.056 25.852 21.48 25.852 22.004Z" fill="#8B9072"/>
<path d="M25.852 19.818H22.251V22.004H25.852V19.818Z" fill="#ABAE81"/>
<path d="M24.051 24.36C23.76 24.36 23.524 24.124 23.524 23.833V22.674H24.579V23.833C24.579 24.124 24.343 24.36 24.051 24.36Z" fill="#8B9072"/>
<path d="M24.051 24.777C24.2029 24.777 24.326 24.6539 24.326 24.502C24.326 24.3501 24.2029 24.227 24.051 24.227C23.8991 24.227 23.776 24.3501 23.776 24.502C23.776 24.6539 23.8991 24.777 24.051 24.777Z" fill="#8B9072"/>
<path d="M26.022 19.818H22.08V20.134H26.022V19.818Z" fill="#ABAE81"/>
<path d="M22.613 26.406H21.637V27.031H22.613V26.406Z" fill="#8B9072"/>
<path d="M21.474 26.406L22.125 25.439L22.775 26.406H21.474Z" fill="#FFCE74"/>
<path d="M21.601 26.406L22.125 25.627L22.649 26.406H21.601Z" fill="#8B9072"/>
<path d="M26.466 26.406H25.49V27.031H26.466V26.406Z" fill="#8B9072"/>
<path d="M25.328 26.406L25.978 25.439L26.629 26.406H25.328Z" fill="#FFCE74"/>
<path d="M25.454 26.406L25.978 25.627L26.502 26.406H25.454Z" fill="#8B9072"/>
<path d="M92.728 60.414H17.118L2.25601 68.299H107.591L92.728 60.414Z" fill="#303335"/>
<path d="M106.89 69.224H2.85999V102.025H106.89V69.224Z" fill="#865B3D"/>
<path d="M107.495 69.224H2.25601V72.304H107.495V69.224Z" fill="#865B3D"/>
<path d="M107.495 72.304H2.25601V72.753H107.495V72.304Z" fill="#303335"/>
<path d="M108.675 67.602H0.86499V68.299H108.675V67.602Z" fill="#B0865D"/>
<path d="M2.50201 72.754V74.332H3C3 73.919 3.33101 73.584 3.73901 73.584C4.14701 73.584 4.478 73.919 4.478 74.332H5.086C5.086 73.919 5.41701 73.584 5.82501 73.584C6.23301 73.584 6.564 73.919 6.564 74.332H7.172C7.172 73.919 7.50301 73.584 7.91101 73.584C8.31901 73.584 8.64999 73.919 8.64999 74.332H9.258C9.258 73.919 9.58901 73.584 9.99701 73.584C10.405 73.584 10.736 73.919 10.736 74.332H11.344C11.344 73.919 11.675 73.584 12.083 73.584C12.491 73.584 12.822 73.919 12.822 74.332H13.43C13.43 73.919 13.761 73.584 14.169 73.584C14.577 73.584 14.908 73.919 14.908 74.332H15.516C15.516 73.919 15.847 73.584 16.255 73.584C16.663 73.584 16.994 73.919 16.994 74.332H17.602C17.602 73.919 17.933 73.584 18.341 73.584C18.749 73.584 19.08 73.919 19.08 74.332H19.688C19.688 73.919 20.019 73.584 20.427 73.584C20.835 73.584 21.166 73.919 21.166 74.332H21.774C21.774 73.919 22.105 73.584 22.513 73.584C22.921 73.584 23.252 73.919 23.252 74.332H23.86C23.86 73.919 24.191 73.584 24.599 73.584C25.007 73.584 25.338 73.919 25.338 74.332H25.946C25.946 73.919 26.277 73.584 26.685 73.584C27.093 73.584 27.424 73.919 27.424 74.332H28.032C28.032 73.919 28.363 73.584 28.771 73.584C29.179 73.584 29.51 73.919 29.51 74.332H30.118C30.118 73.919 30.449 73.584 30.857 73.584C31.265 73.584 31.596 73.919 31.596 74.332H32.204C32.204 73.919 32.535 73.584 32.943 73.584C33.351 73.584 33.682 73.919 33.682 74.332H34.29C34.29 73.919 34.621 73.584 35.029 73.584C35.437 73.584 35.768 73.919 35.768 74.332H36.376C36.376 73.919 36.707 73.584 37.115 73.584C37.523 73.584 37.854 73.919 37.854 74.332H38.462C38.462 73.919 38.793 73.584 39.201 73.584C39.609 73.584 39.94 73.919 39.94 74.332H40.548C40.548 73.919 40.879 73.584 41.287 73.584C41.695 73.584 42.026 73.919 42.026 74.332H42.634C42.634 73.919 42.965 73.584 43.373 73.584C43.781 73.584 44.112 73.919 44.112 74.332H44.72C44.72 73.919 45.051 73.584 45.459 73.584C45.867 73.584 46.198 73.919 46.198 74.332H46.806C46.806 73.919 47.137 73.584 47.545 73.584C47.953 73.584 48.284 73.919 48.284 74.332H48.892C48.892 73.919 49.223 73.584 49.631 73.584C50.039 73.584 50.37 73.919 50.37 74.332H50.978C50.978 73.919 51.309 73.584 51.717 73.584C52.125 73.584 52.456 73.919 52.456 74.332H53.064C53.064 73.919 53.395 73.584 53.803 73.584C54.211 73.584 54.542 73.919 54.542 74.332H55.15C55.15 73.919 55.481 73.584 55.889 73.584C56.297 73.584 56.628 73.919 56.628 74.332H57.236C57.236 73.919 57.567 73.584 57.975 73.584C58.383 73.584 58.714 73.919 58.714 74.332H59.322C59.322 73.919 59.653 73.584 60.061 73.584C60.469 73.584 60.8 73.919 60.8 74.332H61.408C61.408 73.919 61.739 73.584 62.147 73.584C62.555 73.584 62.886 73.919 62.886 74.332H63.494C63.494 73.919 63.825 73.584 64.233 73.584C64.641 73.584 64.972 73.919 64.972 74.332H65.58C65.58 73.919 65.911 73.584 66.319 73.584C66.727 73.584 67.058 73.919 67.058 74.332H67.666C67.666 73.919 67.997 73.584 68.405 73.584C68.813 73.584 69.144 73.919 69.144 74.332H69.752C69.752 73.919 70.083 73.584 70.491 73.584C70.899 73.584 71.23 73.919 71.23 74.332H71.838C71.838 73.919 72.169 73.584 72.577 73.584C72.985 73.584 73.316 73.919 73.316 74.332H73.924C73.924 73.919 74.255 73.584 74.663 73.584C75.071 73.584 75.402 73.919 75.402 74.332H76.01C76.01 73.919 76.341 73.584 76.749 73.584C77.157 73.584 77.488 73.919 77.488 74.332H78.096C78.096 73.919 78.427 73.584 78.835 73.584C79.243 73.584 79.574 73.919 79.574 74.332H80.182C80.182 73.919 80.513 73.584 80.921 73.584C81.329 73.584 81.66 73.919 81.66 74.332H82.268C82.268 73.919 82.599 73.584 83.007 73.584C83.415 73.584 83.746 73.919 83.746 74.332H84.354C84.354 73.919 84.685 73.584 85.093 73.584C85.501 73.584 85.832 73.919 85.832 74.332H86.44C86.44 73.919 86.771 73.584 87.179 73.584C87.587 73.584 87.918 73.919 87.918 74.332H88.526C88.526 73.919 88.857 73.584 89.265 73.584C89.673 73.584 90.004 73.919 90.004 74.332H90.612C90.612 73.919 90.943 73.584 91.351 73.584C91.759 73.584 92.09 73.919 92.09 74.332H92.698C92.698 73.919 93.029 73.584 93.437 73.584C93.845 73.584 94.176 73.919 94.176 74.332H94.784C94.784 73.919 95.115 73.584 95.523 73.584C95.931 73.584 96.262 73.919 96.262 74.332H96.87C96.87 73.919 97.201 73.584 97.609 73.584C98.017 73.584 98.348 73.919 98.348 74.332H98.956C98.956 73.919 99.287 73.584 99.695 73.584C100.103 73.584 100.434 73.919 100.434 74.332H101.042C101.042 73.919 101.373 73.584 101.781 73.584C102.189 73.584 102.52 73.919 102.52 74.332H103.128C103.128 73.919 103.459 73.584 103.867 73.584C104.275 73.584 104.606 73.919 104.606 74.332H105.214C105.214 73.919 105.545 73.584 105.953 73.584C106.361 73.584 106.692 73.919 106.692 74.332H107.19V72.754H2.50201Z" fill="#B0865D"/>
<path d="M4.08899 69.224H3.52802V72.304H4.08899V69.224Z" fill="#6A4022"/>
<path d="M7.384 69.224H6.823V72.304H7.384V69.224Z" fill="#6A4022"/>
<path d="M10.679 69.224H10.118V72.304H10.679V69.224Z" fill="#6A4022"/>
<path d="M13.974 69.224H13.413V72.304H13.974V69.224Z" fill="#6A4022"/>
<path d="M17.269 69.224H16.708V72.304H17.269V69.224Z" fill="#6A4022"/>
<path d="M20.564 69.224H20.003V72.304H20.564V69.224Z" fill="#6A4022"/>
<path d="M23.859 69.224H23.298V72.304H23.859V69.224Z" fill="#6A4022"/>
<path d="M27.154 69.224H26.593V72.304H27.154V69.224Z" fill="#6A4022"/>
<path d="M30.449 69.224H29.888V72.304H30.449V69.224Z" fill="#6A4022"/>
<path d="M33.743 69.224H33.182V72.304H33.743V69.224Z" fill="#6A4022"/>
<path d="M37.038 69.224H36.477V72.304H37.038V69.224Z" fill="#6A4022"/>
<path d="M40.333 69.224H39.772V72.304H40.333V69.224Z" fill="#6A4022"/>
<path d="M43.628 69.224H43.067V72.304H43.628V69.224Z" fill="#6A4022"/>
<path d="M46.923 69.224H46.362V72.304H46.923V69.224Z" fill="#6A4022"/>
<path d="M50.218 69.224H49.657V72.304H50.218V69.224Z" fill="#6A4022"/>
<path d="M53.513 69.224H52.952V72.304H53.513V69.224Z" fill="#6A4022"/>
<path d="M56.808 69.224H56.247V72.304H56.808V69.224Z" fill="#6A4022"/>
<path d="M60.103 69.224H59.542V72.304H60.103V69.224Z" fill="#6A4022"/>
<path d="M63.398 69.224H62.837V72.304H63.398V69.224Z" fill="#6A4022"/>
<path d="M66.693 69.224H66.132V72.304H66.693V69.224Z" fill="#6A4022"/>
<path d="M69.987 69.224H69.426V72.304H69.987V69.224Z" fill="#6A4022"/>
<path d="M73.282 69.224H72.721V72.304H73.282V69.224Z" fill="#6A4022"/>
<path d="M76.577 69.224H76.016V72.304H76.577V69.224Z" fill="#6A4022"/>
<path d="M79.872 69.224H79.311V72.304H79.872V69.224Z" fill="#6A4022"/>
<path d="M83.167 69.224H82.606V72.304H83.167V69.224Z" fill="#6A4022"/>
<path d="M86.462 69.224H85.901V72.304H86.462V69.224Z" fill="#6A4022"/>
<path d="M89.757 69.224H89.196V72.304H89.757V69.224Z" fill="#6A4022"/>
<path d="M93.052 69.224H92.491V72.304H93.052V69.224Z" fill="#6A4022"/>
<path d="M96.347 69.224H95.786V72.304H96.347V69.224Z" fill="#6A4022"/>
<path d="M99.642 69.224H99.081V72.304H99.642V69.224Z" fill="#6A4022"/>
<path d="M102.936 69.224H102.375V72.304H102.936V69.224Z" fill="#6A4022"/>
<path d="M106.231 69.224H105.67V72.304H106.231V69.224Z" fill="#6A4022"/>
<path d="M5.98199 72.304H4.944V70.723C4.944 70.436 5.17601 70.204 5.46301 70.204C5.75001 70.204 5.98199 70.436 5.98199 70.723V72.304Z" fill="#E0E0D6"/>
<path d="M5.08499 72.163V70.724C5.08499 70.516 5.25401 70.346 5.46201 70.346C5.67001 70.346 5.84 70.515 5.84 70.724V72.163H5.08499Z" fill="#4F5962"/>
<path d="M12.54 72.304H11.502V70.723C11.502 70.436 11.734 70.204 12.021 70.204C12.308 70.204 12.54 70.436 12.54 70.723V72.304Z" fill="#E0E0D6"/>
<path d="M11.644 72.163V70.724C11.644 70.516 11.813 70.346 12.022 70.346C12.231 70.346 12.4 70.515 12.4 70.724V72.163H11.644Z" fill="#4F5962"/>
<path d="M19.098 72.304H18.06V70.724C18.06 70.437 18.292 70.205 18.579 70.205C18.866 70.205 19.098 70.437 19.098 70.724V72.304Z" fill="#E0E0D6"/>
<path d="M18.202 72.163V70.724C18.202 70.516 18.371 70.346 18.58 70.346C18.788 70.346 18.957 70.515 18.957 70.724V72.163H18.202Z" fill="#4F5962"/>
<path d="M25.657 72.304H24.619V70.723C24.619 70.436 24.851 70.204 25.138 70.204C25.425 70.204 25.657 70.436 25.657 70.723V72.304Z" fill="#E0E0D6"/>
<path d="M24.76 72.163V70.724C24.76 70.516 24.929 70.346 25.137 70.346C25.345 70.346 25.515 70.515 25.515 70.724V72.163H24.76Z" fill="#4F5962"/>
<path d="M32.215 72.304H31.177V70.723C31.177 70.436 31.409 70.204 31.696 70.204C31.983 70.204 32.215 70.436 32.215 70.723V72.304Z" fill="#E0E0D6"/>
<path d="M31.318 72.163V70.724C31.318 70.516 31.487 70.346 31.696 70.346C31.905 70.346 32.074 70.515 32.074 70.724V72.163H31.318Z" fill="#4F5962"/>
<path d="M38.773 72.304H37.735V70.723C37.735 70.436 37.967 70.204 38.254 70.204C38.541 70.204 38.773 70.436 38.773 70.723V72.304Z" fill="#E0E0D6"/>
<path d="M37.877 72.163V70.724C37.877 70.516 38.046 70.346 38.255 70.346C38.463 70.346 38.632 70.515 38.632 70.724V72.163H37.877Z" fill="#4F5962"/>
<path d="M45.473 72.304H44.435V70.723C44.435 70.436 44.667 70.204 44.954 70.204C45.241 70.204 45.473 70.436 45.473 70.723V72.304Z" fill="#E0E0D6"/>
<path d="M44.577 72.163V70.724C44.577 70.516 44.746 70.346 44.955 70.346C45.163 70.346 45.332 70.515 45.332 70.724V72.163H44.577Z" fill="#4F5962"/>
<path d="M52.031 72.304H50.993V70.723C50.993 70.436 51.225 70.204 51.512 70.204C51.799 70.204 52.031 70.436 52.031 70.723V72.304Z" fill="#E0E0D6"/>
<path d="M51.135 72.162V70.723C51.135 70.515 51.304 70.345 51.512 70.345C51.72 70.345 51.889 70.514 51.889 70.723V72.162H51.135Z" fill="#4F5962"/>
<path d="M58.66 72.304H57.622V70.723C57.622 70.436 57.854 70.204 58.141 70.204C58.428 70.204 58.66 70.436 58.66 70.723V72.304Z" fill="#E0E0D6"/>
<path d="M57.764 72.162V70.723C57.764 70.515 57.933 70.345 58.142 70.345C58.35 70.345 58.519 70.514 58.519 70.723V72.162H57.764Z" fill="#4F5962"/>
<path d="M65.219 72.304H64.181V70.723C64.181 70.436 64.413 70.204 64.7 70.204C64.987 70.204 65.219 70.436 65.219 70.723V72.304Z" fill="#E0E0D6"/>
<path d="M64.322 72.162V70.723C64.322 70.515 64.491 70.345 64.699 70.345C64.907 70.345 65.077 70.514 65.077 70.723V72.162H64.322Z" fill="#4F5962"/>
<path d="M71.848 72.304H70.81V70.724C70.81 70.437 71.042 70.205 71.329 70.205C71.616 70.205 71.848 70.437 71.848 70.724V72.304Z" fill="#E0E0D6"/>
<path d="M70.951 72.162V70.723C70.951 70.515 71.12 70.345 71.329 70.345C71.537 70.345 71.706 70.514 71.706 70.723V72.162H70.951Z" fill="#4F5962"/>
<path d="M78.406 72.304H77.368V70.724C77.368 70.437 77.6 70.205 77.887 70.205C78.174 70.205 78.406 70.437 78.406 70.724V72.304Z" fill="#E0E0D6"/>
<path d="M77.509 72.162V70.723C77.509 70.515 77.678 70.345 77.886 70.345C78.094 70.345 78.264 70.514 78.264 70.723V72.162H77.509Z" fill="#4F5962"/>
<path d="M85.035 72.304H83.997V70.723C83.997 70.436 84.229 70.204 84.516 70.204C84.803 70.204 85.035 70.436 85.035 70.723V72.304Z" fill="#E0E0D6"/>
<path d="M84.138 72.162V70.723C84.138 70.515 84.307 70.345 84.516 70.345C84.724 70.345 84.893 70.514 84.893 70.723V72.162H84.138Z" fill="#4F5962"/>
<path d="M91.593 72.304H90.555V70.723C90.555 70.436 90.787 70.204 91.074 70.204C91.361 70.204 91.593 70.436 91.593 70.723V72.304Z" fill="#E0E0D6"/>
<path d="M90.697 72.162V70.723C90.697 70.515 90.866 70.345 91.074 70.345C91.282 70.345 91.452 70.514 91.452 70.723V72.162H90.697Z" fill="#4F5962"/>
<path d="M98.151 72.304H97.113V70.723C97.113 70.436 97.345 70.204 97.632 70.204C97.919 70.204 98.151 70.436 98.151 70.723V72.304Z" fill="#E0E0D6"/>
<path d="M97.255 72.162V70.723C97.255 70.515 97.424 70.346 97.633 70.346C97.842 70.346 98.011 70.515 98.011 70.723V72.162H97.255Z" fill="#4F5962"/>
<path d="M104.71 72.304H103.672V70.723C103.672 70.436 103.904 70.204 104.191 70.204C104.478 70.204 104.71 70.436 104.71 70.723V72.304Z" fill="#E0E0D6"/>
<path d="M103.813 72.162V70.723C103.813 70.515 103.982 70.346 104.191 70.346C104.399 70.346 104.568 70.515 104.568 70.723V72.162H103.813Z" fill="#4F5962"/>
<path d="M107.495 84.7H2.25601V85.149H107.495V84.7Z" fill="#303335"/>
<path d="M107.543 98.091H2.30399V101.978H107.543V98.091Z" fill="#303335"/>
<path d="M108.662 68.299H0.839996L1.548 69.224H107.954L108.662 68.299Z" fill="#010E11"/>
<path d="M13.537 78.037H7.616V87.379H13.537V78.037Z" fill="#6A4022"/>
<path d="M13.904 87.379H7.25101V88.016H13.904V87.379Z" fill="#303335"/>
<path d="M10.577 89.083C12.212 89.083 13.538 88.605 13.538 88.016H7.617C7.616 88.605 8.942 89.083 10.577 89.083Z" fill="#303335"/>
<path d="M11.028 89.608H10.126C9.95501 89.608 9.81601 89.469 9.81601 89.298C9.81601 89.127 9.95501 88.988 10.126 88.988H11.028C11.199 88.988 11.338 89.127 11.338 89.298C11.338 89.469 11.199 89.608 11.028 89.608Z" fill="#303335"/>
<path d="M10.798 90.67H10.356C10.185 90.67 10.046 90.531 10.046 90.36C10.046 90.189 10.185 90.05 10.356 90.05H10.798C10.969 90.05 11.108 90.189 11.108 90.36C11.108 90.531 10.969 90.67 10.798 90.67Z" fill="#303335"/>
<path d="M10.931 89.466H10.223V90.121H10.931V89.466Z" fill="#303335"/>
<path d="M13.756 77.612H7.39801V78.037H13.756V77.612Z" fill="#303335"/>
<path d="M13.874 77.282H7.28V77.612H13.874V77.282Z" fill="#8B9072"/>
<path d="M7.28 77.282L10.577 73.212L13.874 77.282H7.28Z" fill="#ABAE81"/>
<path d="M7.94101 77.282L8.60199 76.197L9.26199 77.282H7.94101Z" fill="#8B9072"/>
<path d="M8.164 77.14L8.60199 76.422L9.039 77.14H8.164Z" fill="#FFCE74"/>
<path d="M9.26199 77.282L9.923 76.197L10.584 77.282H9.26199Z" fill="#8B9072"/>
<path d="M9.48499 77.14L9.923 76.422L10.361 77.14H9.48499Z" fill="#FFCE74"/>
<path d="M10.584 77.282L11.244 76.197L11.905 77.282H10.584Z" fill="#8B9072"/>
<path d="M10.807 77.14L11.244 76.422L11.682 77.14H10.807Z" fill="#FFCE74"/>
<path d="M11.905 77.282L12.566 76.197L13.226 77.282H11.905Z" fill="#8B9072"/>
<path d="M12.128 77.14L12.566 76.422L13.003 77.14H12.128Z" fill="#FFCE74"/>
<path d="M13.213 77.282L13.874 76.197V77.282H13.213Z" fill="#8B9072"/>
<path d="M7.94101 77.282L7.28 76.197V77.282H7.94101Z" fill="#8B9072"/>
<path d="M19.653 84.7H15.501V78.498C15.501 77.351 16.43 76.422 17.577 76.422C18.724 76.422 19.653 77.351 19.653 78.498V84.7Z" fill="#6A4022"/>
<path d="M19.841 78.037H15.294V78.515H19.841V78.037Z" fill="#303335"/>
<path d="M19.653 78.957H15.501V84.7H19.653V78.957Z" fill="#303335"/>
<path d="M19.3702 84.4167V79.2397H15.7842V84.4167H19.3702Z" fill="#C2C0AC"/>
<path d="M17.117 79.24H16.763V84.417H17.117V79.24Z" fill="#303335"/>
<path d="M18.338 79.24H17.984V84.417H18.338V79.24Z" fill="#303335"/>
<path d="M19.37 80.673H15.784V81.098H19.37V80.673Z" fill="#303335"/>
<path d="M19.37 82.416H15.784V82.841H19.37V82.416Z" fill="#303335"/>
<path d="M25.592 84.7H21.44V78.498C21.44 77.351 22.369 76.422 23.516 76.422C24.663 76.422 25.592 77.351 25.592 78.498V84.7Z" fill="#6A4022"/>
<path d="M25.78 78.037H21.233V78.515H25.78V78.037Z" fill="#303335"/>
<path d="M25.592 78.957H21.44V84.7H25.592V78.957Z" fill="#303335"/>
<path d="M25.3091 84.4167V79.2397H21.7231V84.4167H25.3091Z" fill="#C2C0AC"/>
<path d="M23.056 79.24H22.702V84.417H23.056V79.24Z" fill="#303335"/>
<path d="M24.277 79.24H23.923V84.417H24.277V79.24Z" fill="#303335"/>
<path d="M25.309 80.673H21.723V81.098H25.309V80.673Z" fill="#303335"/>
<path d="M25.309 82.416H21.723V82.841H25.309V82.416Z" fill="#303335"/>
<path d="M31.531 84.7H27.379V78.498C27.379 77.351 28.309 76.422 29.455 76.422C30.602 76.422 31.531 77.351 31.531 78.498V84.7Z" fill="#6A4022"/>
<path d="M31.719 78.037H27.172V78.515H31.719V78.037Z" fill="#303335"/>
<path d="M31.531 78.957H27.379V84.7H31.531V78.957Z" fill="#303335"/>
<path d="M31.2481 84.4167V79.2397H27.6621V84.4167H31.2481Z" fill="#C2C0AC"/>
<path d="M28.995 79.24H28.641V84.417H28.995V79.24Z" fill="#303335"/>
<path d="M30.216 79.24H29.862V84.417H30.216V79.24Z" fill="#303335"/>
<path d="M31.248 80.673H27.662V81.098H31.248V80.673Z" fill="#303335"/>
<path d="M31.248 82.416H27.662V82.841H31.248V82.416Z" fill="#303335"/>
<path d="M37.47 84.7H33.318V78.498C33.318 77.351 34.248 76.422 35.394 76.422C36.541 76.422 37.47 77.351 37.47 78.498V84.7Z" fill="#6A4022"/>
<path d="M37.658 78.037H33.111V78.515H37.658V78.037Z" fill="#303335"/>
<path d="M37.47 78.957H33.318V84.7H37.47V78.957Z" fill="#303335"/>
<path d="M37.1871 84.4167V79.2397H33.6011V84.4167H37.1871Z" fill="#C2C0AC"/>
<path d="M34.934 79.24H34.58V84.417H34.934V79.24Z" fill="#303335"/>
<path d="M36.155 79.24H35.801V84.417H36.155V79.24Z" fill="#303335"/>
<path d="M37.187 80.673H33.601V81.098H37.187V80.673Z" fill="#303335"/>
<path d="M37.187 82.416H33.601V82.841H37.187V82.416Z" fill="#303335"/>
<path d="M43.409 84.7H39.257V78.498C39.257 77.351 40.187 76.422 41.333 76.422C42.48 76.422 43.409 77.351 43.409 78.498V84.7Z" fill="#6A4022"/>
<path d="M43.597 78.037H39.05V78.515H43.597V78.037Z" fill="#303335"/>
<path d="M43.409 78.957H39.257V84.7H43.409V78.957Z" fill="#303335"/>
<path d="M43.1261 84.4167V79.2397H39.5401V84.4167H43.1261Z" fill="#C2C0AC"/>
<path d="M40.873 79.24H40.519V84.417H40.873V79.24Z" fill="#303335"/>
<path d="M42.094 79.24H41.74V84.417H42.094V79.24Z" fill="#303335"/>
<path d="M43.126 80.673H39.54V81.098H43.126V80.673Z" fill="#303335"/>
<path d="M43.126 82.416H39.54V82.841H43.126V82.416Z" fill="#303335"/>
<path d="M49.348 84.7H45.196V78.498C45.196 77.351 46.126 76.422 47.272 76.422C48.419 76.422 49.348 77.351 49.348 78.498V84.7Z" fill="#6A4022"/>
<path d="M49.536 78.037H44.989V78.515H49.536V78.037Z" fill="#303335"/>
<path d="M49.348 78.957H45.196V84.7H49.348V78.957Z" fill="#303335"/>
<path d="M49.0651 84.4167V79.2397H45.4791V84.4167H49.0651Z" fill="#C2C0AC"/>
<path d="M46.812 79.24H46.458V84.417H46.812V79.24Z" fill="#303335"/>
<path d="M48.033 79.24H47.679V84.417H48.033V79.24Z" fill="#303335"/>
<path d="M49.065 80.673H45.479V81.098H49.065V80.673Z" fill="#303335"/>
<path d="M49.065 82.416H45.479V82.841H49.065V82.416Z" fill="#303335"/>
<path d="M12.66 79.358H8.508V85.101H12.66V79.358Z" fill="#303335"/>
<path d="M12.3766 84.8184L12.3766 79.6414H8.79061V84.8184H12.3766Z" fill="#C2C0AC"/>
<path d="M10.124 79.642H9.76999V84.819H10.124V79.642Z" fill="#303335"/>
<path d="M11.345 79.642H10.991V84.819H11.345V79.642Z" fill="#303335"/>
<path d="M12.377 81.075H8.79099V81.5H12.377V81.075Z" fill="#303335"/>
<path d="M12.377 82.817H8.79099V83.242H12.377V82.817Z" fill="#303335"/>
<path d="M17.577 91.616H15.993V87.763C15.993 87.326 16.347 86.971 16.785 86.971C17.222 86.971 17.577 87.325 17.577 87.763V91.616Z" fill="#6A4022"/>
<path d="M19.16 91.616H17.576V87.763C17.576 87.326 17.93 86.971 18.368 86.971C18.805 86.971 19.16 87.325 19.16 87.763V91.616Z" fill="#6A4022"/>
<path d="M17.577 87.786H15.993V91.616H17.577V87.786Z" fill="#E0E0D6"/>
<path d="M17.3649 91.404V87.998H16.2059V91.404H17.3649Z" fill="#303335"/>
<path d="M17.427 89.873H16.144V90.077H17.427V89.873Z" fill="#E0E0D6"/>
<path d="M19.16 87.786H17.577V91.616H19.16V87.786Z" fill="#E0E0D6"/>
<path d="M18.9485 91.4044V87.9984H17.7895V91.4044H18.9485Z" fill="#303335"/>
<path d="M19.01 89.873H17.727V90.077H19.01V89.873Z" fill="#E0E0D6"/>
<path d="M23.516 91.616H21.933V87.763C21.933 87.326 22.287 86.971 22.725 86.971C23.162 86.971 23.517 87.325 23.517 87.763V91.616H23.516Z" fill="#6A4022"/>
<path d="M25.099 91.616H23.515V87.763C23.515 87.326 23.87 86.971 24.307 86.971C24.744 86.971 25.099 87.325 25.099 87.763V91.616Z" fill="#6A4022"/>
<path d="M23.515 87.786H21.932V91.616H23.515V87.786Z" fill="#E0E0D6"/>
<path d="M23.3039 91.404V87.998H22.1449V91.404H23.3039Z" fill="#303335"/>
<path d="M23.366 89.873H22.083V90.077H23.366V89.873Z" fill="#E0E0D6"/>
<path d="M25.1 87.786H23.516V91.616H25.1V87.786Z" fill="#E0E0D6"/>
<path d="M24.8875 91.4044V87.9984H23.7285V91.4044H24.8875Z" fill="#303335"/>
<path d="M24.949 89.873H23.666V90.077H24.949V89.873Z" fill="#E0E0D6"/>
<path d="M29.455 91.616H27.872V87.763C27.872 87.326 28.227 86.971 28.664 86.971C29.101 86.971 29.456 87.325 29.456 87.763V91.616H29.455Z" fill="#6A4022"/>
<path d="M31.038 91.616H29.454V87.763C29.454 87.326 29.809 86.971 30.246 86.971C30.683 86.971 31.038 87.325 31.038 87.763V91.616Z" fill="#6A4022"/>
<path d="M29.454 87.786H27.871V91.616H29.454V87.786Z" fill="#E0E0D6"/>
<path d="M29.2429 91.404V87.998H28.0839V91.404H29.2429Z" fill="#303335"/>
<path d="M29.305 89.873H28.022V90.077H29.305V89.873Z" fill="#E0E0D6"/>
<path d="M31.039 87.786H29.455V91.616H31.039V87.786Z" fill="#E0E0D6"/>
<path d="M30.8265 91.4044V87.9984H29.6675V91.4044H30.8265Z" fill="#303335"/>
<path d="M30.888 89.873H29.605V90.077H30.888V89.873Z" fill="#E0E0D6"/>
<path d="M35.394 91.616H33.81V87.763C33.81 87.326 34.165 86.971 34.602 86.971C35.039 86.971 35.394 87.325 35.394 87.763V91.616Z" fill="#6A4022"/>
<path d="M36.977 91.616H35.393V87.763C35.393 87.326 35.747 86.971 36.185 86.971C36.622 86.971 36.977 87.325 36.977 87.763V91.616Z" fill="#6A4022"/>
<path d="M35.393 87.786H33.81V91.616H35.393V87.786Z" fill="#E0E0D6"/>
<path d="M35.1819 91.404V87.998H34.0229V91.404H35.1819Z" fill="#303335"/>
<path d="M35.244 89.873H33.961V90.077H35.244V89.873Z" fill="#E0E0D6"/>
<path d="M36.978 87.786H35.394V91.616H36.978V87.786Z" fill="#E0E0D6"/>
<path d="M36.7644 91.4035V87.9975H35.6054V91.4035H36.7644Z" fill="#303335"/>
<path d="M36.827 89.873H35.544V90.077H36.827V89.873Z" fill="#E0E0D6"/>
<path d="M41.333 91.616H39.75V87.763C39.75 87.326 40.104 86.971 40.542 86.971C40.979 86.971 41.334 87.325 41.334 87.763V91.616H41.333Z" fill="#6A4022"/>
<path d="M42.916 91.616H41.332V87.763C41.332 87.326 41.686 86.971 42.124 86.971C42.561 86.971 42.916 87.325 42.916 87.763V91.616Z" fill="#6A4022"/>
<path d="M41.332 87.786H39.749V91.616H41.332V87.786Z" fill="#E0E0D6"/>
<path d="M41.1209 91.404V87.998H39.9619V91.404H41.1209Z" fill="#303335"/>
<path d="M41.183 89.873H39.9V90.077H41.183V89.873Z" fill="#E0E0D6"/>
<path d="M42.917 87.786H41.333V91.616H42.917V87.786Z" fill="#E0E0D6"/>
<path d="M42.7034 91.4045V87.9985H41.5444V91.4045H42.7034Z" fill="#303335"/>
<path d="M42.766 89.873H41.483V90.077H42.766V89.873Z" fill="#E0E0D6"/>
<path d="M19.216 98.091H15.937V94.379C15.937 93.75 16.447 93.241 17.075 93.241H18.078C18.707 93.241 19.216 93.751 19.216 94.379V98.091Z" fill="#6A4022"/>
<path d="M18.988 94.48H16.167V97.853H18.988V94.48Z" fill="#E0E0D6"/>
<path d="M18.775 97.6405V94.6915H16.379V97.6405H18.775Z" fill="#303335"/>
<path d="M17.323 94.692H17.111V97.641H17.323V94.692Z" fill="#E0E0D6"/>
<path d="M18.178 94.692H17.966V97.641H18.178V94.692Z" fill="#E0E0D6"/>
<path d="M18.775 96.414H16.379V96.644H18.775V96.414Z" fill="#E0E0D6"/>
<path d="M25.155 98.091H21.876V94.379C21.876 93.75 22.386 93.241 23.014 93.241H24.017C24.646 93.241 25.155 93.751 25.155 94.379V98.091Z" fill="#6A4022"/>
<path d="M24.926 94.48H22.105V97.853H24.926V94.48Z" fill="#E0E0D6"/>
<path d="M24.714 97.6405V94.6915H22.318V97.6405H24.714Z" fill="#303335"/>
<path d="M23.262 94.692H23.05V97.641H23.262V94.692Z" fill="#E0E0D6"/>
<path d="M24.117 94.692H23.905V97.641H24.117V94.692Z" fill="#E0E0D6"/>
<path d="M24.714 96.414H22.318V96.644H24.714V96.414Z" fill="#E0E0D6"/>
<path d="M31.094 98.091H27.815V94.379C27.815 93.75 28.325 93.241 28.953 93.241H29.956C30.585 93.241 31.094 93.751 31.094 94.379V98.091Z" fill="#6A4022"/>
<path d="M30.865 94.48H28.044V97.853H30.865V94.48Z" fill="#E0E0D6"/>
<path d="M30.653 97.6405V94.6915H28.257V97.6405H30.653Z" fill="#303335"/>
<path d="M29.201 94.692H28.989V97.641H29.201V94.692Z" fill="#E0E0D6"/>
<path d="M30.056 94.692H29.844V97.641H30.056V94.692Z" fill="#E0E0D6"/>
<path d="M30.653 96.414H28.257V96.644H30.653V96.414Z" fill="#E0E0D6"/>
<path d="M37.033 98.091H33.754V94.379C33.754 93.75 34.264 93.241 34.892 93.241H35.895C36.524 93.241 37.033 93.751 37.033 94.379V98.091Z" fill="#6A4022"/>
<path d="M36.804 94.48H33.983V97.853H36.804V94.48Z" fill="#E0E0D6"/>
<path d="M36.592 97.6405V94.6915H34.196V97.6405H36.592Z" fill="#303335"/>
<path d="M35.14 94.692H34.928V97.641H35.14V94.692Z" fill="#E0E0D6"/>
<path d="M35.995 94.692H35.783V97.641H35.995V94.692Z" fill="#E0E0D6"/>
<path d="M36.592 96.414H34.196V96.644H36.592V96.414Z" fill="#E0E0D6"/>
<path d="M42.972 98.091H39.693V94.379C39.693 93.75 40.203 93.241 40.831 93.241H41.834C42.463 93.241 42.972 93.751 42.972 94.379V98.091Z" fill="#6A4022"/>
<path d="M42.743 94.48H39.922V97.853H42.743V94.48Z" fill="#E0E0D6"/>
<path d="M42.531 97.6405V94.6915H40.135V97.6405H42.531Z" fill="#303335"/>
<path d="M41.079 94.692H40.867V97.641H41.079V94.692Z" fill="#E0E0D6"/>
<path d="M41.934 94.692H41.722V97.641H41.934V94.692Z" fill="#E0E0D6"/>
<path d="M42.531 96.414H40.135V96.644H42.531V96.414Z" fill="#E0E0D6"/>
<path d="M48.575 85.149H47.496V88.21H48.575V85.149Z" fill="#303335"/>
<path d="M48.274 88.472H47.797C47.706 88.472 47.633 88.399 47.633 88.308C47.633 88.218 47.706 88.144 47.797 88.144H48.274C48.364 88.144 48.438 88.217 48.438 88.308C48.438 88.398 48.365 88.472 48.274 88.472Z" fill="#303335"/>
<path d="M48.152 89.033H47.918C47.828 89.033 47.754 88.96 47.754 88.869C47.754 88.779 47.827 88.705 47.918 88.705H48.152C48.242 88.705 48.316 88.778 48.316 88.869C48.316 88.96 48.243 89.033 48.152 89.033Z" fill="#303335"/>
<path d="M48.222 88.397H47.848V88.743H48.222V88.397Z" fill="#303335"/>
<path d="M57.776 86.432H50.97V86.927H57.776V86.432Z" fill="#010E11"/>
<path d="M51.335 86.927H50.97V88.21H51.335V86.927Z" fill="#010E11"/>
<path d="M52.946 86.927H52.58V88.21H52.946V86.927Z" fill="#010E11"/>
<path d="M54.556 86.927H54.19V88.21H54.556V86.927Z" fill="#010E11"/>
<path d="M57.776 86.927H57.41V88.21H57.776V86.927Z" fill="#010E11"/>
<path d="M56.071 75.507H52.674V82.416H56.071V75.507Z" fill="#FFCE74"/>
<path d="M56.276 75.312H52.47V75.701H56.276V75.312Z" fill="#303335"/>
<path d="M54.373 73.109L51.993 75.363H56.753L54.373 73.109Z" fill="#ABAE81"/>
<path d="M54.45 71.614H54.296V73.428H54.45V71.614Z" fill="#ABAE81"/>
<path d="M54.643 72.304C54.643 72.453 54.522 72.574 54.373 72.574C54.224 72.574 54.103 72.453 54.103 72.304C54.103 72.155 54.224 72.034 54.373 72.034C54.522 72.034 54.643 72.155 54.643 72.304Z" fill="#FFCE74"/>
<path d="M59.327 89.172H49.419V102.026H59.327V89.172Z" fill="#6A4022"/>
<path d="M58.725 100.802H50.02V94.328C50.02 91.924 51.969 89.975 54.372 89.975C56.776 89.975 58.725 91.924 58.725 94.328V100.802Z" fill="#010E11"/>
<path d="M57.197 100.802H51.714V94.406C51.714 92.892 52.941 91.665 54.455 91.665C55.969 91.665 57.196 92.892 57.196 94.406L57.197 100.802Z" fill="#4F5962"/>
<path d="M57.197 95.388H51.714V100.801H57.197V95.388Z" fill="#412000"/>
<path d="M57.162 93.972H56.148V92.981H56.798C56.761 92.92 56.721 92.862 56.68 92.804H56.149V92.25C56.088 92.202 56.025 92.157 55.96 92.114V92.804H55.028V91.724C54.966 91.711 54.903 91.7 54.839 91.691V92.804H53.907V91.719C53.843 91.732 53.78 91.748 53.718 91.765V92.804H52.786V92.231C52.721 92.281 52.658 92.334 52.597 92.39V92.804H52.231C52.189 92.861 52.15 92.92 52.113 92.981H52.598V93.972H51.749C51.74 94.03 51.732 94.089 51.727 94.149H52.598V95.388H52.787V94.149H53.719V95.388H53.908V94.149H54.84V95.388H55.029V94.149H55.961V95.388H56.15V94.149H57.186C57.179 94.09 57.172 94.031 57.162 93.972ZM53.718 93.972H52.786V92.981H53.718V93.972ZM54.839 93.972H53.907V92.981H54.839V93.972ZM55.96 93.972H55.028V92.981H55.96V93.972Z" fill="#E0E0D6"/>
<path d="M58.725 100.802H50.021L49.419 102.026H59.327L58.725 100.802Z" fill="#865B3D"/>
<path d="M49.849 99.41H48.575V102.026H49.849V99.41Z" fill="#6A4022"/>
<path d="M60.205 99.41H58.931V102.026H60.205V99.41Z" fill="#6A4022"/>
<path d="M95.2427 87.3784H101.164V78.0364H95.2427V87.3784Z" fill="#6A4022"/>
<path d="M94.8767 88.0154H101.53V87.3784H94.8767V88.0154Z" fill="#303335"/>
<path d="M98.203 89.083C96.568 89.083 95.242 88.605 95.242 88.016H101.163C101.164 88.605 99.839 89.083 98.203 89.083Z" fill="#303335"/>
<path d="M97.752 89.608H98.654C98.825 89.608 98.964 89.469 98.964 89.298C98.964 89.127 98.825 88.988 98.654 88.988H97.752C97.581 88.988 97.442 89.127 97.442 89.298C97.443 89.469 97.581 89.608 97.752 89.608Z" fill="#303335"/>
<path d="M97.982 90.67H98.424C98.595 90.67 98.734 90.531 98.734 90.36C98.734 90.189 98.595 90.05 98.424 90.05H97.982C97.811 90.05 97.672 90.189 97.672 90.36C97.673 90.531 97.811 90.67 97.982 90.67Z" fill="#303335"/>
<path d="M97.8497 90.1216H98.5577V89.4666H97.8497V90.1216Z" fill="#303335"/>
<path d="M95.0237 78.0368H101.382V77.6118H95.0237V78.0368Z" fill="#303335"/>
<path d="M94.9067 77.6119H101.501V77.2819H94.9067V77.6119Z" fill="#8B9072"/>
<path d="M101.5 77.282L98.203 73.212L94.906 77.282H101.5Z" fill="#ABAE81"/>
<path d="M100.839 77.282L100.179 76.197L99.518 77.282H100.839Z" fill="#8B9072"/>
<path d="M100.616 77.14L100.179 76.422L99.741 77.14H100.616Z" fill="#FFCE74"/>
<path d="M99.518 77.282L98.857 76.197L98.197 77.282H99.518Z" fill="#8B9072"/>
<path d="M99.295 77.14L98.857 76.422L98.42 77.14H99.295Z" fill="#FFCE74"/>
<path d="M98.197 77.282L97.536 76.197L96.876 77.282H98.197Z" fill="#8B9072"/>
<path d="M97.974 77.14L97.536 76.422L97.099 77.14H97.974Z" fill="#FFCE74"/>
<path d="M96.876 77.282L96.215 76.197L95.554 77.282H96.876Z" fill="#8B9072"/>
<path d="M96.652 77.14L96.215 76.422L95.777 77.14H96.652Z" fill="#FFCE74"/>
<path d="M95.567 77.282L94.906 76.197V77.282H95.567Z" fill="#8B9072"/>
<path d="M100.839 77.282L101.5 76.197V77.282H100.839Z" fill="#8B9072"/>
<path d="M89.128 84.7H93.28V78.498C93.28 77.351 92.35 76.422 91.204 76.422C90.057 76.422 89.128 77.351 89.128 78.498V84.7Z" fill="#6A4022"/>
<path d="M88.9392 78.5142H93.4862V78.0362H88.9392V78.5142Z" fill="#303335"/>
<path d="M89.1276 84.6998H93.2796V78.9568H89.1276V84.6998Z" fill="#303335"/>
<path d="M92.9971 84.4167V79.2397H89.4111V84.4167H92.9971Z" fill="#C2C0AC"/>
<path d="M91.6634 84.4168H92.0174V79.2398H91.6634V84.4168Z" fill="#303335"/>
<path d="M90.4428 84.4168H90.7968V79.2398H90.4428V84.4168Z" fill="#303335"/>
<path d="M89.4105 81.0976H92.9965V80.6726H89.4105V81.0976Z" fill="#303335"/>
<path d="M89.4105 82.8402H92.9965V82.4152H89.4105V82.8402Z" fill="#303335"/>
<path d="M83.189 84.7H87.341V78.498C87.341 77.351 86.411 76.422 85.265 76.422C84.118 76.422 83.189 77.351 83.189 78.498V84.7Z" fill="#6A4022"/>
<path d="M83.0002 78.5142H87.5472V78.0362H83.0002V78.5142Z" fill="#303335"/>
<path d="M83.1886 84.6998H87.3406V78.9568H83.1886V84.6998Z" fill="#303335"/>
<path d="M87.0581 84.4167V79.2397H83.4721V84.4167H87.0581Z" fill="#C2C0AC"/>
<path d="M85.7244 84.4168H86.0784V79.2398H85.7244V84.4168Z" fill="#303335"/>
<path d="M84.5038 84.4168H84.8578V79.2398H84.5038V84.4168Z" fill="#303335"/>
<path d="M83.4715 81.0976H87.0575V80.6726H83.4715V81.0976Z" fill="#303335"/>
<path d="M83.4715 82.8402H87.0575V82.4152H83.4715V82.8402Z" fill="#303335"/>
<path d="M77.25 84.7H81.402V78.498C81.402 77.351 80.472 76.422 79.326 76.422C78.179 76.422 77.25 77.351 77.25 78.498V84.7Z" fill="#6A4022"/>
<path d="M77.0613 78.5142H81.6083V78.0362H77.0613V78.5142Z" fill="#303335"/>
<path d="M77.2496 84.6998H81.4016V78.9568H77.2496V84.6998Z" fill="#303335"/>
<path d="M81.1192 84.4166V79.2396H77.5332V84.4166H81.1192Z" fill="#C2C0AC"/>
<path d="M79.7855 84.4168H80.1395V79.2398H79.7855V84.4168Z" fill="#303335"/>
<path d="M78.5648 84.4168H78.9188V79.2398H78.5648V84.4168Z" fill="#303335"/>
<path d="M77.5326 81.0976H81.1186V80.6726H77.5326V81.0976Z" fill="#303335"/>
<path d="M77.5326 82.8402H81.1186V82.4152H77.5326V82.8402Z" fill="#303335"/>
<path d="M71.311 84.7H75.463V78.498C75.463 77.351 74.533 76.422 73.387 76.422C72.24 76.422 71.311 77.351 71.311 78.498V84.7Z" fill="#6A4022"/>
<path d="M71.1223 78.5142H75.6693V78.0362H71.1223V78.5142Z" fill="#303335"/>
<path d="M71.3106 84.6998H75.4626V78.9568H71.3106V84.6998Z" fill="#303335"/>
<path d="M75.1802 84.4166V79.2396H71.5942V84.4166H75.1802Z" fill="#C2C0AC"/>
<path d="M73.8465 84.4168H74.2005V79.2398H73.8465V84.4168Z" fill="#303335"/>
<path d="M72.6258 84.4168H72.9798V79.2398H72.6258V84.4168Z" fill="#303335"/>
<path d="M71.5936 81.0976H75.1796V80.6726H71.5936V81.0976Z" fill="#303335"/>
<path d="M71.5936 82.8402H75.1796V82.4152H71.5936V82.8402Z" fill="#303335"/>
<path d="M65.372 84.7H69.524V78.498C69.524 77.351 68.594 76.422 67.448 76.422C66.301 76.422 65.372 77.351 65.372 78.498V84.7Z" fill="#6A4022"/>
<path d="M65.1833 78.5142H69.7303V78.0362H65.1833V78.5142Z" fill="#303335"/>
<path d="M65.3716 84.6998H69.5236V78.9568H65.3716V84.6998Z" fill="#303335"/>
<path d="M69.2412 84.4166V79.2396H65.6552V84.4166H69.2412Z" fill="#C2C0AC"/>
<path d="M67.9075 84.4168H68.2615V79.2398H67.9075V84.4168Z" fill="#303335"/>
<path d="M66.6868 84.4168H67.0408V79.2398H66.6868V84.4168Z" fill="#303335"/>
<path d="M65.6546 81.0976H69.2406V80.6726H65.6546V81.0976Z" fill="#303335"/>
<path d="M65.6546 82.8402H69.2406V82.4152H65.6546V82.8402Z" fill="#303335"/>
<path d="M59.433 84.7H63.585V78.498C63.585 77.351 62.656 76.422 61.509 76.422C60.363 76.422 59.433 77.351 59.433 78.498V84.7Z" fill="#6A4022"/>
<path d="M59.2443 78.5142H63.7913V78.0362H59.2443V78.5142Z" fill="#303335"/>
<path d="M59.4326 84.6998H63.5846V78.9568H59.4326V84.6998Z" fill="#303335"/>
<path d="M63.3022 84.4166V79.2396H59.7162V84.4166H63.3022Z" fill="#C2C0AC"/>
<path d="M61.9685 84.4168H62.3225V79.2398H61.9685V84.4168Z" fill="#303335"/>
<path d="M60.7478 84.4168H61.1018V79.2398H60.7478V84.4168Z" fill="#303335"/>
<path d="M59.7156 81.0976H63.3016V80.6726H59.7156V81.0976Z" fill="#303335"/>
<path d="M59.7156 82.8402H63.3016V82.4152H59.7156V82.8402Z" fill="#303335"/>
<path d="M96.1208 85.102H100.273V79.359H96.1208V85.102Z" fill="#303335"/>
<path d="M99.9899 84.8181V79.6411H96.4039V84.8181H99.9899Z" fill="#C2C0AC"/>
<path d="M98.6567 84.818H99.0107V79.641H98.6567V84.818Z" fill="#303335"/>
<path d="M97.436 84.818H97.79V79.641H97.436V84.818Z" fill="#303335"/>
<path d="M96.4038 81.4989H99.9898V81.0739H96.4038V81.4989Z" fill="#303335"/>
<path d="M96.4038 83.2424H99.9898V82.8174H96.4038V83.2424Z" fill="#303335"/>
<path d="M91.204 91.616H92.787V87.763C92.787 87.326 92.433 86.971 91.995 86.971C91.558 86.971 91.203 87.325 91.203 87.763V91.616H91.204Z" fill="#6A4022"/>
<path d="M89.62 91.616H91.204V87.763C91.204 87.326 90.85 86.971 90.412 86.971C89.975 86.971 89.62 87.325 89.62 87.763V91.616Z" fill="#6A4022"/>
<path d="M91.2041 91.6159H92.7871V87.7859H91.2041V91.6159Z" fill="#E0E0D6"/>
<path d="M92.5755 91.4044V87.9984H91.4165V91.4044H92.5755Z" fill="#303335"/>
<path d="M91.354 90.0773H92.637V89.8733H91.354V90.0773Z" fill="#E0E0D6"/>
<path d="M89.62 91.6159H91.204V87.7859H89.62V91.6159Z" fill="#E0E0D6"/>
<path d="M90.9919 91.404V87.998H89.8329V91.404H90.9919Z" fill="#303335"/>
<path d="M89.77 90.0773H91.053V89.8733H89.77V90.0773Z" fill="#E0E0D6"/>
<path d="M85.265 91.616H86.848V87.763C86.848 87.326 86.494 86.971 86.056 86.971C85.619 86.971 85.264 87.325 85.264 87.763V91.616H85.265Z" fill="#6A4022"/>
<path d="M83.681 91.616H85.265V87.763C85.265 87.326 84.91 86.971 84.473 86.971C84.036 86.971 83.681 87.325 83.681 87.763V91.616Z" fill="#6A4022"/>
<path d="M85.2651 91.6159H86.8481V87.7859H85.2651V91.6159Z" fill="#E0E0D6"/>
<path d="M86.6365 91.4044V87.9984H85.4775V91.4044H86.6365Z" fill="#303335"/>
<path d="M85.4151 90.0773H86.6981V89.8733H85.4151V90.0773Z" fill="#E0E0D6"/>
<path d="M83.681 91.6159H85.265V87.7859H83.681V91.6159Z" fill="#E0E0D6"/>
<path d="M85.0529 91.404V87.998H83.8939V91.404H85.0529Z" fill="#303335"/>
<path d="M83.831 90.0773H85.114V89.8733H83.831V90.0773Z" fill="#E0E0D6"/>
<path d="M79.326 91.616H80.909V87.763C80.909 87.326 80.554 86.971 80.117 86.971C79.68 86.971 79.325 87.325 79.325 87.763L79.326 91.616Z" fill="#6A4022"/>
<path d="M77.742 91.616H79.326V87.763C79.326 87.326 78.971 86.971 78.534 86.971C78.097 86.971 77.742 87.325 77.742 87.763V91.616Z" fill="#6A4022"/>
<path d="M79.3261 91.6159H80.9091V87.7859H79.3261V91.6159Z" fill="#E0E0D6"/>
<path d="M80.6975 91.4044V87.9984H79.5385V91.4044H80.6975Z" fill="#303335"/>
<path d="M79.4761 90.0773H80.7591V89.8733H79.4761V90.0773Z" fill="#E0E0D6"/>
<path d="M77.742 91.6159H79.326V87.7859H77.742V91.6159Z" fill="#E0E0D6"/>
<path d="M79.114 91.4039V87.9979H77.955V91.4039H79.114Z" fill="#303335"/>
<path d="M77.892 90.0773H79.175V89.8733H77.892V90.0773Z" fill="#E0E0D6"/>
<path d="M73.387 91.616H74.971V87.763C74.971 87.326 74.616 86.971 74.179 86.971C73.742 86.971 73.387 87.325 73.387 87.763V91.616Z" fill="#6A4022"/>
<path d="M71.803 91.616H73.387V87.763C73.387 87.326 73.033 86.971 72.595 86.971C72.158 86.971 71.803 87.325 71.803 87.763V91.616Z" fill="#6A4022"/>
<path d="M73.3871 91.6159H74.9701V87.7859H73.3871V91.6159Z" fill="#E0E0D6"/>
<path d="M74.7585 91.4044V87.9984H73.5995V91.4044H74.7585Z" fill="#303335"/>
<path d="M73.5371 90.0773H74.8201V89.8733H73.5371V90.0773Z" fill="#E0E0D6"/>
<path d="M71.803 91.6159H73.387V87.7859H71.803V91.6159Z" fill="#E0E0D6"/>
<path d="M73.175 91.4039V87.9979H72.016V91.4039H73.175Z" fill="#303335"/>
<path d="M71.953 90.0773H73.236V89.8733H71.953V90.0773Z" fill="#E0E0D6"/>
<path d="M67.448 91.616H69.031V87.763C69.031 87.326 68.677 86.971 68.239 86.971C67.802 86.971 67.447 87.325 67.447 87.763V91.616H67.448Z" fill="#6A4022"/>
<path d="M65.864 91.616H67.448V87.763C67.448 87.326 67.094 86.971 66.656 86.971C66.219 86.971 65.864 87.325 65.864 87.763V91.616Z" fill="#6A4022"/>
<path d="M67.4481 91.6159H69.0311V87.7859H67.4481V91.6159Z" fill="#E0E0D6"/>
<path d="M68.8195 91.4044V87.9984H67.6605V91.4044H68.8195Z" fill="#303335"/>
<path d="M67.5981 90.0773H68.8811V89.8733H67.5981V90.0773Z" fill="#E0E0D6"/>
<path d="M65.864 91.6159H67.448V87.7859H65.864V91.6159Z" fill="#E0E0D6"/>
<path d="M67.236 91.4039V87.9979H66.077V91.4039H67.236Z" fill="#303335"/>
<path d="M66.014 90.0773H67.297V89.8733H66.014V90.0773Z" fill="#E0E0D6"/>
<path d="M89.564 98.091H92.843V94.379C92.843 93.75 92.333 93.241 91.705 93.241H90.702C90.073 93.241 89.564 93.751 89.564 94.379V98.091Z" fill="#6A4022"/>
<path d="M89.7935 97.8526H92.6145V94.4796H89.7935V97.8526Z" fill="#E0E0D6"/>
<path d="M92.402 97.6405V94.6915H90.006V97.6405H92.402Z" fill="#303335"/>
<path d="M91.4581 97.6405H91.6701V94.6915H91.4581V97.6405Z" fill="#E0E0D6"/>
<path d="M90.6027 97.6405H90.8147V94.6915H90.6027V97.6405Z" fill="#E0E0D6"/>
<path d="M90.0055 96.644H92.4015V96.414H90.0055V96.644Z" fill="#E0E0D6"/>
<path d="M83.625 98.091H86.904V94.379C86.904 93.75 86.394 93.241 85.766 93.241H84.763C84.134 93.241 83.625 93.751 83.625 94.379V98.091Z" fill="#6A4022"/>
<path d="M83.8546 97.8526H86.6756V94.4796H83.8546V97.8526Z" fill="#E0E0D6"/>
<path d="M86.463 97.6405V94.6915H84.067V97.6405H86.463Z" fill="#303335"/>
<path d="M85.5191 97.6405H85.7311V94.6915H85.5191V97.6405Z" fill="#E0E0D6"/>
<path d="M84.6637 97.6405H84.8757V94.6915H84.6637V97.6405Z" fill="#E0E0D6"/>
<path d="M84.0665 96.644H86.4625V96.414H84.0665V96.644Z" fill="#E0E0D6"/>
<path d="M77.686 98.091H80.965V94.379C80.965 93.75 80.455 93.241 79.827 93.241H78.824C78.195 93.241 77.686 93.751 77.686 94.379V98.091Z" fill="#6A4022"/>
<path d="M77.9156 97.8526H80.7366V94.4796H77.9156V97.8526Z" fill="#E0E0D6"/>
<path d="M80.524 97.6405V94.6915H78.128V97.6405H80.524Z" fill="#303335"/>
<path d="M79.5801 97.6405H79.7921V94.6915H79.5801V97.6405Z" fill="#E0E0D6"/>
<path d="M78.7247 97.6405H78.9367V94.6915H78.7247V97.6405Z" fill="#E0E0D6"/>
<path d="M78.1275 96.644H80.5235V96.414H78.1275V96.644Z" fill="#E0E0D6"/>
<path d="M71.747 98.091H75.026V94.379C75.026 93.75 74.516 93.241 73.888 93.241H72.885C72.256 93.241 71.747 93.751 71.747 94.379V98.091Z" fill="#6A4022"/>
<path d="M71.9756 97.8526H74.7966V94.4796H71.9756V97.8526Z" fill="#E0E0D6"/>
<path d="M74.585 97.6405V94.6915H72.189V97.6405H74.585Z" fill="#303335"/>
<path d="M73.6411 97.6405H73.8531V94.6915H73.6411V97.6405Z" fill="#E0E0D6"/>
<path d="M72.7857 97.6405H72.9977V94.6915H72.7857V97.6405Z" fill="#E0E0D6"/>
<path d="M72.1885 96.644H74.5845V96.414H72.1885V96.644Z" fill="#E0E0D6"/>
<path d="M53.617 86.421H55.198V84.218C55.198 83.782 54.844 83.428 54.408 83.428C53.972 83.428 53.618 83.782 53.618 84.218V86.421H53.617Z" fill="#010E11"/>
<path d="M65.808 98.091H69.087V94.379C69.087 93.75 68.577 93.241 67.949 93.241H66.946C66.317 93.241 65.808 93.751 65.808 94.379V98.091Z" fill="#6A4022"/>
<path d="M66.0366 97.8526H68.8576V94.4796H66.0366V97.8526Z" fill="#E0E0D6"/>
<path d="M68.646 97.6405V94.6915H66.25V97.6405H68.646Z" fill="#303335"/>
<path d="M67.7021 97.6405H67.9141V94.6915H67.7021V97.6405Z" fill="#E0E0D6"/>
<path d="M66.8467 97.6405H67.0587V94.6915H66.8467V97.6405Z" fill="#E0E0D6"/>
<path d="M66.2495 96.644H68.6455V96.414H66.2495V96.644Z" fill="#E0E0D6"/>
<path d="M60.2061 88.2107H61.2851V85.1497H60.2061V88.2107Z" fill="#303335"/>
<path d="M60.506 88.472H60.983C61.073 88.472 61.147 88.399 61.147 88.308C61.147 88.218 61.074 88.144 60.983 88.144H60.506C60.416 88.144 60.342 88.217 60.342 88.308C60.343 88.398 60.416 88.472 60.506 88.472Z" fill="#303335"/>
<path d="M60.628 89.033H60.862C60.952 89.033 61.026 88.96 61.026 88.869C61.026 88.779 60.953 88.705 60.862 88.705H60.628C60.538 88.705 60.464 88.778 60.464 88.869C60.464 88.96 60.538 89.033 60.628 89.033Z" fill="#303335"/>
<path d="M60.5581 88.7426H60.9321V88.3966H60.5581V88.7426Z" fill="#303335"/>
<path d="M55.8343 88.2108H56.2003V86.9278H55.8343V88.2108Z" fill="#010E11"/>
<path d="M88.562 63.918H54.834H21.107L17.568 60.414V56.911H54.834H92.1V60.414L88.562 63.918Z" fill="#865B3D"/>
<path d="M21.424 54.611H18.699V60.414H21.424V54.611Z" fill="#865B3D"/>
<path d="M21.142 54.983H18.983V55.337H21.142V54.983Z" fill="#010E11"/>
<path d="M21.424 55.673H18.699V55.868H21.424V55.673Z" fill="#FFCE74"/>
<path d="M21.61 53.479H18.514V54.611H21.61V53.479Z" fill="#865B3D"/>
<path d="M21.424 50.524H18.699V53.479H21.424V50.524Z" fill="#865B3D"/>
<path d="M20.062 51.232C19.676 51.232 19.363 51.545 19.363 51.931V53.479H20.761V51.931C20.761 51.544 20.448 51.232 20.062 51.232Z" fill="#010E11"/>
<path d="M18.714 50.524L20.062 43.146L21.41 50.524H18.714Z" fill="#ABAE81"/>
<path d="M20.063 43.518C20.2635 43.518 20.426 43.3555 20.426 43.155C20.426 42.9545 20.2635 42.792 20.063 42.792C19.8625 42.792 19.7 42.9545 19.7 43.155C19.7 43.3555 19.8625 43.518 20.063 43.518Z" fill="#FFCE74"/>
<path d="M91.119 54.611H88.394V60.414H91.119V54.611Z" fill="#865B3D"/>
<path d="M90.836 54.983H88.677V55.337H90.836V54.983Z" fill="#010E11"/>
<path d="M91.119 55.673H88.394V55.868H91.119V55.673Z" fill="#FFCE74"/>
<path d="M91.304 53.479H88.208V54.611H91.304V53.479Z" fill="#865B3D"/>
<path d="M91.119 50.524H88.394V53.479H91.119V50.524Z" fill="#865B3D"/>
<path d="M89.757 51.232C89.371 51.232 89.058 51.545 89.058 51.931V53.479H90.456V51.931C90.456 51.544 90.143 51.232 89.757 51.232Z" fill="#010E11"/>
<path d="M88.408 50.524L89.757 43.146L91.105 50.524H88.408Z" fill="#ABAE81"/>
<path d="M89.757 43.518C89.9575 43.518 90.12 43.3555 90.12 43.155C90.12 42.9545 89.9575 42.792 89.757 42.792C89.5565 42.792 89.394 42.9545 89.394 43.155C89.394 43.3555 89.5565 43.518 89.757 43.518Z" fill="#FFCE74"/>
<path d="M26.83 54.576H24.105V60.379H26.83V54.576Z" fill="#865B3D"/>
<path d="M26.548 54.947H24.389V55.301H26.548V54.947Z" fill="#010E11"/>
<path d="M26.83 55.637H24.105V55.832H26.83V55.637Z" fill="#FFCE74"/>
<path d="M27.016 54.027H23.92V54.575H27.016V54.027Z" fill="#303335"/>
<path d="M24.592 53.355H23.92V54.027H24.592V53.355Z" fill="#303335"/>
<path d="M27.016 53.355H26.344V54.027H27.016V53.355Z" fill="#303335"/>
<path d="M33.058 54.62H30.333V60.423H33.058V54.62Z" fill="#865B3D"/>
<path d="M32.776 54.991H30.617V55.345H32.776V54.991Z" fill="#010E11"/>
<path d="M33.058 55.682H30.333V55.877H33.058V55.682Z" fill="#FFCE74"/>
<path d="M33.244 54.071H30.148V54.62H33.244V54.071Z" fill="#303335"/>
<path d="M30.82 53.399H30.148V54.071H30.82V53.399Z" fill="#303335"/>
<path d="M33.244 53.399H32.572V54.071H33.244V53.399Z" fill="#303335"/>
<path d="M39.617 54.62H36.892V60.423H39.617V54.62Z" fill="#865B3D"/>
<path d="M39.333 54.991H37.175V55.345H39.333V54.991Z" fill="#010E11"/>
<path d="M39.617 55.682H36.892V55.877H39.617V55.682Z" fill="#FFCE74"/>
<path d="M39.802 54.071H36.706V54.62H39.802V54.071Z" fill="#303335"/>
<path d="M37.378 53.399H36.706V54.071H37.378V53.399Z" fill="#303335"/>
<path d="M39.802 53.399H39.13V54.071H39.802V53.399Z" fill="#303335"/>
<path d="M46.175 54.62H43.45V60.423H46.175V54.62Z" fill="#865B3D"/>
<path d="M45.891 54.991H43.733V55.345H45.891V54.991Z" fill="#010E11"/>
<path d="M46.175 55.682H43.45V55.877H46.175V55.682Z" fill="#FFCE74"/>
<path d="M46.36 54.071H43.264V54.62H46.36V54.071Z" fill="#303335"/>
<path d="M43.936 53.399H43.264V54.071H43.936V53.399Z" fill="#303335"/>
<path d="M46.36 53.399H45.688V54.071H46.36V53.399Z" fill="#303335"/>
<path d="M52.733 54.62H50.008V60.423H52.733V54.62Z" fill="#865B3D"/>
<path d="M52.45 54.991H50.291V55.345H52.45V54.991Z" fill="#010E11"/>
<path d="M52.733 55.682H50.008V55.877H52.733V55.682Z" fill="#FFCE74"/>
<path d="M52.918 54.071H49.822V54.62H52.918V54.071Z" fill="#303335"/>
<path d="M50.494 53.399H49.822V54.071H50.494V53.399Z" fill="#303335"/>
<path d="M52.918 53.399H52.246V54.071H52.918V53.399Z" fill="#303335"/>
<path d="M59.292 54.62H56.567V60.423H59.292V54.62Z" fill="#865B3D"/>
<path d="M59.008 54.991H56.85V55.345H59.008V54.991Z" fill="#010E11"/>
<path d="M59.292 55.682H56.567V55.877H59.292V55.682Z" fill="#FFCE74"/>
<path d="M59.477 54.071H56.381V54.62H59.477V54.071Z" fill="#303335"/>
<path d="M57.053 53.399H56.381V54.071H57.053V53.399Z" fill="#303335"/>
<path d="M59.477 53.399H58.805V54.071H59.477V53.399Z" fill="#303335"/>
<path d="M65.85 54.62H63.125V60.423H65.85V54.62Z" fill="#865B3D"/>
<path d="M65.567 54.991H63.408V55.345H65.567V54.991Z" fill="#010E11"/>
<path d="M65.85 55.682H63.125V55.877H65.85V55.682Z" fill="#FFCE74"/>
<path d="M66.035 54.071H62.939V54.62H66.035V54.071Z" fill="#303335"/>
<path d="M63.611 53.399H62.939V54.071H63.611V53.399Z" fill="#303335"/>
<path d="M66.035 53.399H65.363V54.071H66.035V53.399Z" fill="#303335"/>
<path d="M72.408 54.62H69.683V60.423H72.408V54.62Z" fill="#865B3D"/>
<path d="M72.125 54.991H69.966V55.345H72.125V54.991Z" fill="#010E11"/>
<path d="M72.408 55.682H69.683V55.877H72.408V55.682Z" fill="#FFCE74"/>
<path d="M72.593 54.071H69.497V54.62H72.593V54.071Z" fill="#303335"/>
<path d="M70.169 53.399H69.497V54.071H70.169V53.399Z" fill="#303335"/>
<path d="M72.593 53.399H71.921V54.071H72.593V53.399Z" fill="#303335"/>
<path d="M78.966 54.62H76.241V60.423H78.966V54.62Z" fill="#865B3D"/>
<path d="M78.684 54.991H76.525V55.345H78.684V54.991Z" fill="#010E11"/>
<path d="M78.966 55.682H76.241V55.877H78.966V55.682Z" fill="#FFCE74"/>
<path d="M79.152 54.071H76.056V54.62H79.152V54.071Z" fill="#303335"/>
<path d="M76.728 53.399H76.056V54.071H76.728V53.399Z" fill="#303335"/>
<path d="M79.152 53.399H78.48V54.071H79.152V53.399Z" fill="#303335"/>
<path d="M85.525 54.62H82.8V60.423H85.525V54.62Z" fill="#865B3D"/>
<path d="M85.242 54.991H83.083V55.345H85.242V54.991Z" fill="#010E11"/>
<path d="M85.525 55.682H82.8V55.877H85.525V55.682Z" fill="#FFCE74"/>
<path d="M85.71 54.071H82.614V54.62H85.71V54.071Z" fill="#303335"/>
<path d="M83.286 53.399H82.614V54.071H83.286V53.399Z" fill="#303335"/>
<path d="M85.71 53.399H85.038V54.071H85.71V53.399Z" fill="#303335"/>
<path d="M20.463 63.281L21.107 63.918H54.834H88.562L89.205 63.281H20.463Z" fill="#ABAE81"/>
<path d="M90.623 61.877H19.045L19.498 62.325H90.17L90.623 61.877Z" fill="#FFCE74"/>
<path d="M56.567 59.37C56.563 59.37 56.559 59.371 56.554 59.371C56.487 58.775 56.147 58.263 55.662 57.961C55.688 57.869 55.703 57.772 55.703 57.672C55.703 57.091 55.232 56.619 54.65 56.619C54.069 56.619 53.597 57.09 53.597 57.672C53.597 57.772 53.612 57.869 53.638 57.961C53.153 58.263 52.813 58.775 52.746 59.371H52.742C52.161 59.371 51.689 59.842 51.689 60.424C51.689 61.002 52.156 61.472 52.733 61.476V63.352H56.566V61.477C57.147 61.477 57.619 61.006 57.619 60.424C57.619 59.842 57.148 59.37 56.567 59.37Z" fill="#FFCE74"/>
<path d="M28.558 59.674C29.0854 59.674 29.513 59.2464 29.513 58.719C29.513 58.1916 29.0854 57.764 28.558 57.764C28.0306 57.764 27.603 58.1916 27.603 58.719C27.603 59.2464 28.0306 59.674 28.558 59.674Z" fill="#FFCE74"/>
<path d="M41.606 59.674C42.1334 59.674 42.561 59.2464 42.561 58.719C42.561 58.1916 42.1334 57.764 41.606 57.764C41.0786 57.764 40.651 58.1916 40.651 58.719C40.651 59.2464 41.0786 59.674 41.606 59.674Z" fill="#FFCE74"/>
<path d="M68.727 58.719C68.727 59.247 68.299 59.674 67.772 59.674C67.244 59.674 66.816 59.246 66.816 58.719C66.816 58.191 67.244 57.764 67.772 57.764C68.299 57.763 68.727 58.191 68.727 58.719Z" fill="#FFCE74"/>
<path d="M81.845 58.719C81.845 59.247 81.417 59.674 80.89 59.674C80.362 59.674 79.934 59.246 79.934 58.719C79.934 58.191 80.362 57.764 80.89 57.764C81.417 57.763 81.845 58.191 81.845 58.719Z" fill="#FFCE74"/>
<path d="M23.232 58.008H22.538V63.918H23.232V58.008Z" fill="#ABAE81"/>
<path d="M35.306 58.008H34.612V63.918H35.306V58.008Z" fill="#ABAE81"/>
<path d="M48.362 58.008H47.669V63.918H48.362V58.008Z" fill="#ABAE81"/>
<path d="M61.632 58.008H60.939V63.918H61.632V58.008Z" fill="#ABAE81"/>
<path d="M74.76 58.008H74.067V63.918H74.76V58.008Z" fill="#ABAE81"/>
<path d="M87.535 58.008H86.842V63.918H87.535V58.008Z" fill="#ABAE81"/>
<path d="M57.776 85.433H50.97V86.433H57.776V85.433Z" fill="#303335"/>
</svg>
