<svg width="143" height="70" viewBox="0 0 143 70" fill="none" xmlns="http://www.w3.org/2000/svg">
<path d="M105.835 7.349H37.992L10.079 19.522H133.748L105.835 7.349Z" fill="#010E11"/>
<path d="M105.835 7.349H37.992L10.079 19.522L38.987 9.26099L105.835 7.349Z" fill="#303335"/>
<path d="M141.497 24.019H2.241V69.843H141.497V24.019Z" fill="#BC9875"/>
<path d="M141.313 24.698L2.241 29.583V24.019H141.313V24.698Z" fill="#CCC1B9"/>
<path d="M142.524 48.385H1.213V49.315H142.524V48.385Z" fill="#865B3D"/>
<path d="M141.502 22.934H2.23599V24.02H141.502V22.934Z" fill="#D1B088"/>
<path d="M142.2 21.848H1.53799L2.23599 22.934H141.502L142.2 21.848Z" fill="#865B3D"/>
<path d="M142.2 20.763H1.53799V21.849H142.2V20.763Z" fill="#BC9875"/>
<path d="M142.898 19.677H0.839996L1.538 20.763H142.2L142.898 19.677Z" fill="#865B3D"/>
<path d="M26.987 50.741H2.241V51.032H26.987V50.741Z" fill="#B1875E"/>
<path d="M26.987 52.02H2.241V52.311H26.987V52.02Z" fill="#B1875E"/>
<path d="M26.987 53.299H2.241V53.59H26.987V53.299Z" fill="#B1875E"/>
<path d="M26.987 54.579H2.241V54.87H26.987V54.579Z" fill="#B1875E"/>
<path d="M26.987 55.858H2.241V56.149H26.987V55.858Z" fill="#B1875E"/>
<path d="M26.987 57.137H2.241V57.428H26.987V57.137Z" fill="#B1875E"/>
<path d="M26.987 58.417H2.241V58.708H26.987V58.417Z" fill="#B1875E"/>
<path d="M26.987 59.696H2.241V59.987H26.987V59.696Z" fill="#B1875E"/>
<path d="M26.987 60.975H2.241V61.266H26.987V60.975Z" fill="#B1875E"/>
<path d="M26.987 62.255H2.241V62.546H26.987V62.255Z" fill="#B1875E"/>
<path d="M11.579 51.254V50.188H7.12499V51.254H6.05899V69.844H12.645V51.254H11.579Z" fill="#865B3D"/>
<path d="M12.095 52.398H6.60899V60.966H12.095V52.398Z" fill="#E0E0D6"/>
<path d="M11.6297 60.4998L11.6297 52.8628H7.07468L7.07468 60.4998H11.6297Z" fill="#303335"/>
<path d="M9.59299 52.398H9.06999V60.966H9.59299V52.398Z" fill="#E0E0D6"/>
<path d="M11.81 56.376H6.853V56.987H11.81V56.376Z" fill="#E0E0D6"/>
<path d="M8.14698 52.575H7.92899V60.789H8.14698V52.575Z" fill="#E0E0D6"/>
<path d="M10.764 52.601H10.546V60.815H10.764V52.601Z" fill="#E0E0D6"/>
<path d="M11.859 53.949H6.853V54.124H11.859V53.949Z" fill="#E0E0D6"/>
<path d="M11.859 55.092H6.853V55.266H11.859V55.092Z" fill="#E0E0D6"/>
<path d="M11.859 58.048H6.853V58.222H11.859V58.048Z" fill="#E0E0D6"/>
<path d="M11.859 59.192H6.853V59.367H11.859V59.192Z" fill="#E0E0D6"/>
<path d="M12.989 60.966H5.705V61.804H12.989V60.966Z" fill="#303335"/>
<path d="M12.044 64.944H6.631V68.012H12.044V64.944Z" fill="#E0E0D6"/>
<path d="M11.5789 67.5464V65.4094H7.09589V67.5464H11.5789Z" fill="#303335"/>
<path d="M9.56399 65.133H9.13899V67.876H9.56399V65.133Z" fill="#E0E0D6"/>
<path d="M11.84 66.381H6.88699V66.575H11.84V66.381Z" fill="#E0E0D6"/>
<path d="M22.026 51.254V50.188H17.573V51.254H16.507V69.844H23.092V51.254H22.026Z" fill="#865B3D"/>
<path d="M22.543 52.398H17.057V60.966H22.543V52.398Z" fill="#E0E0D6"/>
<path d="M22.0774 60.5001V52.8631H17.5224V60.5001H22.0774Z" fill="#303335"/>
<path d="M20.041 52.398H19.518V60.966H20.041V52.398Z" fill="#E0E0D6"/>
<path d="M22.258 56.376H17.301V56.987H22.258V56.376Z" fill="#E0E0D6"/>
<path d="M18.595 52.575H18.377V60.789H18.595V52.575Z" fill="#E0E0D6"/>
<path d="M21.212 52.601H20.994V60.815H21.212V52.601Z" fill="#E0E0D6"/>
<path d="M22.307 53.949H17.301V54.124H22.307V53.949Z" fill="#E0E0D6"/>
<path d="M22.307 55.092H17.301V55.266H22.307V55.092Z" fill="#E0E0D6"/>
<path d="M22.307 58.048H17.301V58.222H22.307V58.048Z" fill="#E0E0D6"/>
<path d="M22.307 59.192H17.301V59.367H22.307V59.192Z" fill="#E0E0D6"/>
<path d="M12.164 35.495H6.67799V45.226H12.164V35.495Z" fill="#E0E0D6"/>
<path d="M11.6986 44.7598L11.6986 35.9598H7.1436L7.1436 44.7598H11.6986Z" fill="#303335"/>
<path d="M9.66199 35.495H9.13899V45.226H9.66199V35.495Z" fill="#E0E0D6"/>
<path d="M11.88 39.473H6.922V40.084H11.88V39.473Z" fill="#E0E0D6"/>
<path d="M8.21598 35.672H7.99799V45.049H8.21598V35.672Z" fill="#E0E0D6"/>
<path d="M10.832 35.698H10.614V45.075H10.832V35.698Z" fill="#E0E0D6"/>
<path d="M11.928 37.046H6.922V37.221H11.928V37.046Z" fill="#E0E0D6"/>
<path d="M11.928 38.189H6.922V38.364H11.928V38.189Z" fill="#E0E0D6"/>
<path d="M11.928 41.145H6.922V41.32H11.928V41.145Z" fill="#E0E0D6"/>
<path d="M11.928 42.289H6.922V42.463H11.928V42.289Z" fill="#E0E0D6"/>
<path d="M11.901 43.513H6.89499V43.688H11.901V43.513Z" fill="#E0E0D6"/>
<path d="M22.578 35.495H17.092V45.226H22.578V35.495Z" fill="#E0E0D6"/>
<path d="M22.1135 44.7599V35.9599H17.5585V44.7599H22.1135Z" fill="#303335"/>
<path d="M20.077 35.495H19.554V45.226H20.077V35.495Z" fill="#E0E0D6"/>
<path d="M22.294 39.473H17.337V40.084H22.294V39.473Z" fill="#E0E0D6"/>
<path d="M18.63 35.672H18.412V45.049H18.63V35.672Z" fill="#E0E0D6"/>
<path d="M21.247 35.698H21.029V45.075H21.247V35.698Z" fill="#E0E0D6"/>
<path d="M22.343 37.046H17.337V37.221H22.343V37.046Z" fill="#E0E0D6"/>
<path d="M22.343 38.189H17.337V38.364H22.343V38.189Z" fill="#E0E0D6"/>
<path d="M22.343 41.145H17.337V41.32H22.343V41.145Z" fill="#E0E0D6"/>
<path d="M22.343 42.289H17.337V42.463H22.343V42.289Z" fill="#E0E0D6"/>
<path d="M22.319 43.513H17.313V43.688H22.319V43.513Z" fill="#E0E0D6"/>
<path d="M12.164 25.279H6.67799V29.66H12.164V25.279Z" fill="#E0E0D6"/>
<path d="M11.6986 29.1937V25.7437H7.14359L7.14359 29.1937H11.6986Z" fill="#303335"/>
<path d="M9.66199 25.279H9.13899V29.66H9.66199V25.279Z" fill="#E0E0D6"/>
<path d="M8.21598 25.456H7.99799V29.483H8.21598V25.456Z" fill="#E0E0D6"/>
<path d="M10.832 25.482H10.614V29.509H10.832V25.482Z" fill="#E0E0D6"/>
<path d="M11.928 26.829H6.922V27.004H11.928V26.829Z" fill="#E0E0D6"/>
<path d="M11.928 27.973H6.922V28.147H11.928V27.973Z" fill="#E0E0D6"/>
<path d="M22.578 25.279H17.092V29.66H22.578V25.279Z" fill="#E0E0D6"/>
<path d="M22.1134 29.1939V25.7439H17.5584V29.1939H22.1134Z" fill="#303335"/>
<path d="M20.077 25.279H19.554V29.66H20.077V25.279Z" fill="#E0E0D6"/>
<path d="M18.63 25.456H18.412V29.483H18.63V25.456Z" fill="#E0E0D6"/>
<path d="M21.247 25.482H21.029V29.509H21.247V25.482Z" fill="#E0E0D6"/>
<path d="M22.343 26.829H17.337V27.004H22.343V26.829Z" fill="#E0E0D6"/>
<path d="M22.343 27.973H17.337V28.147H22.343V27.973Z" fill="#E0E0D6"/>
<path d="M23.437 60.966H16.153V61.804H23.437V60.966Z" fill="#303335"/>
<path d="M22.492 64.944H17.079V68.012H22.492V64.944Z" fill="#E0E0D6"/>
<path d="M22.0265 67.5467V65.4097H17.5435V67.5467H22.0265Z" fill="#303335"/>
<path d="M20.012 65.133H19.587V67.876H20.012V65.133Z" fill="#E0E0D6"/>
<path d="M22.288 66.381H17.335V66.575H22.288V66.381Z" fill="#E0E0D6"/>
<path d="M12.164 30.843H6.67799V34.08H12.164V30.843Z" fill="#B1875E"/>
<path d="M22.578 30.843H17.092V34.08H22.578V30.843Z" fill="#B1875E"/>
<path d="M12.149 46.311H6.66299V47.852H12.149V46.311Z" fill="#B1875E"/>
<path d="M22.564 46.311H17.078V47.852H22.564V46.311Z" fill="#B1875E"/>
<path d="M34.831 51.254V50.188H30.378V51.254H29.312V69.844H35.897V51.254H34.831Z" fill="#865B3D"/>
<path d="M35.348 52.398H29.862V60.966H35.348V52.398Z" fill="#E0E0D6"/>
<path d="M34.8823 60.5002V52.8632H30.3273V60.5002H34.8823Z" fill="#303335"/>
<path d="M32.846 52.398H32.323V60.966H32.846V52.398Z" fill="#E0E0D6"/>
<path d="M35.063 56.376H30.106V56.987H35.063V56.376Z" fill="#E0E0D6"/>
<path d="M31.4 52.575H31.182V60.789H31.4V52.575Z" fill="#E0E0D6"/>
<path d="M34.017 52.601H33.799V60.815H34.017V52.601Z" fill="#E0E0D6"/>
<path d="M35.112 53.949H30.106V54.124H35.112V53.949Z" fill="#E0E0D6"/>
<path d="M35.112 55.092H30.106V55.266H35.112V55.092Z" fill="#E0E0D6"/>
<path d="M35.112 58.048H30.106V58.222H35.112V58.048Z" fill="#E0E0D6"/>
<path d="M35.112 59.192H30.106V59.367H35.112V59.192Z" fill="#E0E0D6"/>
<path d="M36.241 60.966H28.957V61.804H36.241V60.966Z" fill="#303335"/>
<path d="M35.297 64.944H29.884V68.012H35.297V64.944Z" fill="#E0E0D6"/>
<path d="M34.8314 67.5468V65.4098H30.3484V67.5468H34.8314Z" fill="#303335"/>
<path d="M32.817 65.133H32.392V67.876H32.817V65.133Z" fill="#E0E0D6"/>
<path d="M35.093 66.381H30.14V66.575H35.093V66.381Z" fill="#E0E0D6"/>
<path d="M45.279 51.254V50.188H40.825V51.254H39.759V69.844H46.345V51.254H45.279Z" fill="#865B3D"/>
<path d="M45.795 52.398H40.309V60.966H45.795V52.398Z" fill="#E0E0D6"/>
<path d="M45.3299 60.4996V52.8626H40.7749V60.4996H45.3299Z" fill="#303335"/>
<path d="M43.294 52.398H42.771V60.966H43.294V52.398Z" fill="#E0E0D6"/>
<path d="M45.511 56.376H40.553V56.987H45.511V56.376Z" fill="#E0E0D6"/>
<path d="M41.847 52.575H41.629V60.789H41.847V52.575Z" fill="#E0E0D6"/>
<path d="M44.464 52.601H44.246V60.815H44.464V52.601Z" fill="#E0E0D6"/>
<path d="M45.559 53.949H40.553V54.124H45.559V53.949Z" fill="#E0E0D6"/>
<path d="M45.559 55.092H40.553V55.266H45.559V55.092Z" fill="#E0E0D6"/>
<path d="M45.559 58.048H40.553V58.222H45.559V58.048Z" fill="#E0E0D6"/>
<path d="M45.559 59.192H40.553V59.367H45.559V59.192Z" fill="#E0E0D6"/>
<path d="M35.416 35.495H29.93V45.226H35.416V35.495Z" fill="#E0E0D6"/>
<path d="M34.9501 44.7603V35.9603H30.3951V44.7603H34.9501Z" fill="#303335"/>
<path d="M32.914 35.495H32.391V45.226H32.914V35.495Z" fill="#E0E0D6"/>
<path d="M35.131 39.473H30.174V40.084H35.131V39.473Z" fill="#E0E0D6"/>
<path d="M31.468 35.672H31.25V45.049H31.468V35.672Z" fill="#E0E0D6"/>
<path d="M34.085 35.698H33.867V45.075H34.085V35.698Z" fill="#E0E0D6"/>
<path d="M35.18 37.046H30.174V37.221H35.18V37.046Z" fill="#E0E0D6"/>
<path d="M35.18 38.189H30.174V38.364H35.18V38.189Z" fill="#E0E0D6"/>
<path d="M35.18 41.145H30.174V41.32H35.18V41.145Z" fill="#E0E0D6"/>
<path d="M35.18 42.289H30.174V42.463H35.18V42.289Z" fill="#E0E0D6"/>
<path d="M35.154 43.513H30.148V43.688H35.154V43.513Z" fill="#E0E0D6"/>
<path d="M45.831 35.495H40.345V45.226H45.831V35.495Z" fill="#E0E0D6"/>
<path d="M45.3651 44.7603V35.9603H40.8101V44.7603H45.3651Z" fill="#303335"/>
<path d="M43.329 35.495H42.806V45.226H43.329V35.495Z" fill="#E0E0D6"/>
<path d="M45.547 39.473H40.589V40.084H45.547V39.473Z" fill="#E0E0D6"/>
<path d="M41.883 35.672H41.665V45.049H41.883V35.672Z" fill="#E0E0D6"/>
<path d="M44.5 35.698H44.282V45.075H44.5V35.698Z" fill="#E0E0D6"/>
<path d="M45.595 37.046H40.589V37.221H45.595V37.046Z" fill="#E0E0D6"/>
<path d="M45.595 38.189H40.589V38.364H45.595V38.189Z" fill="#E0E0D6"/>
<path d="M45.595 41.145H40.589V41.32H45.595V41.145Z" fill="#E0E0D6"/>
<path d="M45.595 42.289H40.589V42.463H45.595V42.289Z" fill="#E0E0D6"/>
<path d="M45.571 43.513H40.565V43.688H45.571V43.513Z" fill="#E0E0D6"/>
<path d="M35.416 25.279H29.93V29.66H35.416V25.279Z" fill="#E0E0D6"/>
<path d="M34.9511 29.1942V25.7442H30.3961V29.1942H34.9511Z" fill="#303335"/>
<path d="M32.914 25.279H32.391V29.66H32.914V25.279Z" fill="#E0E0D6"/>
<path d="M31.468 25.456H31.25V29.483H31.468V25.456Z" fill="#E0E0D6"/>
<path d="M34.085 25.482H33.867V29.509H34.085V25.482Z" fill="#E0E0D6"/>
<path d="M35.18 26.829H30.174V27.004H35.18V26.829Z" fill="#E0E0D6"/>
<path d="M35.18 27.973H30.174V28.147H35.18V27.973Z" fill="#E0E0D6"/>
<path d="M45.831 25.279H40.345V29.66H45.831V25.279Z" fill="#E0E0D6"/>
<path d="M45.366 29.1943V25.7443H40.811V29.1943H45.366Z" fill="#303335"/>
<path d="M43.329 25.279H42.806V29.66H43.329V25.279Z" fill="#E0E0D6"/>
<path d="M41.883 25.456H41.665V29.483H41.883V25.456Z" fill="#E0E0D6"/>
<path d="M44.5 25.482H44.282V29.509H44.5V25.482Z" fill="#E0E0D6"/>
<path d="M45.595 26.829H40.589V27.004H45.595V26.829Z" fill="#E0E0D6"/>
<path d="M45.595 27.973H40.589V28.147H45.595V27.973Z" fill="#E0E0D6"/>
<path d="M46.689 60.966H39.405V61.804H46.689V60.966Z" fill="#303335"/>
<path d="M45.744 64.944H40.331V68.012H45.744V64.944Z" fill="#E0E0D6"/>
<path d="M45.279 67.5462V65.4092H40.796V67.5462H45.279Z" fill="#303335"/>
<path d="M43.265 65.133H42.84V67.876H43.265V65.133Z" fill="#E0E0D6"/>
<path d="M45.541 66.381H40.588V66.575H45.541V66.381Z" fill="#E0E0D6"/>
<path d="M35.416 30.843H29.93V34.08H35.416V30.843Z" fill="#B1875E"/>
<path d="M45.831 30.843H40.345V34.08H45.831V30.843Z" fill="#B1875E"/>
<path d="M35.402 46.311H29.916V47.852H35.402V46.311Z" fill="#B1875E"/>
<path d="M45.816 46.311H40.33V47.852H45.816V46.311Z" fill="#B1875E"/>
<path d="M38.987 24.007H36.661V48.375H38.987V24.007Z" fill="#D1B088"/>
<path d="M40.771 6.19501H38.038V8.72501H40.771V6.19501Z" fill="#BC9875"/>
<path d="M40.436 2.26999H38.372V6.19501H40.436V2.26999Z" fill="#BC9875"/>
<path d="M40.844 1.689H37.965V2.26999H40.844V1.689Z" fill="#303335"/>
<path d="M40.436 2.85199H38.372V3.375H40.436V2.85199Z" fill="#865B3D"/>
<path d="M54.717 6.19501H51.984V8.72501H54.717V6.19501Z" fill="#BC9875"/>
<path d="M54.382 2.26999H52.318V6.19501H54.382V2.26999Z" fill="#BC9875"/>
<path d="M54.79 1.689H51.911V2.26999H54.79V1.689Z" fill="#303335"/>
<path d="M54.382 2.85199H52.318V3.375H54.382V2.85199Z" fill="#865B3D"/>
<path d="M91.675 6.19501H88.942V8.72501H91.675V6.19501Z" fill="#BC9875"/>
<path d="M91.34 2.26999H89.276V6.19501H91.34V2.26999Z" fill="#BC9875"/>
<path d="M91.748 1.689H88.869V2.26999H91.748V1.689Z" fill="#303335"/>
<path d="M91.34 2.85199H89.276V3.375H91.34V2.85199Z" fill="#865B3D"/>
<path d="M105.621 6.19501H102.888V8.72501H105.621V6.19501Z" fill="#BC9875"/>
<path d="M105.286 2.26999H103.222V6.19501H105.286V2.26999Z" fill="#BC9875"/>
<path d="M105.693 1.689H102.815V2.26999H105.693V1.689Z" fill="#303335"/>
<path d="M105.286 2.85199H103.222V3.375H105.286V2.85199Z" fill="#865B3D"/>
<path d="M58.869 29.268H53.168C52.714 29.268 52.345 29.636 52.345 30.091V34.02H59.692V30.091C59.692 29.636 59.323 29.268 58.869 29.268Z" fill="#303335"/>
<path d="M58.215 28.192H53.822C53.52 28.192 53.276 28.437 53.276 28.739V29.268H58.762V28.739C58.761 28.436 58.517 28.192 58.215 28.192Z" fill="#303335"/>
<path d="M56.522 27.334H55.562C55.088 27.334 54.704 27.718 54.704 28.192H57.379C57.38 27.718 56.996 27.334 56.522 27.334Z" fill="#303335"/>
<path d="M52.345 46.077V33.952C52.345 31.927 53.993 30.279 56.018 30.279C58.043 30.279 59.691 31.927 59.691 33.952V46.077H52.345Z" fill="#865B3D"/>
<path d="M58.762 34.252H53.276V45.146H58.762V34.252Z" fill="#E0E0D6"/>
<path d="M58.2967 44.6805V34.7175H53.7417V44.6805H58.2967Z" fill="#303335"/>
<path d="M56.26 34.252H55.737V45.146H56.26V34.252Z" fill="#E0E0D6"/>
<path d="M58.478 39.394H53.52V40.005H58.478V39.394Z" fill="#E0E0D6"/>
<path d="M54.814 34.429H54.596V44.969H54.814V34.429Z" fill="#E0E0D6"/>
<path d="M57.38 34.456H57.162V44.996H57.38V34.456Z" fill="#E0E0D6"/>
<path d="M58.526 36.966H53.52V37.14H58.526V36.966Z" fill="#E0E0D6"/>
<path d="M58.526 35.788H53.52V35.963H58.526V35.788Z" fill="#E0E0D6"/>
<path d="M58.526 38.11H53.52V38.284H58.526V38.11Z" fill="#E0E0D6"/>
<path d="M58.526 41.066H53.52V41.24H58.526V41.066Z" fill="#E0E0D6"/>
<path d="M58.526 42.209H53.52V42.384H58.526V42.209Z" fill="#E0E0D6"/>
<path d="M58.502 43.433H53.496V43.607H58.502V43.433Z" fill="#E0E0D6"/>
<path d="M56.019 31.209C54.504 31.209 53.276 32.437 53.276 33.952V34.252H58.762V33.952C58.761 32.437 57.533 31.209 56.019 31.209Z" fill="#E0E0D6"/>
<path d="M53.747 33.787C53.832 32.608 54.818 31.674 56.019 31.674C57.219 31.674 58.206 32.607 58.291 33.787H53.747Z" fill="#303335"/>
<path d="M56.021 33.99L54.61 32.018L54.8 31.883L56.016 33.584L57.175 31.885L57.367 32.016L56.021 33.99Z" fill="#E0E0D6"/>
<path d="M57.387 34.02H57.155V33.917C57.155 33.273 56.632 32.75 55.988 32.75C55.345 32.75 54.821 33.273 54.821 33.917V34.02H54.589V33.917C54.589 33.146 55.216 32.518 55.988 32.518C56.76 32.518 57.387 33.146 57.387 33.917V34.02Z" fill="#E0E0D6"/>
<path d="M74.987 29.268H69.286C68.832 29.268 68.463 29.636 68.463 30.091V34.02H75.81V30.091C75.809 29.636 75.441 29.268 74.987 29.268Z" fill="#303335"/>
<path d="M74.332 28.192H69.94C69.638 28.192 69.393 28.437 69.393 28.739V29.268H74.879V28.739C74.879 28.436 74.634 28.192 74.332 28.192Z" fill="#303335"/>
<path d="M72.64 27.334H71.68C71.206 27.334 70.822 27.718 70.822 28.192H73.497C73.497 27.718 73.113 27.334 72.64 27.334Z" fill="#303335"/>
<path d="M68.463 46.077V33.952C68.463 31.927 70.111 30.279 72.136 30.279C74.162 30.279 75.809 31.927 75.809 33.952V46.077H68.463Z" fill="#865B3D"/>
<path d="M74.879 34.252H69.393V45.146H74.879V34.252Z" fill="#E0E0D6"/>
<path d="M74.4141 44.6801V34.7171H69.8591V44.6801H74.4141Z" fill="#303335"/>
<path d="M72.378 34.252H71.855V45.146H72.378V34.252Z" fill="#E0E0D6"/>
<path d="M74.595 39.394H69.637V40.005H74.595V39.394Z" fill="#E0E0D6"/>
<path d="M70.931 34.429H70.713V44.969H70.931V34.429Z" fill="#E0E0D6"/>
<path d="M73.497 34.456H73.279V44.996H73.497V34.456Z" fill="#E0E0D6"/>
<path d="M74.643 36.966H69.637V37.14H74.643V36.966Z" fill="#E0E0D6"/>
<path d="M74.643 35.788H69.637V35.963H74.643V35.788Z" fill="#E0E0D6"/>
<path d="M74.643 38.11H69.637V38.284H74.643V38.11Z" fill="#E0E0D6"/>
<path d="M74.643 41.066H69.637V41.24H74.643V41.066Z" fill="#E0E0D6"/>
<path d="M74.643 42.209H69.637V42.384H74.643V42.209Z" fill="#E0E0D6"/>
<path d="M74.619 43.433H69.613V43.607H74.619V43.433Z" fill="#E0E0D6"/>
<path d="M72.136 31.209C70.621 31.209 69.393 32.437 69.393 33.952V34.252H74.879V33.952C74.879 32.437 73.651 31.209 72.136 31.209Z" fill="#E0E0D6"/>
<path d="M69.864 33.787C69.949 32.608 70.935 31.674 72.136 31.674C73.336 31.674 74.323 32.607 74.408 33.787H69.864Z" fill="#303335"/>
<path d="M72.139 33.99L70.728 32.018L70.917 31.883L72.134 33.584L73.292 31.885L73.484 32.016L72.139 33.99Z" fill="#E0E0D6"/>
<path d="M73.504 34.02H73.272V33.917C73.272 33.273 72.749 32.75 72.105 32.75C71.461 32.75 70.938 33.273 70.938 33.917V34.02H70.706V33.917C70.706 33.146 71.334 32.518 72.105 32.518C72.876 32.518 73.504 33.146 73.504 33.917V34.02Z" fill="#E0E0D6"/>
<path d="M91.104 29.268H85.403C84.949 29.268 84.58 29.636 84.58 30.091V34.02H91.926V30.091C91.927 29.636 91.558 29.268 91.104 29.268Z" fill="#303335"/>
<path d="M90.45 28.192H86.057C85.755 28.192 85.51 28.437 85.51 28.739V29.268H90.996V28.739C90.996 28.436 90.752 28.192 90.45 28.192Z" fill="#303335"/>
<path d="M88.757 27.334H87.797C87.323 27.334 86.939 27.718 86.939 28.192H89.614C89.615 27.718 89.231 27.334 88.757 27.334Z" fill="#303335"/>
<path d="M84.58 46.077V33.952C84.58 31.927 86.228 30.279 88.253 30.279C90.278 30.279 91.926 31.927 91.926 33.952V46.077H84.58Z" fill="#865B3D"/>
<path d="M90.997 34.252H85.511V45.146H90.997V34.252Z" fill="#E0E0D6"/>
<path d="M90.5316 44.6806V34.7176H85.9766V44.6806H90.5316Z" fill="#303335"/>
<path d="M88.495 34.252H87.972V45.146H88.495V34.252Z" fill="#E0E0D6"/>
<path d="M90.712 39.394H85.755V40.005H90.712V39.394Z" fill="#E0E0D6"/>
<path d="M87.049 34.429H86.831V44.969H87.049V34.429Z" fill="#E0E0D6"/>
<path d="M89.615 34.456H89.397V44.996H89.615V34.456Z" fill="#E0E0D6"/>
<path d="M90.761 36.966H85.755V37.14H90.761V36.966Z" fill="#E0E0D6"/>
<path d="M90.761 35.788H85.755V35.963H90.761V35.788Z" fill="#E0E0D6"/>
<path d="M90.761 38.11H85.755V38.284H90.761V38.11Z" fill="#E0E0D6"/>
<path d="M90.761 41.066H85.755V41.24H90.761V41.066Z" fill="#E0E0D6"/>
<path d="M90.761 42.209H85.755V42.384H90.761V42.209Z" fill="#E0E0D6"/>
<path d="M90.737 43.433H85.731V43.607H90.737V43.433Z" fill="#E0E0D6"/>
<path d="M88.254 31.209C86.739 31.209 85.511 32.437 85.511 33.952V34.252H90.997V33.952C90.996 32.437 89.768 31.209 88.254 31.209Z" fill="#E0E0D6"/>
<path d="M85.982 33.787C86.067 32.608 87.053 31.674 88.254 31.674C89.455 31.674 90.441 32.607 90.526 33.787H85.982Z" fill="#303335"/>
<path d="M88.256 33.99L86.845 32.018L87.035 31.883L88.251 33.584L89.41 31.885L89.602 32.016L88.256 33.99Z" fill="#E0E0D6"/>
<path d="M89.622 34.02H89.39V33.917C89.39 33.273 88.867 32.75 88.223 32.75C87.58 32.75 87.056 33.273 87.056 33.917V34.02H86.824V33.917C86.824 33.146 87.452 32.518 88.223 32.518C88.994 32.518 89.622 33.146 89.622 33.917V34.02Z" fill="#E0E0D6"/>
<path d="M47.804 18.592H3.707V19.678H47.804V18.592Z" fill="#303335"/>
<path d="M49.762 15.413H3.707V16.499H49.762V15.413Z" fill="#303335"/>
<path d="M7.46799 16.498H3.92099V18.591H7.46799V16.498Z" fill="#303335"/>
<path d="M9.50299 16.498H8.592V18.591H9.50299V16.498Z" fill="#303335"/>
<path d="M11.461 16.498H10.55V18.591H11.461V16.498Z" fill="#303335"/>
<path d="M13.419 16.498H12.508V18.591H13.419V16.498Z" fill="#303335"/>
<path d="M18.051 16.498H14.504V18.591H18.051V16.498Z" fill="#303335"/>
<path d="M20.087 16.498H19.176V18.591H20.087V16.498Z" fill="#303335"/>
<path d="M22.045 16.498H21.134V18.591H22.045V16.498Z" fill="#303335"/>
<path d="M24.003 16.498H23.092V18.591H24.003V16.498Z" fill="#303335"/>
<path d="M28.635 16.498H25.088V18.591H28.635V16.498Z" fill="#303335"/>
<path d="M30.671 16.498H29.76V18.591H30.671V16.498Z" fill="#303335"/>
<path d="M32.629 16.498H31.718V18.591H32.629V16.498Z" fill="#303335"/>
<path d="M34.586 16.498H33.675V18.591H34.586V16.498Z" fill="#303335"/>
<path d="M39.219 16.498H35.672V18.591H39.219V16.498Z" fill="#303335"/>
<path d="M41.255 16.498H40.344V18.591H41.255V16.498Z" fill="#303335"/>
<path d="M43.212 16.498H42.301V18.591H43.212V16.498Z" fill="#303335"/>
<path d="M45.17 16.498H44.259V18.591H45.17V16.498Z" fill="#303335"/>
<path d="M116.759 51.0308H141.505V50.7398H116.759V51.0308Z" fill="#B1875E"/>
<path d="M116.759 52.3105H141.505V52.0195H116.759V52.3105Z" fill="#B1875E"/>
<path d="M116.759 53.5902H141.505V53.2992H116.759V53.5902Z" fill="#B1875E"/>
<path d="M116.759 54.869H141.505V54.578H116.759V54.869Z" fill="#B1875E"/>
<path d="M116.759 56.1486H141.505V55.8576H116.759V56.1486Z" fill="#B1875E"/>
<path d="M116.759 57.4284H141.505V57.1374H116.759V57.4284Z" fill="#B1875E"/>
<path d="M116.759 58.7071H141.505V58.4161H116.759V58.7071Z" fill="#B1875E"/>
<path d="M116.759 59.9868H141.505V59.6958H116.759V59.9868Z" fill="#B1875E"/>
<path d="M116.759 61.2666H141.505V60.9756H116.759V61.2666Z" fill="#B1875E"/>
<path d="M116.759 62.5453H141.505V62.2543H116.759V62.5453Z" fill="#B1875E"/>
<path d="M132.166 51.254V50.188H136.62V51.254H137.686V69.844H131.1V51.254H132.166Z" fill="#865B3D"/>
<path d="M131.65 60.9656H137.137V52.3976H131.65V60.9656Z" fill="#E0E0D6"/>
<path d="M136.671 60.5005V52.8635H132.116V60.5005H136.671Z" fill="#303335"/>
<path d="M134.152 60.9656H134.675V52.3976H134.152V60.9656Z" fill="#E0E0D6"/>
<path d="M131.935 56.9876H136.892V56.3766H131.935V56.9876Z" fill="#E0E0D6"/>
<path d="M135.598 60.7885H135.816V52.5745H135.598V60.7885Z" fill="#E0E0D6"/>
<path d="M132.981 60.8159H133.199V52.6019H132.981V60.8159Z" fill="#E0E0D6"/>
<path d="M131.886 54.1227H136.892V53.9477H131.886V54.1227Z" fill="#E0E0D6"/>
<path d="M131.886 55.267H136.892V55.093H131.886V55.267Z" fill="#E0E0D6"/>
<path d="M131.886 58.2232H136.892V58.0492H131.886V58.2232Z" fill="#E0E0D6"/>
<path d="M131.886 59.3665H136.892V59.1915H131.886V59.3665Z" fill="#E0E0D6"/>
<path d="M130.756 61.8038H138.04V60.9658H130.756V61.8038Z" fill="#303335"/>
<path d="M131.701 68.0122H137.114V64.9442H131.701V68.0122Z" fill="#E0E0D6"/>
<path d="M136.649 67.5466V65.4096H132.166V67.5466H136.649Z" fill="#303335"/>
<path d="M134.18 67.8765H134.605V65.1335H134.18V67.8765Z" fill="#E0E0D6"/>
<path d="M131.905 66.5752H136.858V66.3812H131.905V66.5752Z" fill="#E0E0D6"/>
<path d="M121.719 51.254V50.188H126.173V51.254H127.239V69.844H120.653V51.254H121.719Z" fill="#865B3D"/>
<path d="M121.202 60.9656H126.688V52.3976H121.202V60.9656Z" fill="#E0E0D6"/>
<path d="M126.223 60.5001V52.8631H121.668V60.5001H126.223Z" fill="#303335"/>
<path d="M123.704 60.9656H124.227V52.3976H123.704V60.9656Z" fill="#E0E0D6"/>
<path d="M121.487 56.9876H126.444V56.3766H121.487V56.9876Z" fill="#E0E0D6"/>
<path d="M125.151 60.7885H125.369V52.5745H125.151V60.7885Z" fill="#E0E0D6"/>
<path d="M122.534 60.8159H122.752V52.6019H122.534V60.8159Z" fill="#E0E0D6"/>
<path d="M121.438 54.1227H126.444V53.9477H121.438V54.1227Z" fill="#E0E0D6"/>
<path d="M121.438 55.267H126.444V55.093H121.438V55.267Z" fill="#E0E0D6"/>
<path d="M121.438 58.2232H126.444V58.0492H121.438V58.2232Z" fill="#E0E0D6"/>
<path d="M121.438 59.3665H126.444V59.1915H121.438V59.3665Z" fill="#E0E0D6"/>
<path d="M131.582 45.2255H137.068V35.4945H131.582V45.2255Z" fill="#E0E0D6"/>
<path d="M136.603 44.7604V35.9604H132.048V44.7604H136.603Z" fill="#303335"/>
<path d="M134.083 45.2255H134.606V35.4945H134.083V45.2255Z" fill="#E0E0D6"/>
<path d="M131.866 40.0844H136.823V39.4734H131.866V40.0844Z" fill="#E0E0D6"/>
<path d="M135.53 45.0485H135.748V35.6715H135.53V45.0485Z" fill="#E0E0D6"/>
<path d="M132.912 45.0758H133.13V35.6988H132.912V45.0758Z" fill="#E0E0D6"/>
<path d="M131.818 37.2195H136.824V37.0445H131.818V37.2195Z" fill="#E0E0D6"/>
<path d="M131.818 38.3639H136.824V38.1889H131.818V38.3639Z" fill="#E0E0D6"/>
<path d="M131.818 41.3201H136.824V41.1451H131.818V41.3201Z" fill="#E0E0D6"/>
<path d="M131.818 42.4634H136.824V42.2894H131.818V42.4634Z" fill="#E0E0D6"/>
<path d="M131.844 43.6867H136.85V43.5117H131.844V43.6867Z" fill="#E0E0D6"/>
<path d="M121.167 45.2255H126.653V35.4945H121.167V45.2255Z" fill="#E0E0D6"/>
<path d="M126.188 44.7603V35.9603H121.633V44.7603H126.188Z" fill="#303335"/>
<path d="M123.668 45.2255H124.191V35.4945H123.668V45.2255Z" fill="#E0E0D6"/>
<path d="M121.451 40.0844H126.408V39.4734H121.451V40.0844Z" fill="#E0E0D6"/>
<path d="M125.114 45.0485H125.332V35.6715H125.114V45.0485Z" fill="#E0E0D6"/>
<path d="M122.497 45.0758H122.715V35.6988H122.497V45.0758Z" fill="#E0E0D6"/>
<path d="M121.403 37.2195H126.409V37.0445H121.403V37.2195Z" fill="#E0E0D6"/>
<path d="M121.403 38.3639H126.409V38.1889H121.403V38.3639Z" fill="#E0E0D6"/>
<path d="M121.403 41.3201H126.409V41.1451H121.403V41.3201Z" fill="#E0E0D6"/>
<path d="M121.403 42.4634H126.409V42.2894H121.403V42.4634Z" fill="#E0E0D6"/>
<path d="M121.426 43.6867H126.432V43.5117H121.426V43.6867Z" fill="#E0E0D6"/>
<path d="M131.582 29.6594H137.068V25.2784H131.582V29.6594Z" fill="#E0E0D6"/>
<path d="M136.603 29.1943V25.7443H132.048V29.1943H136.603Z" fill="#303335"/>
<path d="M134.083 29.6594H134.606V25.2784H134.083V29.6594Z" fill="#E0E0D6"/>
<path d="M135.53 29.4823H135.748V25.4553H135.53V29.4823Z" fill="#E0E0D6"/>
<path d="M132.912 29.5097H133.13V25.4827H132.912V29.5097Z" fill="#E0E0D6"/>
<path d="M131.818 27.0045H136.824V26.8295H131.818V27.0045Z" fill="#E0E0D6"/>
<path d="M131.818 28.1478H136.824V27.9738H131.818V28.1478Z" fill="#E0E0D6"/>
<path d="M121.167 29.6594H126.653V25.2784H121.167V29.6594Z" fill="#E0E0D6"/>
<path d="M126.188 29.1942V25.7442H121.633V29.1942H126.188Z" fill="#303335"/>
<path d="M123.668 29.6594H124.191V25.2784H123.668V29.6594Z" fill="#E0E0D6"/>
<path d="M125.114 29.4823H125.332V25.4553H125.114V29.4823Z" fill="#E0E0D6"/>
<path d="M122.497 29.5097H122.715V25.4827H122.497V29.5097Z" fill="#E0E0D6"/>
<path d="M121.403 27.0045H126.409V26.8295H121.403V27.0045Z" fill="#E0E0D6"/>
<path d="M121.403 28.1478H126.409V27.9738H121.403V28.1478Z" fill="#E0E0D6"/>
<path d="M120.309 61.8038H127.593V60.9658H120.309V61.8038Z" fill="#303335"/>
<path d="M121.254 68.0122H126.667V64.9442H121.254V68.0122Z" fill="#E0E0D6"/>
<path d="M126.201 67.5463V65.4093H121.718V67.5463H126.201Z" fill="#303335"/>
<path d="M123.733 67.8765H124.158V65.1335H123.733V67.8765Z" fill="#E0E0D6"/>
<path d="M121.457 66.5752H126.41V66.3812H121.457V66.5752Z" fill="#E0E0D6"/>
<path d="M131.582 34.0793H137.068V30.8423H131.582V34.0793Z" fill="#B1875E"/>
<path d="M121.167 34.0793H126.653V30.8423H121.167V34.0793Z" fill="#B1875E"/>
<path d="M131.596 47.8525H137.083V46.3115H131.596V47.8525Z" fill="#B1875E"/>
<path d="M121.181 47.8525H126.667V46.3115H121.181V47.8525Z" fill="#B1875E"/>
<path d="M108.914 51.254V50.188H113.368V51.254H114.434V69.844H107.848V51.254H108.914Z" fill="#865B3D"/>
<path d="M108.397 60.9656H113.883V52.3976H108.397V60.9656Z" fill="#E0E0D6"/>
<path d="M113.418 60.5V52.863H108.863V60.5H113.418Z" fill="#303335"/>
<path d="M110.899 60.9656H111.422V52.3976H110.899V60.9656Z" fill="#E0E0D6"/>
<path d="M108.682 56.9876H113.639V56.3766H108.682V56.9876Z" fill="#E0E0D6"/>
<path d="M112.346 60.7885H112.564V52.5745H112.346V60.7885Z" fill="#E0E0D6"/>
<path d="M109.728 60.8159H109.946V52.6019H109.728V60.8159Z" fill="#E0E0D6"/>
<path d="M108.634 54.1227H113.64V53.9477H108.634V54.1227Z" fill="#E0E0D6"/>
<path d="M108.634 55.267H113.64V55.093H108.634V55.267Z" fill="#E0E0D6"/>
<path d="M108.634 58.2232H113.64V58.0492H108.634V58.2232Z" fill="#E0E0D6"/>
<path d="M108.634 59.3665H113.64V59.1915H108.634V59.3665Z" fill="#E0E0D6"/>
<path d="M107.504 61.8038H114.788V60.9658H107.504V61.8038Z" fill="#303335"/>
<path d="M108.449 68.0122H113.862V64.9442H108.449V68.0122Z" fill="#E0E0D6"/>
<path d="M113.396 67.5462V65.4092H108.913V67.5462H113.396Z" fill="#303335"/>
<path d="M110.928 67.8765H111.354V65.1335H110.928V67.8765Z" fill="#E0E0D6"/>
<path d="M108.652 66.5752H113.605V66.3812H108.652V66.5752Z" fill="#E0E0D6"/>
<path d="M98.466 51.254V50.188H102.92V51.254H103.986V69.844H97.4V51.254H98.466Z" fill="#865B3D"/>
<path d="M97.9502 60.9656H103.436V52.3976H97.9502V60.9656Z" fill="#E0E0D6"/>
<path d="M102.971 60.4996V52.8626H98.4159V60.4996H102.971Z" fill="#303335"/>
<path d="M100.452 60.9656H100.975V52.3976H100.452V60.9656Z" fill="#E0E0D6"/>
<path d="M98.2338 56.9876H103.192V56.3766H98.2338V56.9876Z" fill="#E0E0D6"/>
<path d="M101.898 60.7885H102.116V52.5745H101.898V60.7885Z" fill="#E0E0D6"/>
<path d="M99.2809 60.8159H99.4989V52.6019H99.2809V60.8159Z" fill="#E0E0D6"/>
<path d="M98.1854 54.1227H103.191V53.9477H98.1854V54.1227Z" fill="#E0E0D6"/>
<path d="M98.1854 55.267H103.191V55.093H98.1854V55.267Z" fill="#E0E0D6"/>
<path d="M98.1854 58.2232H103.191V58.0492H98.1854V58.2232Z" fill="#E0E0D6"/>
<path d="M98.1854 59.3665H103.191V59.1915H98.1854V59.3665Z" fill="#E0E0D6"/>
<path d="M108.33 45.2255H113.816V35.4945H108.33V45.2255Z" fill="#E0E0D6"/>
<path d="M113.349 44.7599V35.9599H108.794V44.7599H113.349Z" fill="#303335"/>
<path d="M110.831 45.2255H111.354V35.4945H110.831V45.2255Z" fill="#E0E0D6"/>
<path d="M108.614 40.0844H113.571V39.4734H108.614V40.0844Z" fill="#E0E0D6"/>
<path d="M112.277 45.0485H112.495V35.6715H112.277V45.0485Z" fill="#E0E0D6"/>
<path d="M109.66 45.0758H109.878V35.6988H109.66V45.0758Z" fill="#E0E0D6"/>
<path d="M108.565 37.2195H113.571V37.0445H108.565V37.2195Z" fill="#E0E0D6"/>
<path d="M108.565 38.3639H113.571V38.1889H108.565V38.3639Z" fill="#E0E0D6"/>
<path d="M108.565 41.3201H113.571V41.1451H108.565V41.3201Z" fill="#E0E0D6"/>
<path d="M108.565 42.4634H113.571V42.2894H108.565V42.4634Z" fill="#E0E0D6"/>
<path d="M108.591 43.6867H113.597V43.5117H108.591V43.6867Z" fill="#E0E0D6"/>
<path d="M97.9148 45.2255H103.401V35.4945H97.9148V45.2255Z" fill="#E0E0D6"/>
<path d="M102.936 44.7598V35.9598H98.3806V44.7598H102.936Z" fill="#303335"/>
<path d="M100.416 45.2255H100.939V35.4945H100.416V45.2255Z" fill="#E0E0D6"/>
<path d="M98.1984 40.0844H103.156V39.4734H98.1984V40.0844Z" fill="#E0E0D6"/>
<path d="M101.862 45.0485H102.08V35.6715H101.862V45.0485Z" fill="#E0E0D6"/>
<path d="M99.2455 45.0758H99.4635V35.6988H99.2455V45.0758Z" fill="#E0E0D6"/>
<path d="M98.15 37.2195H103.156V37.0445H98.15V37.2195Z" fill="#E0E0D6"/>
<path d="M98.15 38.3639H103.156V38.1889H98.15V38.3639Z" fill="#E0E0D6"/>
<path d="M98.15 41.3201H103.156V41.1451H98.15V41.3201Z" fill="#E0E0D6"/>
<path d="M98.15 42.4634H103.156V42.2894H98.15V42.4634Z" fill="#E0E0D6"/>
<path d="M98.1744 43.6867H103.18V43.5117H98.1744V43.6867Z" fill="#E0E0D6"/>
<path d="M108.33 29.6594H113.816V25.2784H108.33V29.6594Z" fill="#E0E0D6"/>
<path d="M113.35 29.1939V25.7439H108.795V29.1939H113.35Z" fill="#303335"/>
<path d="M110.831 29.6594H111.354V25.2784H110.831V29.6594Z" fill="#E0E0D6"/>
<path d="M112.277 29.4823H112.495V25.4553H112.277V29.4823Z" fill="#E0E0D6"/>
<path d="M109.66 29.5097H109.878V25.4827H109.66V29.5097Z" fill="#E0E0D6"/>
<path d="M108.565 27.0045H113.571V26.8295H108.565V27.0045Z" fill="#E0E0D6"/>
<path d="M108.565 28.1478H113.571V27.9738H108.565V28.1478Z" fill="#E0E0D6"/>
<path d="M97.9148 29.6594H103.401V25.2784H97.9148V29.6594Z" fill="#E0E0D6"/>
<path d="M102.936 29.1938V25.7438H98.3806V29.1938H102.936Z" fill="#303335"/>
<path d="M100.416 29.6594H100.939V25.2784H100.416V29.6594Z" fill="#E0E0D6"/>
<path d="M101.862 29.4823H102.08V25.4553H101.862V29.4823Z" fill="#E0E0D6"/>
<path d="M99.2455 29.5097H99.4635V25.4827H99.2455V29.5097Z" fill="#E0E0D6"/>
<path d="M98.15 27.0045H103.156V26.8295H98.15V27.0045Z" fill="#E0E0D6"/>
<path d="M98.15 28.1478H103.156V27.9738H98.15V28.1478Z" fill="#E0E0D6"/>
<path d="M97.0558 61.8038H104.34V60.9658H97.0558V61.8038Z" fill="#303335"/>
<path d="M98.0005 68.0122H103.413V64.9442H98.0005V68.0122Z" fill="#E0E0D6"/>
<path d="M102.948 67.5468V65.4098H98.4654V67.5468H102.948Z" fill="#303335"/>
<path d="M100.48 67.8765H100.905V65.1335H100.48V67.8765Z" fill="#E0E0D6"/>
<path d="M98.2048 66.5752H103.158V66.3812H98.2048V66.5752Z" fill="#E0E0D6"/>
<path d="M108.33 34.0793H113.816V30.8423H108.33V34.0793Z" fill="#B1875E"/>
<path d="M97.9148 34.0793H103.401V30.8423H97.9148V34.0793Z" fill="#B1875E"/>
<path d="M108.343 47.8525H113.829V46.3115H108.343V47.8525Z" fill="#B1875E"/>
<path d="M97.9287 47.8525H103.415V46.3115H97.9287V47.8525Z" fill="#B1875E"/>
<path d="M104.759 48.3856H107.085V24.0196H104.759V48.3856Z" fill="#D1B088"/>
<path d="M95.9411 19.6769L140.038 19.6769V18.5909L95.9411 18.5909V19.6769Z" fill="#303335"/>
<path d="M93.9833 16.4979L140.038 16.4979V15.4119L93.9833 15.4119V16.4979Z" fill="#303335"/>
<path d="M136.278 18.5919H139.825V16.4989H136.278V18.5919Z" fill="#303335"/>
<path d="M134.242 18.5919H135.153V16.4989H134.242V18.5919Z" fill="#303335"/>
<path d="M132.284 18.5919H133.195V16.4989H132.284V18.5919Z" fill="#303335"/>
<path d="M130.327 18.5919H131.238V16.4989H130.327V18.5919Z" fill="#303335"/>
<path d="M125.694 18.5919H129.241V16.4989H125.694V18.5919Z" fill="#303335"/>
<path d="M123.658 18.5919H124.569V16.4989H123.658V18.5919Z" fill="#303335"/>
<path d="M121.701 18.5919H122.612V16.4989H121.701V18.5919Z" fill="#303335"/>
<path d="M119.743 18.5919H120.654V16.4989H119.743V18.5919Z" fill="#303335"/>
<path d="M115.11 18.5919H118.657V16.4989H115.11V18.5919Z" fill="#303335"/>
<path d="M113.075 18.5919H113.986V16.4989H113.075V18.5919Z" fill="#303335"/>
<path d="M111.116 18.5919H112.027V16.4989H111.116V18.5919Z" fill="#303335"/>
<path d="M109.158 18.5919H110.07V16.4989H109.158V18.5919Z" fill="#303335"/>
<path d="M104.526 18.5919H108.073V16.4989H104.526V18.5919Z" fill="#303335"/>
<path d="M102.491 18.5919H103.402V16.4989H102.491V18.5919Z" fill="#303335"/>
<path d="M100.532 18.5919H101.443V16.4989H100.532V18.5919Z" fill="#303335"/>
<path d="M98.5749 18.5919H99.4859V16.4989H98.5749V18.5919Z" fill="#303335"/>
<path d="M97.723 17.42H45.991V18.63H97.723V17.42Z" fill="#BC9875"/>
<path d="M97.717 13.643H45.991V14.388H97.717V13.643Z" fill="#BC9875"/>
<path d="M50.197 14.388H46.229V17.42H50.197V14.388Z" fill="#865B3D"/>
<path d="M52.474 14.388H51.455V17.42H52.474V14.388Z" fill="#BC9875"/>
<path d="M54.664 14.388H53.645V17.42H54.664V14.388Z" fill="#BC9875"/>
<path d="M56.854 14.388H55.835V17.42H56.854V14.388Z" fill="#BC9875"/>
<path d="M59.044 14.388H58.025V17.42H59.044V14.388Z" fill="#BC9875"/>
<path d="M61.234 14.388H60.215V17.42H61.234V14.388Z" fill="#BC9875"/>
<path d="M93.5252 17.4207H97.4932V14.3887H93.5252V17.4207Z" fill="#865B3D"/>
<path d="M91.2489 17.4207H92.2679V14.3887H91.2489V17.4207Z" fill="#BC9875"/>
<path d="M89.0589 17.4207H90.0779V14.3887H89.0589V17.4207Z" fill="#BC9875"/>
<path d="M86.8691 17.4207H87.8881V14.3887H86.8691V17.4207Z" fill="#BC9875"/>
<path d="M84.6791 17.4207H85.6981V14.3887H84.6791V17.4207Z" fill="#BC9875"/>
<path d="M82.4881 17.4207H83.5071V14.3887H82.4881V17.4207Z" fill="#BC9875"/>
<path d="M71.868 14.388H71.854H62.405V17.42H71.854H71.868H81.318V14.388H71.868Z" fill="#865B3D"/>
<path d="M73.004 15.892C73.004 16.494 72.516 16.982 71.914 16.982C71.312 16.982 70.824 16.494 70.824 15.892C70.824 15.29 71.312 14.802 71.914 14.802C72.516 14.802 73.004 15.29 73.004 15.892Z" fill="#E0E0D6"/>
<path d="M76.595 7.09698H67.232L64.906 13.643H78.921L76.595 7.09698Z" fill="#865B3D"/>
<path d="M93.765 9.62601C92.803 9.45201 91.873 10.702 91.916 11.254C91.96 11.806 90.942 12.94 89.895 12.94C88.848 12.94 87.133 11.171 86.755 11.11C86.377 11.05 85.529 12.794 83.612 12.794C81.695 12.794 79.947 8.98499 79.702 8.98499C79.457 8.98499 78.632 9.39199 78.259 8.98499C77.886 8.57799 78.177 7.386 77.973 6.979C77.77 6.572 75.85 4.68201 75.85 4.56601C75.85 4.45001 76.432 2.56 75.85 2.56C75.268 2.56 75.676 4.53699 75.501 4.53699C75.327 4.53699 74.774 4.76999 74.6 5.23499C74.426 5.69999 74.687 6.74701 74.309 6.74701C73.931 6.74701 73.64 6.31099 73.844 6.01999C74.048 5.72899 74.455 5.031 74.367 4.479C74.28 3.926 73.063 2.589 73.002 2.56C72.942 2.531 73.295 1.94899 73.002 1.68799C72.709 1.42599 72.564 0.815992 72.796 0.640992C73.028 0.465992 72.767 0.146991 72.447 0.0589914C72.127 -0.0280086 71.911 0.0589914 71.911 0.0589914C71.911 0.0589914 71.695 -0.0280086 71.375 0.0589914C71.055 0.145991 70.793 0.465992 71.026 0.640992C71.259 0.814992 71.113 1.42599 70.82 1.68799C70.527 1.94999 70.88 2.531 70.82 2.56C70.76 2.589 69.543 3.927 69.456 4.479C69.369 5.031 69.776 5.72899 69.979 6.01999C70.183 6.31099 69.892 6.74701 69.514 6.74701C69.136 6.74701 69.398 5.69999 69.223 5.23499C69.049 4.76999 68.496 4.53699 68.322 4.53699C68.148 4.53699 68.555 2.56 67.973 2.56C67.391 2.56 67.973 4.45001 67.973 4.56601C67.973 4.68201 66.054 6.572 65.85 6.979C65.647 7.386 65.937 8.57799 65.564 8.98499C65.191 9.39199 64.367 8.98499 64.122 8.98499C63.877 8.98499 62.128 12.794 60.212 12.794C58.296 12.794 57.447 11.049 57.069 11.11C56.691 11.17 54.976 12.94 53.929 12.94C52.882 12.94 51.865 11.806 51.908 11.254C51.952 10.702 51.021 9.45101 50.059 9.62601C49.097 9.80101 48.637 12.795 48.956 12.883C49.276 12.97 48.956 13.643 48.956 13.643H64.902C64.902 13.643 66.896 10.382 67.128 10.179C67.361 9.97499 67.012 7.155 68.233 7.349C69.454 7.543 70.559 8.58001 70.819 8.95801C71.079 9.33601 71.909 9.22 71.909 9.22C71.909 9.22 72.74 9.33601 72.999 8.95801C73.259 8.58001 74.364 7.543 75.585 7.349C76.806 7.155 76.457 9.97599 76.69 10.179C76.923 10.382 78.916 13.643 78.916 13.643H94.862C94.862 13.643 94.542 12.97 94.862 12.883C95.187 12.796 94.727 9.80101 93.765 9.62601Z" fill="#303335"/>
<path d="M70.069 13.643C70.069 13.643 68.664 12.574 69.217 11.963C69.769 11.352 70.823 12.243 70.823 12.243C70.823 12.243 70.823 10.818 71.913 10.818V13.643H70.069Z" fill="#303335"/>
<path d="M73.713 13.643C73.713 13.643 75.118 12.574 74.565 11.963C74.013 11.352 72.959 12.243 72.959 12.243C72.959 12.243 72.959 10.818 71.869 10.818V13.643H73.713Z" fill="#303335"/>
<path d="M17.432 15.413C17.432 15.413 17.295 13.514 17.244 12.244C17.567 11.946 18.335 11.186 18.199 10.802C18.092 10.5 17.94 10.243 17.836 10.084L17.835 10.079C17.817 10.053 17.806 10.038 17.794 10.02C17.754 9.96098 17.725 9.92099 17.725 9.92099C17.725 9.92099 17.139 9.81499 16.992 9.70999C16.845 9.60399 17.248 8.81201 16.626 8.78601C16.003 8.76001 16.113 9.57901 16.113 9.57901C16.113 9.57901 15.346 9.74201 15.198 9.92401C14.942 10.241 15.453 11.031 15.417 11.348C15.38 11.665 15.051 15.415 15.051 15.415H17.432V15.413ZM17.225 11.62C17.222 11.355 17.228 11.174 17.249 11.134C17.359 10.923 17.359 10.923 17.359 10.923C17.359 10.923 17.468 10.794 17.582 10.637C17.625 10.746 17.659 10.856 17.658 10.948C17.655 11.154 17.388 11.454 17.225 11.62Z" fill="#865B3D"/>
<path d="M6.96999 12.844C6.96999 12.735 6.94499 12.639 6.90499 12.553L6.907 12.554C6.907 12.554 7.28699 11.468 7.07799 11.217C6.86999 10.967 6.33599 11.217 6.33599 11.217H5.69399H5.05199C5.05199 11.217 4.51799 10.967 4.30999 11.217C4.10199 11.467 4.48099 12.554 4.48099 12.554L4.48299 12.553C4.44399 12.639 4.41899 12.735 4.41899 12.844C4.41899 13.828 5.31999 14.704 5.31999 14.704V14.996L4.63599 15.255V15.413H5.69499H6.754V15.255L6.06999 14.996V14.704C6.06999 14.704 6.96999 13.828 6.96999 12.844ZM6.13199 11.605L6.33599 11.401C6.33599 11.401 6.78799 11.122 6.93399 11.33C7.04299 11.486 6.79299 12.077 6.70199 12.281C6.45699 12.06 6.13199 11.976 6.13199 11.976V11.605ZM5.25599 11.976C5.25599 11.976 4.93099 12.06 4.68599 12.281C4.59399 12.077 4.34399 11.486 4.45399 11.33C4.59999 11.122 5.05199 11.401 5.05199 11.401L5.25599 11.605V11.976Z" fill="#865B3D"/>
<path d="M28.138 12.844C28.138 12.735 28.113 12.639 28.074 12.553L28.076 12.554C28.076 12.554 28.456 11.468 28.247 11.217C28.039 10.967 27.505 11.217 27.505 11.217H26.863H26.22C26.22 11.217 25.686 10.967 25.478 11.217C25.27 11.467 25.649 12.554 25.649 12.554L25.651 12.553C25.612 12.639 25.587 12.735 25.587 12.844C25.587 13.828 26.488 14.704 26.488 14.704V14.996L25.804 15.255V15.413H26.863H27.922V15.255L27.238 14.996V14.704C27.238 14.704 28.138 13.828 28.138 12.844ZM27.3 11.605L27.504 11.401C27.504 11.401 27.956 11.122 28.102 11.33C28.211 11.486 27.961 12.077 27.87 12.281C27.625 12.06 27.3 11.976 27.3 11.976V11.605ZM26.424 11.976C26.424 11.976 26.099 12.06 25.854 12.281C25.762 12.077 25.513 11.486 25.622 11.33C25.768 11.122 26.22 11.401 26.22 11.401L26.424 11.605V11.976Z" fill="#865B3D"/>
<path d="M128.621 15.413C128.621 15.413 128.484 13.514 128.433 12.244C128.756 11.946 129.524 11.186 129.388 10.802C129.281 10.5 129.128 10.243 129.025 10.084L129.024 10.079C129.006 10.053 128.995 10.038 128.983 10.02C128.943 9.96098 128.914 9.92099 128.914 9.92099C128.914 9.92099 128.328 9.81499 128.181 9.70999C128.034 9.60399 128.437 8.81201 127.815 8.78601C127.192 8.76001 127.302 9.57901 127.302 9.57901C127.302 9.57901 126.535 9.74201 126.387 9.92401C126.131 10.241 126.642 11.031 126.606 11.348C126.569 11.665 126.24 15.415 126.24 15.415H128.621V15.413ZM128.415 11.62C128.412 11.355 128.418 11.174 128.439 11.134C128.549 10.923 128.549 10.923 128.549 10.923C128.549 10.923 128.658 10.794 128.772 10.637C128.815 10.746 128.849 10.856 128.848 10.948C128.844 11.154 128.577 11.454 128.415 11.62Z" fill="#865B3D"/>
<path d="M118.16 12.844C118.16 12.735 118.135 12.639 118.096 12.553L118.098 12.554C118.098 12.554 118.478 11.468 118.269 11.217C118.061 10.967 117.527 11.217 117.527 11.217H116.885H116.243C116.243 11.217 115.709 10.967 115.501 11.217C115.293 11.467 115.672 12.554 115.672 12.554L115.674 12.553C115.635 12.639 115.609 12.735 115.609 12.844C115.609 13.828 116.51 14.704 116.51 14.704V14.996L115.826 15.255V15.413H116.885H117.944V15.255L117.26 14.996V14.704C117.259 14.704 118.16 13.828 118.16 12.844ZM117.321 11.605L117.525 11.401C117.525 11.401 117.977 11.122 118.123 11.33C118.232 11.486 117.982 12.077 117.891 12.281C117.646 12.06 117.321 11.976 117.321 11.976V11.605ZM116.445 11.976C116.445 11.976 116.12 12.06 115.875 12.281C115.783 12.077 115.533 11.486 115.643 11.33C115.789 11.122 116.241 11.401 116.241 11.401L116.445 11.605V11.976Z" fill="#865B3D"/>
<path d="M139.327 12.844C139.327 12.735 139.302 12.639 139.263 12.553L139.265 12.554C139.265 12.554 139.645 11.468 139.436 11.217C139.228 10.967 138.694 11.217 138.694 11.217H138.052H137.41C137.41 11.217 136.876 10.967 136.668 11.217C136.46 11.467 136.839 12.554 136.839 12.554L136.841 12.553C136.802 12.639 136.777 12.735 136.777 12.844C136.777 13.828 137.678 14.704 137.678 14.704V14.996L136.994 15.255V15.413H138.053H139.112V15.255L138.428 14.996V14.704C138.426 14.704 139.327 13.828 139.327 12.844ZM138.489 11.605L138.693 11.401C138.693 11.401 139.145 11.122 139.291 11.33C139.4 11.486 139.15 12.077 139.059 12.281C138.814 12.06 138.489 11.976 138.489 11.976V11.605ZM137.613 11.976C137.613 11.976 137.288 12.06 137.043 12.281C136.951 12.077 136.702 11.486 136.811 11.33C136.957 11.122 137.409 11.401 137.409 11.401L137.613 11.605V11.976Z" fill="#865B3D"/>
<path d="M94.405 22.934V69.844H97.914L95.779 22.934H94.405Z" fill="#CCC1B9"/>
<path d="M26.986 24.019V69.844H28.899L27.673 24.019H26.986Z" fill="#CCC1B9"/>
<path d="M118.028 24.019V48.385L116.759 48.386V69.844H114.846L116.072 24.019H118.028Z" fill="#CCC1B9"/>
<path d="M128.689 24.019V48.385H126.152L126.614 24.019H128.689Z" fill="#B09E91"/>
<path d="M24.367 24.009V48.375H21.829L22.292 24.009H24.367Z" fill="#B09E91"/>
<path d="M13.822 24.009V48.375H11.284L11.747 24.009H13.822Z" fill="#B09E91"/>
<path d="M4.293 24.019H2.241V48.385H4.293V24.019Z" fill="#B09E91"/>
<path d="M118.028 24.019V48.385H115.49L116.072 24.019H118.028Z" fill="#CCC1B9"/>
<path d="M138.955 24.019V48.385H136.417L136.88 24.019H138.955Z" fill="#B09E91"/>
<path d="M52.362 45.303H47.761V48.385H52.362V45.303Z" fill="#D1B088"/>
<path d="M96.494 45.303H91.893V48.385H96.494V45.303Z" fill="#D1B088"/>
<path d="M68.196 45.303H59.719V48.385H68.196V45.303Z" fill="#D1B088"/>
<path d="M84.535 45.303H76.058V48.385H84.535V45.303Z" fill="#D1B088"/>
<path d="M48.083 45.303H52.041V44.681C52.041 44.504 51.898 44.361 51.721 44.361H48.403C48.226 44.361 48.083 44.504 48.083 44.681V45.303Z" fill="#DDC4A6"/>
<path d="M51.606 43.767H48.518C48.354 43.767 48.221 43.9 48.221 44.064C48.221 44.228 48.354 44.361 48.518 44.361H51.606C51.77 44.361 51.903 44.228 51.903 44.064C51.903 43.9 51.77 43.767 51.606 43.767Z" fill="#DDC4A6"/>
<path d="M51.605 24.193H48.52V43.767H51.605V24.193Z" fill="#DDC4A6"/>
<path d="M51.438 22.934H48.687C48.2 22.934 47.805 23.329 47.805 23.816C47.805 24.303 48.2 24.698 48.687 24.698H51.438C51.925 24.698 52.32 24.303 52.32 23.816C52.32 23.329 51.925 22.934 51.438 22.934Z" fill="#DDC4A6"/>
<path d="M48.52 25.975C48.52 25.975 48.929 24.744 49.873 24.901C50.816 25.058 51.052 25.975 51.052 25.975L51.153 42.38C51.155 42.846 50.833 43.25 50.378 43.351L48.52 43.767H51.605V24.193H48.52V25.975Z" fill="#D1B088"/>
<path d="M48.668 22.934C48.127 22.934 47.689 23.373 47.689 23.913C47.689 24.453 48.127 24.892 48.668 24.892C49.209 24.892 49.647 24.453 49.647 23.913C49.647 23.373 49.209 22.934 48.668 22.934Z" fill="#DDC4A6"/>
<path d="M51.455 22.934C50.914 22.934 50.476 23.373 50.476 23.913C50.476 24.453 50.914 24.892 51.455 24.892C51.996 24.892 52.434 24.453 52.434 23.913C52.434 23.373 51.996 22.934 51.455 22.934Z" fill="#DDC4A6"/>
<path d="M92.214 45.303H96.173V44.681C96.173 44.504 96.03 44.361 95.853 44.361H92.535C92.358 44.361 92.215 44.504 92.215 44.681L92.214 45.303Z" fill="#DDC4A6"/>
<path d="M95.738 43.767H92.65C92.486 43.767 92.353 43.9 92.353 44.064C92.353 44.228 92.486 44.361 92.65 44.361H95.738C95.902 44.361 96.035 44.228 96.035 44.064C96.034 43.9 95.901 43.767 95.738 43.767Z" fill="#DDC4A6"/>
<path d="M95.736 24.193H92.651V43.767H95.736V24.193Z" fill="#DDC4A6"/>
<path d="M95.569 22.934H92.818C92.331 22.934 91.936 23.329 91.936 23.816C91.936 24.303 92.331 24.698 92.818 24.698H95.569C96.056 24.698 96.451 24.303 96.451 23.816C96.451 23.329 96.057 22.934 95.569 22.934Z" fill="#DDC4A6"/>
<path d="M92.651 25.975C92.651 25.975 93.06 24.744 94.004 24.901C94.947 25.058 95.183 25.975 95.183 25.975L95.284 42.38C95.286 42.846 94.964 43.25 94.509 43.351L92.651 43.767H95.736V24.193H92.651V25.975Z" fill="#D1B088"/>
<path d="M92.799 24.892C93.3397 24.892 93.778 24.4537 93.778 23.913C93.778 23.3723 93.3397 22.934 92.799 22.934C92.2583 22.934 91.82 23.3723 91.82 23.913C91.82 24.4537 92.2583 24.892 92.799 24.892Z" fill="#DDC4A6"/>
<path d="M95.586 24.892C96.1267 24.892 96.565 24.4537 96.565 23.913C96.565 23.3723 96.1267 22.934 95.586 22.934C95.0453 22.934 94.607 23.3723 94.607 23.913C94.607 24.4537 95.0453 24.892 95.586 24.892Z" fill="#DDC4A6"/>
<path d="M59.888 45.303H63.847V44.681C63.847 44.504 63.704 44.361 63.527 44.361H60.209C60.032 44.361 59.889 44.504 59.889 44.681L59.888 45.303Z" fill="#DDC4A6"/>
<path d="M63.411 43.767H60.323C60.159 43.767 60.026 43.9 60.026 44.064C60.026 44.228 60.159 44.361 60.323 44.361H63.411C63.575 44.361 63.708 44.228 63.708 44.064C63.708 43.9 63.575 43.767 63.411 43.767Z" fill="#DDC4A6"/>
<path d="M63.41 24.193H60.325V43.767H63.41V24.193Z" fill="#DDC4A6"/>
<path d="M63.243 22.934H60.492C60.005 22.934 59.61 23.329 59.61 23.816C59.61 24.303 60.005 24.698 60.492 24.698H63.243C63.73 24.698 64.125 24.303 64.125 23.816C64.125 23.329 63.73 22.934 63.243 22.934Z" fill="#DDC4A6"/>
<path d="M60.325 25.975C60.325 25.975 60.734 24.744 61.678 24.901C62.621 25.058 62.857 25.975 62.857 25.975L62.958 42.38C62.96 42.846 62.638 43.25 62.183 43.351L60.325 43.767H63.41V24.193H60.325V25.975Z" fill="#D1B088"/>
<path d="M60.473 22.934C59.932 22.934 59.494 23.373 59.494 23.913C59.494 24.453 59.932 24.892 60.473 24.892C61.014 24.892 61.452 24.453 61.452 23.913C61.452 23.373 61.014 22.934 60.473 22.934Z" fill="#DDC4A6"/>
<path d="M63.26 24.892C63.8007 24.892 64.239 24.4537 64.239 23.913C64.239 23.3723 63.8007 22.934 63.26 22.934C62.7193 22.934 62.281 23.3723 62.281 23.913C62.281 24.4537 62.7193 24.892 63.26 24.892Z" fill="#DDC4A6"/>
<path d="M64.003 45.303H67.962V44.681C67.962 44.504 67.819 44.361 67.642 44.361H64.324C64.147 44.361 64.004 44.504 64.004 44.681L64.003 45.303Z" fill="#DDC4A6"/>
<path d="M67.526 43.767H64.438C64.274 43.767 64.141 43.9 64.141 44.064C64.141 44.228 64.274 44.361 64.438 44.361H67.526C67.69 44.361 67.823 44.228 67.823 44.064C67.823 43.9 67.69 43.767 67.526 43.767Z" fill="#DDC4A6"/>
<path d="M67.525 24.193H64.44V43.767H67.525V24.193Z" fill="#DDC4A6"/>
<path d="M67.358 22.934H64.607C64.12 22.934 63.725 23.329 63.725 23.816C63.725 24.303 64.12 24.698 64.607 24.698H67.358C67.845 24.698 68.24 24.303 68.24 23.816C68.24 23.329 67.845 22.934 67.358 22.934Z" fill="#DDC4A6"/>
<path d="M64.44 25.975C64.44 25.975 64.849 24.744 65.793 24.901C66.736 25.058 66.972 25.975 66.972 25.975L67.073 42.38C67.075 42.846 66.753 43.25 66.298 43.351L64.44 43.767H67.525V24.193H64.44V25.975Z" fill="#D1B088"/>
<path d="M64.588 22.934C64.047 22.934 63.609 23.373 63.609 23.913C63.609 24.453 64.047 24.892 64.588 24.892C65.129 24.892 65.567 24.453 65.567 23.913C65.567 23.373 65.129 22.934 64.588 22.934Z" fill="#DDC4A6"/>
<path d="M67.375 24.892C67.9157 24.892 68.354 24.4537 68.354 23.913C68.354 23.3723 67.9157 22.934 67.375 22.934C66.8343 22.934 66.396 23.3723 66.396 23.913C66.396 24.4537 66.8343 24.892 67.375 24.892Z" fill="#DDC4A6"/>
<path d="M76.26 45.303H80.219V44.681C80.219 44.504 80.075 44.361 79.899 44.361H76.581C76.404 44.361 76.261 44.504 76.261 44.681L76.26 45.303Z" fill="#DDC4A6"/>
<path d="M79.784 43.767H76.696C76.532 43.767 76.399 43.9 76.399 44.064C76.399 44.228 76.532 44.361 76.696 44.361H79.784C79.948 44.361 80.081 44.228 80.081 44.064C80.08 43.9 79.948 43.767 79.784 43.767Z" fill="#DDC4A6"/>
<path d="M79.782 24.193H76.697V43.767H79.782V24.193Z" fill="#DDC4A6"/>
<path d="M79.616 22.934H76.865C76.378 22.934 75.983 23.329 75.983 23.816C75.983 24.303 76.378 24.698 76.865 24.698H79.616C80.103 24.698 80.498 24.303 80.498 23.816C80.498 23.329 80.103 22.934 79.616 22.934Z" fill="#DDC4A6"/>
<path d="M76.697 25.975C76.697 25.975 77.106 24.744 78.05 24.901C78.993 25.058 79.229 25.975 79.229 25.975L79.33 42.38C79.332 42.846 79.01 43.25 78.555 43.351L76.697 43.767H79.782V24.193H76.697V25.975Z" fill="#D1B088"/>
<path d="M76.846 22.934C76.305 22.934 75.867 23.373 75.867 23.913C75.867 24.453 76.305 24.892 76.846 24.892C77.387 24.892 77.825 24.453 77.825 23.913C77.825 23.373 77.386 22.934 76.846 22.934Z" fill="#DDC4A6"/>
<path d="M79.632 24.892C80.1727 24.892 80.611 24.4537 80.611 23.913C80.611 23.3723 80.1727 22.934 79.632 22.934C79.0913 22.934 78.653 23.3723 78.653 23.913C78.653 24.4537 79.0913 24.892 79.632 24.892Z" fill="#DDC4A6"/>
<path d="M80.376 45.303H84.334V44.681C84.334 44.504 84.191 44.361 84.014 44.361H80.696C80.519 44.361 80.376 44.504 80.376 44.681V45.303Z" fill="#DDC4A6"/>
<path d="M83.899 43.767H80.811C80.647 43.767 80.514 43.9 80.514 44.064C80.514 44.228 80.647 44.361 80.811 44.361H83.899C84.063 44.361 84.196 44.228 84.196 44.064C84.196 43.9 84.063 43.767 83.899 43.767Z" fill="#DDC4A6"/>
<path d="M83.897 24.193H80.812V43.767H83.897V24.193Z" fill="#DDC4A6"/>
<path d="M83.731 22.934H80.98C80.493 22.934 80.098 23.329 80.098 23.816C80.098 24.303 80.493 24.698 80.98 24.698H83.731C84.218 24.698 84.613 24.303 84.613 23.816C84.613 23.329 84.218 22.934 83.731 22.934Z" fill="#DDC4A6"/>
<path d="M80.812 25.975C80.812 25.975 81.221 24.744 82.165 24.901C83.109 25.058 83.344 25.975 83.344 25.975L83.445 42.38C83.447 42.846 83.125 43.25 82.67 43.351L80.812 43.767H83.897V24.193H80.812V25.975Z" fill="#D1B088"/>
<path d="M80.961 22.934C80.42 22.934 79.982 23.373 79.982 23.913C79.982 24.453 80.42 24.892 80.961 24.892C81.502 24.892 81.94 24.453 81.94 23.913C81.94 23.373 81.502 22.934 80.961 22.934Z" fill="#DDC4A6"/>
<path d="M83.747 24.892C84.2877 24.892 84.726 24.4537 84.726 23.913C84.726 23.3723 84.2877 22.934 83.747 22.934C83.2063 22.934 82.768 23.3723 82.768 23.913C82.768 24.4537 83.2063 24.892 83.747 24.892Z" fill="#DDC4A6"/>
<path d="M96.351 21.848H47.386V22.934H96.351V21.848Z" fill="#DDC4A6"/>
<path d="M97.049 20.763H46.689L47.386 21.848H96.351L97.049 20.763Z" fill="#865B3D"/>
<path d="M97.049 19.677H46.689V20.763H97.049V19.677Z" fill="#BC9875"/>
<path d="M97.747 18.592H45.991L46.689 19.677H97.049L97.747 18.592Z" fill="#865B3D"/>
<path d="M96.493 48.385H47.761V49.315H96.493V48.385Z" fill="#B1875E"/>
<path d="M96.493 49.316H47.761V69.844H96.493V49.316Z" fill="#D1B088"/>
<path d="M96.511 50.595H47.761V50.886H96.511V50.595Z" fill="#B1875E"/>
<path d="M96.511 51.875H47.761V52.166H96.511V51.875Z" fill="#B1875E"/>
<path d="M96.511 53.154H47.761V53.445H96.511V53.154Z" fill="#B1875E"/>
<path d="M96.511 54.433H47.761V54.724H96.511V54.433Z" fill="#B1875E"/>
<path d="M96.511 55.713H47.761V56.004H96.511V55.713Z" fill="#B1875E"/>
<path d="M96.511 56.992H47.761V57.283H96.511V56.992Z" fill="#B1875E"/>
<path d="M96.511 58.271H47.761V58.562H96.511V58.271Z" fill="#B1875E"/>
<path d="M96.511 59.551H47.761V59.842H96.511V59.551Z" fill="#B1875E"/>
<path d="M96.511 60.83H47.761V61.121H96.511V60.83Z" fill="#B1875E"/>
<path d="M96.511 62.109H47.761V62.4H96.511V62.109Z" fill="#B1875E"/>
<path d="M59.562 51.254V50.188H52.782V51.254H51.716V69.844H60.628V51.254H59.562Z" fill="#865B3D"/>
<path d="M53.597 52.185C53.597 52.185 53.514 50.657 54.576 50.189C55.4 49.825 56.171 50.189 56.171 50.189V51.255L53.597 52.185Z" fill="#303335"/>
<path d="M58.746 52.185C58.746 52.185 58.829 50.657 57.767 50.189C56.943 49.825 56.172 50.189 56.172 50.189V51.255L58.746 52.185Z" fill="#303335"/>
<path d="M56.172 51.961C56.6657 51.961 57.066 51.4014 57.066 50.711C57.066 50.0206 56.6657 49.461 56.172 49.461C55.6783 49.461 55.278 50.0206 55.278 50.711C55.278 51.4014 55.6783 51.961 56.172 51.961Z" fill="#303335"/>
<path d="M91.705 51.254V50.188H84.925V51.254H83.859V69.844H92.771V51.254H91.705Z" fill="#865B3D"/>
<path d="M72.134 51.375H72.638C74.993 51.375 76.903 53.284 76.903 55.64V68.656H67.87V55.64C67.869 53.285 69.779 51.375 72.134 51.375Z" fill="#865B3D"/>
<path d="M68.812 67.959V55.832C68.812 53.888 70.415 52.306 72.385 52.306C74.355 52.306 75.959 53.888 75.959 55.832V67.959H68.812Z" fill="#303335"/>
<path d="M69.334 67.493V55.831C69.334 54.143 70.703 52.77 72.386 52.77C74.069 52.77 75.438 54.143 75.438 55.831V67.493H69.334Z" fill="#E0E0D6"/>
<path d="M75.437 55.832H69.334V56.498H75.437V55.832Z" fill="#303335"/>
<path d="M75.641 63.394H69.135V65.391H75.641V63.394Z" fill="#303335"/>
<path d="M72.701 56.265H72.071V67.682H72.701V56.265Z" fill="#303335"/>
<path d="M70.82 56.309H70.597V67.683H70.82V56.309Z" fill="#303335"/>
<path d="M74.241 56.287H74.018V67.661H74.241V56.287Z" fill="#303335"/>
<path d="M75.755 57.782H69.146V57.975H75.755V57.782Z" fill="#303335"/>
<path d="M75.755 59.194H69.146V59.387H75.755V59.194Z" fill="#303335"/>
<path d="M75.755 60.606H69.146V60.799H75.755V60.606Z" fill="#303335"/>
<path d="M75.755 62.018H69.146V62.211H75.755V62.018Z" fill="#303335"/>
<path d="M75.755 66.355H69.146V66.548H75.755V66.355Z" fill="#303335"/>
<path d="M85.741 52.185C85.741 52.185 85.658 50.657 86.72 50.189C87.544 49.825 88.315 50.189 88.315 50.189V51.255L85.741 52.185Z" fill="#303335"/>
<path d="M90.89 52.185C90.89 52.185 90.973 50.657 89.911 50.189C89.087 49.825 88.316 50.189 88.316 50.189V51.255L90.89 52.185Z" fill="#303335"/>
<path d="M88.315 51.961C88.8087 51.961 89.209 51.4014 89.209 50.711C89.209 50.0206 88.8087 49.461 88.315 49.461C87.8213 49.461 87.421 50.0206 87.421 50.711C87.421 51.4014 87.8213 51.961 88.315 51.961Z" fill="#303335"/>
<path d="M69.339 52.497C69.339 52.497 69.241 50.689 70.498 50.135C71.473 49.705 72.386 50.135 72.386 50.135V51.397L69.339 52.497Z" fill="#865B3D"/>
<path d="M75.432 52.497C75.432 52.497 75.53 50.689 74.273 50.135C73.298 49.705 72.385 50.135 72.385 50.135V51.397L75.432 52.497Z" fill="#865B3D"/>
<path d="M73.444 50.754C73.444 51.571 72.97 52.233 72.386 52.233C71.802 52.233 71.328 51.571 71.328 50.754C71.328 49.937 71.802 49.275 72.386 49.275C72.97 49.275 73.444 49.937 73.444 50.754Z" fill="#865B3D"/>
<path d="M56.172 51.254C58.396 51.254 60.199 53.057 60.199 55.281V68.535H52.145V55.281C52.145 53.057 53.948 51.254 56.172 51.254Z" fill="#BC9875"/>
<path d="M52.985 67.837V55.71C52.985 53.766 54.414 52.184 56.171 52.184C57.928 52.184 59.357 53.766 59.357 55.71V67.837H52.985Z" fill="#303335"/>
<path d="M53.451 67.372V55.71C53.451 54.022 54.672 52.65 56.172 52.65C57.672 52.65 58.893 54.023 58.893 55.71V67.372H53.451Z" fill="#E0E0D6"/>
<path d="M58.893 55.71H53.451V56.376H58.893V55.71Z" fill="#303335"/>
<path d="M58.893 63.272H53.451V65.269H58.893V63.272Z" fill="#303335"/>
<path d="M56.453 56.144H55.891V67.561H56.453V56.144Z" fill="#303335"/>
<path d="M54.775 56.188H54.576V67.562H54.775V56.188Z" fill="#303335"/>
<path d="M57.826 56.166H57.627V67.54H57.826V56.166Z" fill="#303335"/>
<path d="M59.176 57.661H53.283V57.854H59.176V57.661Z" fill="#303335"/>
<path d="M59.176 59.073H53.283V59.266H59.176V59.073Z" fill="#303335"/>
<path d="M59.176 60.485H53.283V60.678H59.176V60.485Z" fill="#303335"/>
<path d="M59.176 61.897H53.283V62.09H59.176V61.897Z" fill="#303335"/>
<path d="M59.176 66.234H53.283V66.427H59.176V66.234Z" fill="#303335"/>
<path d="M88.315 51.254C90.539 51.254 92.342 53.057 92.342 55.281V68.535H84.288V55.281C84.288 53.057 86.091 51.254 88.315 51.254Z" fill="#BC9875"/>
<path d="M85.129 67.837V55.71C85.129 53.766 86.558 52.184 88.315 52.184C90.072 52.184 91.501 53.766 91.501 55.71V67.837H85.129Z" fill="#303335"/>
<path d="M85.594 67.372V55.71C85.594 54.022 86.815 52.65 88.315 52.65C89.815 52.65 91.036 54.023 91.036 55.71V67.372H85.594Z" fill="#E0E0D6"/>
<path d="M91.036 55.71H85.594V56.376H91.036V55.71Z" fill="#303335"/>
<path d="M91.036 63.272H85.594V65.269H91.036V63.272Z" fill="#303335"/>
<path d="M88.596 56.144H88.034V67.561H88.596V56.144Z" fill="#303335"/>
<path d="M86.919 56.188H86.72V67.562H86.919V56.188Z" fill="#303335"/>
<path d="M89.97 56.166H89.771V67.54H89.97V56.166Z" fill="#303335"/>
<path d="M91.319 57.661H85.426V57.854H91.319V57.661Z" fill="#303335"/>
<path d="M91.319 59.073H85.426V59.266H91.319V59.073Z" fill="#303335"/>
<path d="M91.319 60.485H85.426V60.678H91.319V60.485Z" fill="#303335"/>
<path d="M91.319 61.897H85.426V62.09H91.319V61.897Z" fill="#303335"/>
<path d="M91.319 66.234H85.426V66.427H91.319V66.234Z" fill="#303335"/>
<path d="M79.245 68.012H65.28L60.628 69.844H83.897L79.245 68.012Z" fill="#865B3D"/>
<path d="M2.439 45.691H5.932V45.069C5.932 44.892 5.789 44.749 5.612 44.749H2.759C2.582 44.749 2.439 44.893 2.439 45.069V45.691Z" fill="#D1B088"/>
<path d="M5.497 44.155H2.875C2.711 44.155 2.578 44.288 2.578 44.452C2.578 44.616 2.711 44.749 2.875 44.749H5.497C5.661 44.749 5.794 44.616 5.794 44.452C5.794 44.288 5.661 44.155 5.497 44.155Z" fill="#D1B088"/>
<path d="M5.495 25.279H2.875V44.155H5.495V25.279Z" fill="#D1B088"/>
<path d="M5.329 24.019H3.043C2.556 24.019 2.161 24.414 2.161 24.901C2.161 25.388 2.556 25.783 3.043 25.783H5.329C5.816 25.783 6.21099 25.388 6.21099 24.901C6.21099 24.414 5.816 24.019 5.329 24.019Z" fill="#DDC4A6"/>
<path d="M3.024 25.978C3.56469 25.978 4.003 25.5397 4.003 24.999C4.003 24.4583 3.56469 24.02 3.024 24.02C2.48331 24.02 2.045 24.4583 2.045 24.999C2.045 25.5397 2.48331 25.978 3.024 25.978Z" fill="#DDC4A6"/>
<path d="M5.345 25.978C5.88568 25.978 6.324 25.5397 6.324 24.999C6.324 24.4583 5.88568 24.02 5.345 24.02C4.80431 24.02 4.366 24.4583 4.366 24.999C4.366 25.5397 4.80431 25.978 5.345 25.978Z" fill="#DDC4A6"/>
<path d="M6.129 45.691H2.241V48.385H6.129V45.691Z" fill="#D1B088"/>
<path d="M12.751 45.691H16.244V45.069C16.244 44.892 16.101 44.749 15.924 44.749H13.071C12.894 44.749 12.751 44.893 12.751 45.069V45.691Z" fill="#D1B088"/>
<path d="M15.809 44.155H13.186C13.022 44.155 12.889 44.288 12.889 44.452C12.889 44.616 13.022 44.749 13.186 44.749H15.809C15.973 44.749 16.106 44.616 16.106 44.452C16.106 44.288 15.973 44.155 15.809 44.155Z" fill="#D1B088"/>
<path d="M15.808 25.279H13.188V44.155H15.808V25.279Z" fill="#D1B088"/>
<path d="M15.641 24.019H13.355C12.868 24.019 12.473 24.414 12.473 24.901C12.473 25.388 12.868 25.783 13.355 25.783H15.641C16.128 25.783 16.523 25.388 16.523 24.901C16.523 24.414 16.128 24.019 15.641 24.019Z" fill="#DDC4A6"/>
<path d="M13.336 24.019C12.795 24.019 12.357 24.458 12.357 24.998C12.357 25.539 12.795 25.977 13.336 25.977C13.877 25.977 14.315 25.539 14.315 24.998C14.316 24.458 13.877 24.019 13.336 24.019Z" fill="#DDC4A6"/>
<path d="M15.658 25.978C16.1987 25.978 16.637 25.5397 16.637 24.999C16.637 24.4583 16.1987 24.02 15.658 24.02C15.1173 24.02 14.679 24.4583 14.679 24.999C14.679 25.5397 15.1173 25.978 15.658 25.978Z" fill="#DDC4A6"/>
<path d="M16.441 45.691H12.553V48.385H16.441V45.691Z" fill="#D1B088"/>
<path d="M23.296 45.691H26.789V45.069C26.789 44.892 26.645 44.749 26.469 44.749H23.616C23.439 44.749 23.296 44.893 23.296 45.069V45.691Z" fill="#D1B088"/>
<path d="M26.354 44.155H23.732C23.568 44.155 23.435 44.288 23.435 44.452C23.435 44.616 23.568 44.749 23.732 44.749H26.354C26.518 44.749 26.651 44.616 26.651 44.452C26.651 44.288 26.518 44.155 26.354 44.155Z" fill="#D1B088"/>
<path d="M26.353 25.279H23.733V44.155H26.353V25.279Z" fill="#D1B088"/>
<path d="M26.186 24.019H23.9C23.413 24.019 23.018 24.414 23.018 24.901C23.018 25.388 23.413 25.783 23.9 25.783H26.186C26.673 25.783 27.068 25.388 27.068 24.901C27.068 24.414 26.673 24.019 26.186 24.019Z" fill="#DDC4A6"/>
<path d="M23.881 24.019C23.34 24.019 22.902 24.458 22.902 24.998C22.902 25.539 23.34 25.977 23.881 25.977C24.422 25.977 24.86 25.539 24.86 24.998C24.861 24.458 24.422 24.019 23.881 24.019Z" fill="#DDC4A6"/>
<path d="M26.203 24.019C25.662 24.019 25.224 24.458 25.224 24.998C25.224 25.539 25.662 25.977 26.203 25.977C26.744 25.977 27.182 25.539 27.182 24.998C27.182 24.458 26.744 24.019 26.203 24.019Z" fill="#DDC4A6"/>
<path d="M26.986 45.691H23.098V48.385H26.986V45.691Z" fill="#D1B088"/>
<path d="M141.307 45.691H137.814V45.069C137.814 44.892 137.957 44.749 138.134 44.749H140.986C141.163 44.749 141.306 44.893 141.306 45.069V45.691H141.307Z" fill="#D1B088"/>
<path d="M138.249 44.155H140.871C141.035 44.155 141.168 44.288 141.168 44.452C141.168 44.616 141.035 44.749 140.871 44.749H138.249C138.085 44.749 137.952 44.616 137.952 44.452C137.952 44.288 138.085 44.155 138.249 44.155Z" fill="#D1B088"/>
<path d="M140.87 25.279H138.25V44.155H140.87V25.279Z" fill="#D1B088"/>
<path d="M138.417 24.019H140.703C141.19 24.019 141.585 24.414 141.585 24.901C141.585 25.388 141.19 25.783 140.703 25.783H138.417C137.93 25.783 137.535 25.388 137.535 24.901C137.535 24.414 137.93 24.019 138.417 24.019Z" fill="#DDC4A6"/>
<path d="M140.721 25.978C141.262 25.978 141.7 25.5397 141.7 24.999C141.7 24.4583 141.262 24.02 140.721 24.02C140.18 24.02 139.742 24.4583 139.742 24.999C139.742 25.5397 140.18 25.978 140.721 25.978Z" fill="#DDC4A6"/>
<path d="M138.4 25.978C138.941 25.978 139.379 25.5397 139.379 24.999C139.379 24.4583 138.941 24.02 138.4 24.02C137.859 24.02 137.421 24.4583 137.421 24.999C137.421 25.5397 137.859 25.978 138.4 25.978Z" fill="#DDC4A6"/>
<path d="M137.617 48.3852H141.505V45.6912H137.617V48.3852Z" fill="#D1B088"/>
<path d="M130.994 45.691H127.501V45.069C127.501 44.892 127.644 44.749 127.821 44.749H130.674C130.851 44.749 130.994 44.893 130.994 45.069V45.691Z" fill="#D1B088"/>
<path d="M127.936 44.155H130.558C130.722 44.155 130.855 44.288 130.855 44.452C130.855 44.616 130.722 44.749 130.558 44.749H127.936C127.772 44.749 127.639 44.616 127.639 44.452C127.639 44.288 127.772 44.155 127.936 44.155Z" fill="#D1B088"/>
<path d="M130.557 25.279H127.937V44.155H130.557V25.279Z" fill="#D1B088"/>
<path d="M128.104 24.019H130.39C130.877 24.019 131.272 24.414 131.272 24.901C131.272 25.388 130.877 25.783 130.39 25.783H128.104C127.617 25.783 127.222 25.388 127.222 24.901C127.222 24.414 127.617 24.019 128.104 24.019Z" fill="#DDC4A6"/>
<path d="M130.409 24.019C130.95 24.019 131.388 24.458 131.388 24.998C131.388 25.539 130.95 25.977 130.409 25.977C129.868 25.977 129.43 25.539 129.43 24.998C129.43 24.458 129.868 24.019 130.409 24.019Z" fill="#DDC4A6"/>
<path d="M128.087 25.978C128.628 25.978 129.066 25.5397 129.066 24.999C129.066 24.4583 128.628 24.02 128.087 24.02C127.546 24.02 127.108 24.4583 127.108 24.999C127.108 25.5397 127.546 25.978 128.087 25.978Z" fill="#DDC4A6"/>
<path d="M127.304 48.3852H131.192V45.6912H127.304V48.3852Z" fill="#D1B088"/>
<path d="M120.449 45.691H116.956V45.069C116.956 44.892 117.099 44.749 117.276 44.749H120.129C120.306 44.749 120.449 44.893 120.449 45.069V45.691Z" fill="#D1B088"/>
<path d="M117.391 44.155H120.013C120.177 44.155 120.31 44.288 120.31 44.452C120.31 44.616 120.177 44.749 120.013 44.749H117.391C117.227 44.749 117.094 44.616 117.094 44.452C117.094 44.288 117.227 44.155 117.391 44.155Z" fill="#D1B088"/>
<path d="M120.012 25.279H117.392V44.155H120.012V25.279Z" fill="#D1B088"/>
<path d="M117.559 24.019H119.845C120.332 24.019 120.727 24.414 120.727 24.901C120.727 25.388 120.332 25.783 119.845 25.783H117.559C117.072 25.783 116.677 25.388 116.677 24.901C116.677 24.414 117.072 24.019 117.559 24.019Z" fill="#DDC4A6"/>
<path d="M119.864 24.019C120.405 24.019 120.843 24.458 120.843 24.998C120.843 25.539 120.405 25.977 119.864 25.977C119.323 25.977 118.885 25.539 118.885 24.998C118.885 24.458 119.323 24.019 119.864 24.019Z" fill="#DDC4A6"/>
<path d="M117.542 25.978C118.083 25.978 118.521 25.5397 118.521 24.999C118.521 24.4583 118.083 24.02 117.542 24.02C117.001 24.02 116.563 24.4583 116.563 24.999C116.563 25.5397 117.001 25.978 117.542 25.978Z" fill="#DDC4A6"/>
<path d="M116.759 48.3852H120.647V45.6912H116.759V48.3852Z" fill="#D1B088"/>
</svg>
