<svg width="42" height="98" viewBox="0 0 42 98" fill="none" xmlns="http://www.w3.org/2000/svg">
<path d="M36.619 28.393C36.207 27.787 35.338 26.046 33.695 23.757C32.052 21.468 30.038 20.787 28.823 21.688C25.561 24.11 34.118 33.563 35.608 34.965C37.098 36.367 39.137 37.11 39.953 36.524C40.929 35.824 40.939 34.526 40.358 33.492C39.777 32.457 37.044 29.019 36.619 28.393Z" fill="#FFBD95"/>
<path d="M16.346 70.116C15.415 70.115 13.129 70.419 13.247 76.496C13.365 82.572 15.934 90.898 15.934 90.898L18.135 90.901C18.135 90.901 19.226 79.653 19.234 77.495C19.253 72.586 19.287 70.12 16.346 70.116Z" fill="#FFBD95"/>
<path d="M16.07 74.945C14.612 74.903 13.306 74.489 13.306 74.489C13.306 74.489 13.046 75.667 13.242 79.258C13.438 82.848 15.564 90.127 15.564 90.127L17.029 91.403L18.354 89.817C18.354 89.817 18.726 85.516 19.097 81.179C19.467 76.842 19.237 74.489 19.237 74.489C19.237 74.489 17.529 74.986 16.07 74.945Z" fill="#E0E0D6"/>
<path d="M27.397 70.014C24.472 70.321 24.76 72.77 25.284 77.651C25.514 79.797 27.757 90.872 27.757 90.872L29.946 90.642C29.946 90.642 31.644 82.096 31.136 76.04C30.628 69.985 28.323 69.917 27.397 70.014Z" fill="#FFBD95"/>
<path d="M31.029 74.332C31.029 74.332 29.592 74.866 28.144 75.043C26.696 75.22 24.949 74.883 24.949 74.883C24.949 74.883 24.939 77.247 25.71 81.531C26.481 85.815 27.417 89.937 27.417 89.937L28.718 91.519L30.224 89.986C30.224 89.986 31.499 82.667 31.36 79.074C31.222 75.481 31.029 74.332 31.029 74.332Z" fill="#E0E0D6"/>
<path d="M13.416 96.953C14.984 97.227 16.118 96.659 16.667 96.365C17.216 96.071 17.373 95.169 17.491 94.738C17.609 94.307 18.06 94.189 18.06 94.189C18.06 94.189 18.021 94.483 18.06 94.542C18.099 94.601 19.021 93.856 19.119 93.777C19.217 93.699 19.22 92.409 19.22 92.409C19.22 92.409 12.435 95.114 12.342 95.443C12.248 95.772 11.847 96.678 13.416 96.953Z" fill="#191919"/>
<path d="M18.354 89.817C18.354 89.817 17.269 90.823 16.344 90.538C15.83 90.38 15.564 90.126 15.564 90.126C15.564 90.126 14.491 92.522 13.805 93.208C13.119 93.894 12.495 94.757 12.377 95.267C12.259 95.777 12.377 96.365 13.514 96.502C14.651 96.639 16.432 96.443 16.981 95.541C17.53 94.639 17.479 94.124 17.792 93.752C18.106 93.38 18.902 92.993 19.118 92.679C19.408 92.258 19.09 91.062 19.011 90.748C18.933 90.435 18.354 89.817 18.354 89.817Z" fill="#6A4022"/>
<path d="M15.41 89.587C15.308 89.652 15.356 90.132 15.356 90.303C15.356 90.475 14.695 91.872 14.695 91.872L16.239 92.6C16.239 92.6 17.215 91.35 17.23 91.037C17.246 90.724 17.136 90.006 17.042 89.816C16.949 89.627 15.512 89.522 15.41 89.587Z" fill="#6A4022"/>
<path d="M26.596 92.144C26.596 92.144 26.599 93.433 26.697 93.512C26.795 93.59 27.716 94.335 27.756 94.277C27.795 94.218 27.756 93.924 27.756 93.924C27.756 93.924 28.207 94.042 28.324 94.473C28.442 94.904 28.599 95.806 29.147 96.1C29.696 96.394 31.245 96.963 32.813 96.688C34.381 96.414 33.981 95.507 33.888 95.178C33.796 94.849 26.596 92.144 26.596 92.144Z" fill="#191919"/>
<path d="M32.009 92.943C31.323 92.257 30.223 89.807 30.223 89.807C30.223 89.807 30.125 90.186 29.617 90.247C28.656 90.363 27.331 89.598 27.331 89.598C27.331 89.598 26.81 90.217 26.732 90.531C26.653 90.845 26.407 91.992 26.696 92.413C26.912 92.727 27.708 93.114 28.021 93.486C28.335 93.859 28.283 94.374 28.832 95.275C29.381 96.177 31.577 96.373 32.714 96.236C33.851 96.099 33.969 95.511 33.851 95.001C33.734 94.492 32.695 93.629 32.009 92.943Z" fill="#6A4022"/>
<path d="M30.363 89.146C30.237 89.03 29.074 89.226 28.981 89.335C28.887 89.444 28.778 90.033 28.715 90.223C28.652 90.413 29.746 92.194 29.871 92.273C29.996 92.351 31.158 91.678 31.158 91.678C31.158 91.678 30.304 89.961 30.299 89.883C30.293 89.803 30.48 89.254 30.363 89.146Z" fill="#6A4022"/>
<path d="M13.169 73.163L13.135 75.496C13.135 75.496 14.391 75.975 16.216 75.954C18.041 75.933 19.343 75.537 19.343 75.537L19.214 73.162L13.169 73.163Z" fill="#B78139"/>
<path d="M24.812 73.253L24.971 75.594C24.971 75.594 26.208 75.88 28.069 75.724C29.93 75.568 31.12 75.115 31.12 75.115L30.927 72.717L24.812 73.253Z" fill="#B78139"/>
<path d="M30.575 21.567C28.177 19.757 20.612 19.043 20.612 19.043V19.17C20.612 19.17 13.152 19.783 10.579 21.335C8.605 22.525 12.027 29.717 13.322 33.718C13.633 34.678 13.592 38.981 13.467 42.796C13.436 43.737 12.666 48.064 12.793 49.853C12.831 50.387 18.868 53.702 20.561 53.789V53.662C22.254 53.58 28.301 50.283 28.34 49.749C28.473 47.96 27.715 43.631 27.687 42.69C27.573 38.874 27.546 34.572 27.859 33.612C29.166 29.614 31.965 22.616 30.575 21.567Z" fill="#FFBD95"/>
<path d="M12.221 21.688C11.006 20.786 8.992 21.468 7.349 23.757C5.706 26.046 4.837 27.787 4.425 28.393C4 29.018 1.267 32.457 0.684996 33.492C0.103996 34.527 0.113995 35.824 1.08999 36.524C1.90599 37.11 3.945 36.366 5.435 34.965C6.926 33.563 15.483 24.11 12.221 21.688Z" fill="#FFBD95"/>
<path d="M23.703 17.862C23.535 17.1 23.117 13.333 23.117 13.333L20.62 13.329V13.456L18.123 13.452C18.123 13.452 17.694 17.218 17.524 17.98C17.353 18.742 15.297 19.888 15.297 19.888L20.611 19.896V19.769L25.925 19.777C25.925 19.777 23.871 18.624 23.703 17.862Z" fill="#FFBD95"/>
<path d="M22.975 13.332L20.621 13.329V13.456L18.124 13.452C18.124 13.452 17.695 17.218 17.525 17.98C17.354 18.742 15.298 19.888 15.298 19.888H15.549C17.921 19.259 20.28 18.633 20.598 18.542C21.262 18.353 23.537 16.799 23.537 16.799C23.38 15.645 23.193 14.002 23.136 13.492L22.975 13.332Z" fill="#FFA47C"/>
<path d="M16.594 45.657C13.547 45.643 12.359 47.767 12.434 54.284C12.509 60.802 13.47 67.871 13.892 68.887C14.314 69.903 18.632 69.931 19.056 69.339C19.48 68.747 20.558 55.227 20.562 53.111C20.564 50.995 19.913 45.672 16.594 45.657Z" fill="#FFBD95"/>
<path d="M16.962 66.998L16.158 66.977C14.948 66.946 13.933 67.911 13.902 69.121L13.833 71.829C13.802 73.039 14.767 74.054 15.977 74.085L16.781 74.106C17.991 74.137 19.006 73.172 19.037 71.962L19.106 69.254C19.137 68.044 18.172 67.029 16.962 66.998Z" fill="#FFBD95"/>
<path d="M24.633 45.711C21.333 46.068 21.233 51.43 21.454 53.534C21.675 55.638 24.139 68.976 24.622 69.521C25.105 70.066 29.397 69.594 29.712 68.539C30.027 67.485 30.255 60.354 29.659 53.864C29.063 47.373 27.662 45.383 24.633 45.711Z" fill="#FFBD95"/>
<path d="M29.725 68.774C29.57 67.574 28.461 66.719 27.26 66.874L26.463 66.977C25.262 67.132 24.408 68.242 24.563 69.442L24.91 72.128C25.065 73.328 26.174 74.183 27.375 74.028L28.172 73.925C29.373 73.77 30.228 72.66 30.072 71.46L29.725 68.774Z" fill="#FFBD95"/>
<path d="M20.574 44.583L13.29 44.345C13.29 44.345 11.927 49.663 11.754 52.583C11.58 55.503 11.137 71.622 13.16 74.61C13.653 75.339 19.001 75.374 19.253 74.674C20.234 71.946 20.561 53.788 20.561 53.788L20.574 44.583Z" fill="#D1BE81"/>
<path d="M27.429 20.111C25.968 19.656 24.825 19.068 24.825 19.068L20.601 21.398L16.547 19.068C16.547 19.068 15.238 19.64 13.776 20.091C12.117 20.602 10.266 21.03 9.98101 21.614C9.69201 22.208 12.648 33.602 12.98 34.571C13.312 35.54 12.448 42.318 13.29 44.346L20.558 44.583L20.572 44.584H20.574L27.843 44.369C28.511 42.045 27.839 35.436 28.174 34.467C28.306 34.087 28.67 32.105 29.263 29.82C30.18 26.286 31.395 22.007 31.221 21.646C30.937 21.06 29.087 20.627 27.429 20.111Z" fill="#E0E0D6"/>
<path d="M27.782 44.195L20.574 44.583L20.538 54.25C20.538 54.25 23.108 72.635 24.948 74.882C25.706 75.687 30.625 75.222 31.029 74.488C32.403 71.991 30.564 55.178 30.091 52.291C29.617 49.405 27.782 44.195 27.782 44.195Z" fill="#D1BE81"/>
<path d="M18.805 20.541L20.601 21.397L19.995 20.092L18.805 20.541Z" fill="#C2C0AC"/>
<path d="M16.377 19.067L18.655 22.158L19.995 20.092L17.439 17.824L16.377 19.067Z" fill="#EDEDE7"/>
<path d="M20.601 21.397L22.314 20.564L21.118 20.02L20.601 21.397Z" fill="#C2C0AC"/>
<path d="M21.118 20.02L22.459 22.121L24.96 19.067L23.814 17.72L21.118 20.02Z" fill="#EDEDE7"/>
<path d="M24.43 11.206V11.203C24.435 8.27199 22.653 5.89399 20.473 5.89099C18.293 5.88799 16.539 8.26099 16.534 11.192C16.534 11.202 16.535 11.213 16.535 11.223C16.439 11.183 16.304 11.157 16.224 11.282C16.092 11.49 16.634 13.56 16.81 13.63C16.875 13.656 16.925 13.669 16.967 13.678C17.634 15.576 18.993 17.047 20.473 17.047C21.863 17.047 23.268 15.576 23.97 13.675C24.009 13.666 24.054 13.653 24.11 13.631C24.286 13.562 24.828 11.492 24.696 11.283C24.628 11.175 24.52 11.178 24.43 11.206Z" fill="#FFBD95"/>
<path d="M20.334 5.474C17.798 5.474 16.611 7.28 16.333 8.489C16.055 9.698 16.559 11.643 16.817 11.643C16.929 11.643 16.788 8.475 17.916 7.989C19.026 7.51 19.689 7.989 20.422 7.989C21.155 7.989 21.668 7.6 22.87 7.989C24.072 8.378 24.087 11.643 24.218 11.629C24.35 11.615 24.868 10.17 24.584 8.489C24.293 6.764 22.869 5.474 20.334 5.474Z" fill="#8D3B26"/>
<path d="M1.037 33.446C0.0990018 34.242 -0.257007 35.389 1.83099 38.132C3.91899 40.875 9.582 46.604 9.582 46.604L11.1 45.317C11.1 45.317 8.232 38.912 7.164 37.372C6.096 35.833 3.494 31.364 1.037 33.446Z" fill="#FFBD95"/>
<path d="M10.534 21.163C10.534 21.163 8.987 21.361 7.987 22.403C6.987 23.445 3.862 28.502 3.362 29.015C2.862 29.528 0.029007 33.361 0.029007 34.278C0.029007 35.195 0.571007 36.861 1.65401 38.486C2.73701 40.111 5.09901 44.033 7.05901 44.21C7.89101 44.285 9.639 43.189 9.856 42.382C10.368 40.48 6.429 35.57 6.625 35.195C6.821 34.82 11.404 28.445 11.404 28.445C11.404 28.445 11.29 22.34 10.534 21.163Z" fill="#E0E0D6"/>
<path d="M11.1 26.897C10.668 26.897 7.62599 33.991 4.88699 33.272C4.05299 33.053 6.01199 34.569 5.88699 34.741C5.58999 35.149 4.418 34.382 4.418 35.054C4.418 35.679 8.503 38.2 9.231 41.929C9.424 42.916 8.84699 43.075 8.13699 42.367C7.91499 42.145 7.49699 42.548 7.76199 42.836C8.50199 43.638 7.572 43.774 7.252 43.877C6.544 44.105 5.526 43.458 5.526 43.458C6.024 43.865 6.52199 44.137 6.99899 44.198C7.05799 44.204 7.12 44.205 7.186 44.201C7.212 44.2 7.23901 44.198 7.26601 44.196C7.33701 44.189 7.41101 44.178 7.48801 44.164C8.38201 43.958 9.671 43.069 9.855 42.382C10.367 40.48 6.42799 35.57 6.62399 35.195C6.81299 34.832 11.102 28.864 11.377 28.482C11.54 29.141 11.702 29.786 11.86 30.405C11.861 30.402 12.268 29.45 12.587 28.435C12.236 27.95 11.434 26.897 11.1 26.897Z" fill="#C2C0AC"/>
<path d="M40.007 33.446C37.55 31.363 34.948 35.832 33.88 37.372C32.812 38.911 29.944 45.317 29.944 45.317L31.462 46.604C31.462 46.604 37.125 40.875 39.213 38.132C41.301 35.39 40.945 34.242 40.007 33.446Z" fill="#FFBD95"/>
<path d="M33.057 22.403C32.057 21.361 30.51 21.163 30.51 21.163C29.755 22.34 29.64 28.444 29.64 28.444C29.64 28.444 34.223 34.819 34.419 35.194C34.615 35.569 30.676 40.479 31.188 42.381C31.405 43.188 33.153 44.284 33.985 44.209C35.945 44.032 38.307 40.11 39.39 38.485C40.473 36.86 41.015 35.193 41.015 34.277C41.015 33.36 38.182 29.527 37.682 29.014C37.182 28.502 34.057 23.444 33.057 22.403Z" fill="#E0E0D6"/>
<path d="M35.752 34.658C35.627 34.486 37.017 33.33 36.157 33.273C33.21 33.075 30.376 26.898 29.944 26.898C29.611 26.898 28.808 27.951 28.456 28.436C28.775 29.45 29.182 30.403 29.183 30.406C29.341 29.787 29.504 29.141 29.666 28.483C29.941 28.866 34.229 34.833 34.419 35.196C34.615 35.571 30.676 40.481 31.188 42.383C31.373 43.069 32.661 43.958 33.555 44.165C33.632 44.18 33.707 44.191 33.777 44.197C33.804 44.2 33.831 44.202 33.857 44.202C33.923 44.205 33.986 44.204 34.044 44.199C34.521 44.138 35.019 43.866 35.517 43.459C35.517 43.459 34.5 44.106 33.791 43.878C33.471 43.775 31.702 42.931 31.812 41.931C31.922 40.931 33.936 37.189 35.346 36.202C35.838 35.858 36.665 35.369 36.625 35.056C36.58 34.7 36.048 35.065 35.752 34.658Z" fill="#C2C0AC"/>
<path d="M30.949 74.989L31.02 78.232L29.946 77.821L30.685 74.859L30.949 74.989Z" fill="#D1BE81"/>
<path d="M31.128 75.053L32.579 77.955L31.432 78.042L30.835 75.049L31.128 75.053Z" fill="#C2AB74"/>
<path d="M31.275 74.766C31.463 75.051 31.384 75.433 31.099 75.621C30.814 75.809 30.432 75.73 30.244 75.445C30.056 75.16 30.135 74.778 30.42 74.59C30.705 74.403 31.088 74.481 31.275 74.766Z" fill="#D1BE81"/>
<path d="M13.219 75.059L13.147 78.303L14.221 77.891L13.482 74.93L13.219 75.059Z" fill="#C2AB74"/>
<path d="M13.039 75.124L11.962 77.278L12.735 78.113L13.333 75.12L13.039 75.124Z" fill="#D1BE81"/>
<path d="M12.892 74.837C12.704 75.122 12.783 75.504 13.068 75.692C13.353 75.88 13.735 75.801 13.923 75.516C14.111 75.231 14.032 74.849 13.747 74.661C13.462 74.473 13.079 74.552 12.892 74.837Z" fill="#D1BE81"/>
<path d="M12.209 49.364C12.209 49.364 15.631 50.458 19.107 50.875C22.583 51.292 27.402 51.375 28.159 51.708C28.916 52.041 29.2 54.875 29.183 55.5C29.166 56.125 27.958 59.458 28.541 60C29.124 60.542 30.715 60.333 30.482 61.208C30.249 62.083 28.509 64.75 28.921 65.708C29.333 66.666 30.424 67.5 30.482 68.208C30.541 68.916 31.332 72.87 30.603 72.956C29.874 73.042 28.925 72.875 28.92 73.458C28.915 74.041 27.195 74.901 26.326 74.93C25.858 74.945 25.065 74.459 24.346 73.671C24.552 74.224 24.754 74.647 24.947 74.883C25.705 75.688 30.624 75.223 31.028 74.489C32.402 71.991 30.563 55.179 30.09 52.292C29.617 49.405 27.781 44.196 27.781 44.196L20.573 44.584L13.289 44.346C13.289 44.346 12.656 46.819 12.197 49.318L12.209 49.364Z" fill="#C2AB74"/>
<path d="M17.667 73.667C16.811 74.091 14.693 74.761 12.974 74.287C13.033 74.407 13.095 74.516 13.159 74.611C13.652 75.34 19 75.375 19.252 74.675C20.133 72.225 20.487 57.341 20.55 54.328C20.648 55.02 21.457 60.684 22.461 65.924C22.141 60.637 21.773 53.388 20.918 53.417C19.668 53.459 20.126 58.25 19.668 59.084C19.21 59.917 17.21 61.209 18.001 61.876C18.793 62.543 20.257 62.918 19.108 64.168C17.959 65.418 16.709 67.168 17.334 67.626C17.959 68.084 19.084 69.001 18.751 69.626C18.418 70.251 18.552 73.228 17.667 73.667Z" fill="#C2AB74"/>
<path d="M15.297 19.501L10.646 20.979C10.646 20.979 11.771 23.646 11.979 27C12.057 28.251 11.86 30.405 11.86 30.405C11.86 30.405 12.543 35.303 12.506 35.741C12.469 36.179 11.86 49.267 11.86 49.267C11.86 49.267 12.843 49.625 15.375 49.782C16.582 49.856 20.465 49.782 20.465 49.782L20.538 25.959L15.297 19.501Z" fill="#6A4022"/>
<path d="M29.063 26.897C29.167 23.646 30.605 21.062 30.605 21.062L25.846 19.508L20.496 25.957L20.466 49.78C20.466 49.78 24.862 49.771 26.328 49.655C28.225 49.505 29.501 49.061 29.501 49.061C29.501 49.061 28.565 36.177 28.528 35.74C28.491 35.302 29.174 30.404 29.174 30.404C29.174 30.404 29.022 28.15 29.063 26.897Z" fill="#6A4022"/>
<path d="M18.871 20.366C17.977 19.517 17.198 18.456 16.978 18.364C16.743 18.265 15.492 19.274 15.518 19.484C15.532 19.595 16.638 20.712 17.903 21.569C19.035 22.336 20.333 22.859 20.46 22.866C20.731 22.882 20.797 21.866 20.6 21.678C20.51 21.593 19.618 21.075 18.871 20.366Z" fill="#010E11"/>
<path d="M16.793 18.616C16.698 18.586 16.593 18.575 16.486 18.568C16.047 18.853 15.5 19.343 15.517 19.484C15.522 19.522 15.663 19.685 15.889 19.91C16.359 19.564 17.117 19.428 17.511 19.428C17.732 19.428 17.929 19.48 18.07 19.531C17.918 19.362 17.775 19.2 17.647 19.052C17.412 18.886 17.122 18.72 16.793 18.616Z" fill="#142023"/>
<path d="M18.981 20.745C18.609 20.758 17.976 21.072 17.542 21.312C17.661 21.399 17.78 21.486 17.903 21.569C18.103 21.705 18.307 21.829 18.51 21.948C18.88 21.78 19.346 21.587 19.703 21.507C19.958 21.449 20.126 21.441 20.258 21.445C20.035 21.296 19.732 21.087 19.411 20.832C19.259 20.777 19.111 20.74 18.981 20.745Z" fill="#142023"/>
<path d="M24.346 18.364C24.126 18.456 23.347 19.517 22.453 20.366C21.706 21.075 20.814 21.593 20.724 21.679C20.527 21.867 20.593 22.882 20.864 22.867C20.992 22.86 22.29 22.337 23.421 21.57C24.686 20.713 25.792 19.596 25.806 19.485C25.832 19.274 24.582 18.265 24.346 18.364Z" fill="#010E11"/>
<path d="M24.838 18.569C24.731 18.576 24.626 18.587 24.531 18.617C24.202 18.721 23.913 18.887 23.677 19.054C23.548 19.201 23.405 19.364 23.254 19.533C23.395 19.482 23.591 19.43 23.813 19.43C24.207 19.43 24.966 19.566 25.435 19.912C25.661 19.687 25.802 19.524 25.807 19.486C25.824 19.344 25.277 18.854 24.838 18.569Z" fill="#142023"/>
<path d="M21.914 20.831C21.593 21.086 21.29 21.295 21.067 21.444C21.2 21.44 21.367 21.449 21.622 21.506C21.979 21.587 22.445 21.779 22.815 21.947C23.018 21.828 23.222 21.704 23.422 21.568C23.545 21.485 23.664 21.398 23.783 21.311C23.349 21.071 22.716 20.757 22.344 20.744C22.214 20.74 22.065 20.777 21.914 20.831Z" fill="#142023"/>
<path d="M19.168 22.71C18.746 23.21 18.355 25.663 18.355 25.663C18.355 25.663 19.81 24.71 20.106 24.319C20.402 23.928 20.143 22.96 20.257 22.866C20.371 22.772 20.257 22.053 20.257 22.053C20.257 22.053 19.59 22.21 19.168 22.71Z" fill="#142023"/>
<path d="M21.307 22.054C21.307 22.054 21.193 22.773 21.307 22.867C21.421 22.961 21.162 23.929 21.458 24.32C21.754 24.711 23.209 25.664 23.209 25.664C23.209 25.664 22.818 23.211 22.396 22.711C21.974 22.211 21.307 22.054 21.307 22.054Z" fill="#142023"/>
<path d="M20.258 21.444C19.969 21.609 20.154 23.133 20.322 23.176C20.576 23.242 21.043 23.201 21.231 23.107C21.419 23.013 21.392 21.668 21.143 21.444C20.919 21.242 20.558 21.272 20.258 21.444Z" fill="#273235"/>
<path d="M18.806 28.201C18.521 28.201 18.29 28.432 18.29 28.717C18.29 29.002 18.521 29.233 18.806 29.233C19.091 29.233 19.322 29.002 19.322 28.717C19.322 28.431 19.091 28.201 18.806 28.201Z" fill="#FF9C00"/>
<path d="M18.805 32.554C19.09 32.554 19.321 32.323 19.321 32.038C19.321 31.753 19.09 31.522 18.805 31.522C18.52 31.522 18.289 31.753 18.289 32.038C18.289 32.323 18.52 32.554 18.805 32.554Z" fill="#FF9C00"/>
<path d="M18.805 34.845C18.52 34.845 18.289 35.076 18.289 35.361C18.289 35.646 18.52 35.877 18.805 35.877C19.09 35.877 19.321 35.646 19.321 35.361C19.32 35.076 19.089 34.845 18.805 34.845Z" fill="#FF9C00"/>
<path d="M18.804 38.167C18.519 38.167 18.288 38.398 18.288 38.683C18.288 38.968 18.519 39.199 18.804 39.199C19.089 39.199 19.32 38.968 19.32 38.683C19.32 38.398 19.089 38.167 18.804 38.167Z" fill="#FF9C00"/>
<path d="M18.803 41.49C18.518 41.49 18.287 41.721 18.287 42.006C18.287 42.291 18.518 42.522 18.803 42.522C19.088 42.522 19.319 42.291 19.319 42.006C19.319 41.721 19.088 41.49 18.803 41.49Z" fill="#FF9C00"/>
<path d="M22.315 29.232C22.6 29.232 22.831 29.001 22.831 28.716C22.831 28.431 22.6 28.2 22.315 28.2C22.03 28.2 21.799 28.431 21.799 28.716C21.799 29.001 22.03 29.232 22.315 29.232Z" fill="#FF9C00"/>
<path d="M22.314 32.554C22.599 32.554 22.83 32.323 22.83 32.038C22.83 31.753 22.599 31.522 22.314 31.522C22.029 31.522 21.798 31.753 21.798 32.038C21.798 32.323 22.029 32.554 22.314 32.554Z" fill="#FF9C00"/>
<path d="M22.314 34.845C22.029 34.845 21.798 35.076 21.798 35.361C21.798 35.646 22.029 35.877 22.314 35.877C22.599 35.877 22.83 35.646 22.83 35.361C22.829 35.076 22.599 34.845 22.314 34.845Z" fill="#FF9C00"/>
<path d="M22.313 38.167C22.028 38.167 21.797 38.398 21.797 38.683C21.797 38.968 22.028 39.199 22.313 39.199C22.598 39.199 22.829 38.968 22.829 38.683C22.829 38.398 22.598 38.167 22.313 38.167Z" fill="#FF9C00"/>
<path d="M22.313 41.49C22.028 41.49 21.797 41.721 21.797 42.006C21.797 42.291 22.028 42.522 22.313 42.522C22.598 42.522 22.829 42.291 22.829 42.006C22.828 41.721 22.597 41.49 22.313 41.49Z" fill="#FF9C00"/>
<path d="M14.099 47.276L12.428 46.637C12.212 46.554 11.969 46.664 11.887 46.88L11.886 46.882C11.805 47.096 11.914 47.339 12.128 47.421L13.799 48.06C14.015 48.142 14.258 48.033 14.34 47.817L14.341 47.815C14.422 47.6 14.313 47.358 14.099 47.276Z" fill="#FFBD95"/>
<path d="M14.448 46.571L12.777 45.932C12.561 45.849 12.318 45.959 12.237 46.175L12.236 46.177C12.155 46.391 12.264 46.634 12.478 46.715L14.149 47.354C14.365 47.436 14.608 47.327 14.69 47.111L14.691 47.109C14.771 46.895 14.662 46.653 14.448 46.571Z" fill="#FFBD95"/>
<path d="M14.745 45.865L13.074 45.226C12.858 45.144 12.615 45.253 12.533 45.469L12.532 45.471C12.451 45.685 12.56 45.928 12.774 46.01L14.445 46.649C14.661 46.731 14.904 46.622 14.986 46.406L14.987 46.404C15.068 46.189 14.959 45.946 14.745 45.865Z" fill="#FFBD95"/>
<path d="M14.968 45.156L13.297 44.517C13.081 44.435 12.838 44.544 12.756 44.76L12.755 44.762C12.674 44.976 12.783 45.219 12.997 45.3L14.668 45.939C14.884 46.022 15.127 45.912 15.209 45.696L15.21 45.694C15.291 45.48 15.182 45.238 14.968 45.156Z" fill="#FFBD95"/>
<path d="M9.12399 43.95L9.36 46.378C9.36 46.378 9.872 47.069 11.02 47.478C11.88 47.784 13.802 48.06 13.802 48.06C13.802 48.06 13.981 46.73 14.097 46.226C14.213 45.721 15.12 45.262 15.12 45.262C15.12 45.262 13.201 44.071 12.64 43.933C12.08 43.795 9.12399 43.95 9.12399 43.95Z" fill="#FFBD95"/>
<path d="M29.156 46.88C29.074 46.664 28.831 46.555 28.615 46.637L26.944 47.276C26.73 47.358 26.621 47.6 26.702 47.814L26.703 47.816C26.785 48.032 27.028 48.141 27.244 48.059L28.915 47.42C29.129 47.338 29.238 47.096 29.157 46.881L29.156 46.88Z" fill="#FFBD95"/>
<path d="M28.807 46.175C28.725 45.959 28.482 45.85 28.267 45.932L26.596 46.571C26.382 46.653 26.273 46.895 26.354 47.109L26.355 47.111C26.437 47.327 26.68 47.436 26.895 47.354L28.566 46.715C28.78 46.633 28.889 46.391 28.808 46.177L28.807 46.175Z" fill="#FFBD95"/>
<path d="M28.51 45.469C28.428 45.253 28.185 45.144 27.969 45.226L26.298 45.865C26.084 45.947 25.975 46.189 26.056 46.403L26.057 46.405C26.139 46.621 26.382 46.73 26.598 46.648L28.269 46.009C28.483 45.927 28.592 45.685 28.511 45.47L28.51 45.469Z" fill="#FFBD95"/>
<path d="M28.287 44.76C28.205 44.544 27.962 44.435 27.746 44.517L26.075 45.156C25.861 45.238 25.752 45.48 25.833 45.694L25.834 45.696C25.916 45.912 26.159 46.021 26.375 45.939L28.046 45.3C28.26 45.218 28.369 44.976 28.288 44.762L28.287 44.76Z" fill="#FFBD95"/>
<path d="M28.403 43.933C27.842 44.071 25.923 45.262 25.923 45.262C25.923 45.262 26.831 45.721 26.946 46.226C27.062 46.731 27.241 48.06 27.241 48.06C27.241 48.06 29.163 47.784 30.023 47.478C31.172 47.069 31.683 46.378 31.683 46.378L31.919 43.95C31.919 43.95 28.964 43.795 28.403 43.933Z" fill="#FFBD95"/>
<path d="M9.856 42.382C9.639 43.189 7.89101 44.285 7.05901 44.21C7.03101 44.207 7.00201 44.197 6.97301 44.192L6.963 44.197L8.68401 45.905C8.68401 45.905 9.637 45.486 10.106 45.051C10.575 44.616 10.731 43.889 10.731 43.889L9.873 42.24C9.865 42.286 9.867 42.338 9.856 42.382Z" fill="#E0E0D6"/>
<path d="M33.985 44.21C33.153 44.285 31.405 43.189 31.188 42.382C31.176 42.339 31.178 42.286 31.171 42.24L30.313 43.889C30.313 43.889 30.469 44.617 30.938 45.051C31.407 45.486 32.36 45.905 32.36 45.905L34.081 44.197L34.071 44.192C34.042 44.196 34.013 44.207 33.985 44.21Z" fill="#E0E0D6"/>
<path d="M20.599 7.96101C17.171 7.96101 14.393 7.61401 14.393 8.25701C14.393 8.90101 14.961 10.292 20.599 10.292C26.124 10.292 26.805 8.90101 26.805 8.25701C26.805 7.61301 24.026 7.96101 20.599 7.96101Z" fill="#270056"/>
<path d="M20.599 8.11702C17.171 8.11702 14.393 7.76902 14.393 8.41302C14.393 9.05702 14.961 10.448 20.599 10.448C26.124 10.448 26.805 9.05702 26.805 8.41302C26.805 7.76902 24.026 8.11702 20.599 8.11702Z" fill="#010E11"/>
<path d="M20.599 7.96101C17.171 7.96101 14.393 7.61401 14.393 8.25701C14.393 8.90101 14.961 10.292 20.599 10.292C26.124 10.292 26.805 8.90101 26.805 8.25701C26.805 7.61301 24.026 7.96101 20.599 7.96101Z" fill="#142023"/>
<path d="M20.599 8.04901C17.565 8.04901 15.042 7.88902 14.501 8.11302C14.832 9.15002 16.103 9.82202 20.599 9.82202C25.01 9.82202 26.333 9.14501 26.687 8.10901C26.125 7.90201 23.613 8.04901 20.599 8.04901Z" fill="#010E11"/>
<path d="M16.663 8.80099C16.663 9.16599 18.374 9.46299 20.485 9.46299C22.596 9.46299 24.307 9.16699 24.307 8.80099L24.818 1.16199H16.152L16.663 8.80099Z" fill="#010E11"/>
<path d="M16.569 1.30402L16.963 9.06502L17.786 9.28002L17.621 1.47102L16.569 1.30402Z" fill="#8B888D"/>
<path d="M16.569 7.60599L16.663 8.79999C16.663 9.16499 18.374 9.46199 20.485 9.46199C22.596 9.46199 24.307 9.16599 24.307 8.79999L24.4 7.60599C23.705 7.82999 22.213 7.98399 20.484 7.98399C18.757 7.98499 17.265 7.82999 16.569 7.60599Z" fill="#142023"/>
<path d="M22.04 9.40501C22.04 9.40501 22.894 9.31801 23.177 9.27001C23.37 9.23701 23.945 9.08201 23.945 9.08201L24.402 1.30301L22.041 1.68601V9.40501H22.04Z" fill="#A4A6A9"/>
<path d="M20.485 0.5C18.092 0.5 16.152 0.796001 16.152 1.162C16.152 1.528 18.092 1.824 20.485 1.824C22.878 1.824 24.818 1.528 24.818 1.162C24.818 0.796001 22.878 0.5 20.485 0.5Z" fill="#142023"/>
<path d="M16.882 7.69L16.963 9.058C16.983 9.066 17.007 9.074 17.029 9.082L17.636 9.241C17.685 9.25 17.733 9.26 17.786 9.269L17.751 7.835C17.416 7.794 17.122 7.745 16.882 7.69Z" fill="#8B888D"/>
</svg>
