<svg width="27" height="28" viewBox="0 0 27 28" fill="none" xmlns="http://www.w3.org/2000/svg">
<path fill-rule="evenodd" clip-rule="evenodd" d="M13.2127 2.08501C12.9457 2.08501 12.7157 2.192 12.5437 2.397C11.0237 4.212 9.59266 9.254 8.48166 9.355C5.85266 9.594 1.41167 9.726 0.0606672 9.797C-0.0203328 10.234 -0.0243323 11.485 0.0736677 12.029C0.0926677 12.136 0.133669 12.24 0.195669 12.339C1.45167 14.345 5.21267 17.291 5.55767 18.352C5.26967 19.804 4.80067 22.743 4.74167 23.948C4.74167 24.738 4.69967 25.58 4.75367 26.369C4.77167 26.635 4.89466 26.857 5.11066 27.014C5.32666 27.171 5.57566 27.219 5.83466 27.155C8.13166 26.58 12.0947 23.913 13.2107 23.913C14.3267 23.913 18.2907 26.58 20.5867 27.155C20.8457 27.22 21.0947 27.171 21.3107 27.014C21.5267 26.857 21.6497 26.635 21.6677 26.369C21.7217 25.58 21.6797 24.738 21.6797 23.948C21.6207 22.744 21.1517 19.804 20.8637 18.352C21.2087 17.291 24.9697 14.345 26.2257 12.339C26.2877 12.24 26.3287 12.136 26.3477 12.029C26.4457 11.486 26.4417 10.234 26.3607 9.797C25.0087 9.726 20.5687 9.593 17.9397 9.355C16.8287 9.254 15.3977 4.212 13.8777 2.397C13.7097 2.192 13.4797 2.08501 13.2127 2.08501Z" fill="url(#paint0_radial_26_810)"/>
<path fill-rule="evenodd" clip-rule="evenodd" d="M20.5887 25.07C20.8477 25.135 21.0967 25.087 21.3127 24.929C21.5287 24.772 21.6517 24.55 21.6697 24.284C21.8327 21.922 20.5217 17.329 20.8657 16.267C21.2107 15.206 24.9717 12.26 26.2277 10.254C26.3697 10.028 26.4007 9.776 26.3177 9.522C26.2347 9.268 26.0617 9.083 25.8147 8.983C23.6187 8.098 18.8447 7.926 17.9417 7.27C17.0387 6.614 15.3997 2.127 13.8797 0.312004C13.7087 0.107004 13.4787 0 13.2107 0C12.9437 0 12.7137 0.107004 12.5417 0.312004C11.0217 2.127 9.38266 6.614 8.47966 7.27C7.57666 7.926 2.80266 8.098 0.606663 8.983C0.358663 9.083 0.185665 9.268 0.103665 9.522C0.0216651 9.776 0.0516691 10.028 0.193669 10.254C1.44967 12.26 5.21067 15.206 5.55567 16.267C5.90067 17.328 4.58967 21.922 4.75167 24.284C4.76967 24.55 4.89266 24.772 5.10866 24.929C5.32466 25.086 5.57366 25.134 5.83266 25.07C8.12966 24.495 12.0927 21.828 13.2087 21.828C14.3287 21.829 18.2927 24.496 20.5887 25.07Z" fill="url(#paint1_radial_26_810)"/>
<path fill-rule="evenodd" clip-rule="evenodd" d="M25.3357 10.143C22.6817 12.047 21.1877 13.186 18.8687 14.714C18.5567 14.92 18.2567 15.36 18.3667 15.717C19.0467 17.923 20.9867 21.458 21.1267 23.661C21.2087 24.958 20.1017 24.564 19.4497 24.284C17.2047 23.318 15.6917 21.954 13.5377 20.853C12.7277 20.439 12.1297 20.561 11.4167 21.028C10.1217 21.878 7.80668 23.951 5.87868 24.553C5.33468 24.723 4.99367 24.683 4.77667 24.433C4.82367 24.633 4.93768 24.802 5.11168 24.929C5.32768 25.086 5.57668 25.134 5.83568 25.07C8.13168 24.495 12.0957 21.828 13.2117 21.828C14.3277 21.828 18.2917 24.495 20.5877 25.07C20.8467 25.135 21.0957 25.087 21.3117 24.929C21.5277 24.772 21.6507 24.55 21.6687 24.284C21.8317 21.922 20.5207 17.329 20.8647 16.267C21.2097 15.206 24.9707 12.26 26.2267 10.254C26.3687 10.028 26.3997 9.776 26.3167 9.522C26.2337 9.268 26.0607 9.082 25.8137 8.983C23.6177 8.098 18.8437 7.926 17.9407 7.27C17.0377 6.614 15.3987 2.127 13.8787 0.312004C13.7077 0.107004 13.4777 0 13.2097 0C12.9427 0 12.7127 0.107004 12.5407 0.312004C12.3037 0.595004 12.0637 0.943001 11.8237 1.332C12.4877 0.636001 13.1757 0.206007 13.7917 1.16801C14.9327 2.95201 15.4297 4.86801 16.0457 6.66901C16.4317 7.79701 16.6607 8.258 18.8777 8.412C21.4167 8.588 23.5277 8.76001 25.0397 9.01501C25.8747 9.15501 25.8957 9.74201 25.3357 10.143Z" fill="url(#paint2_radial_26_810)"/>
<path fill-rule="evenodd" clip-rule="evenodd" d="M5.48367 18.182C5.60967 17.308 5.66967 16.607 5.55867 16.267C5.21367 15.206 1.45268 12.26 0.196676 10.254C0.106676 10.11 0.0606743 9.955 0.0616743 9.797C-0.0193257 10.234 -0.0233252 11.485 0.0746748 12.029C0.0936748 12.136 0.134676 12.24 0.196676 12.339C1.39168 14.247 4.84967 17.004 5.48367 18.182Z" fill="url(#paint3_radial_26_810)"/>
<path fill-rule="evenodd" clip-rule="evenodd" d="M26.2287 10.255C24.9727 12.261 21.2117 15.207 20.8667 16.268C20.7567 16.608 20.8157 17.309 20.9417 18.183C21.5757 17.004 25.0347 14.247 26.2287 12.34C26.2907 12.241 26.3317 12.137 26.3507 12.03C26.4487 11.487 26.4447 10.235 26.3637 9.798C26.3647 9.956 26.3197 10.111 26.2287 10.255Z" fill="url(#paint4_radial_26_810)"/>
<path fill-rule="evenodd" clip-rule="evenodd" d="M20.5887 25.07C18.2927 24.495 14.3287 21.828 13.2127 21.828C13.5667 22.037 13.5617 23.643 13.2127 23.913C14.3287 23.913 18.2927 26.58 20.5887 27.155C20.8477 27.22 21.0967 27.171 21.3127 27.014C21.5287 26.857 21.6517 26.635 21.6697 26.369C21.7227 25.601 21.6837 24.782 21.6817 24.01C21.6797 24.104 21.6757 24.196 21.6697 24.284C21.6517 24.551 21.5287 24.772 21.3127 24.929C21.0967 25.087 20.8477 25.135 20.5887 25.07Z" fill="url(#paint5_radial_26_810)"/>
<path opacity="0.5" fill-rule="evenodd" clip-rule="evenodd" d="M6.19666 27.053C6.05266 26.735 6.03566 25.222 6.17566 24.975C6.05966 25.011 5.94667 25.043 5.83767 25.071C5.57867 25.136 5.32967 25.088 5.11367 24.93C4.93967 24.803 4.82566 24.635 4.77866 24.434C4.76766 24.386 4.75967 24.336 4.75667 24.284C4.75067 24.196 4.74666 24.105 4.74466 24.01C4.74266 24.781 4.70367 25.6 4.75667 26.369C4.77467 26.635 4.89767 26.857 5.11367 27.014C5.32967 27.171 5.57867 27.219 5.83767 27.155C5.95267 27.126 6.07266 27.092 6.19666 27.053Z" fill="url(#paint6_radial_26_810)"/>
<path opacity="0.5" fill-rule="evenodd" clip-rule="evenodd" d="M20.2297 27.053C20.3737 26.735 20.3907 25.222 20.2507 24.975C20.3667 25.011 20.4797 25.043 20.5887 25.071C20.8477 25.136 21.0967 25.088 21.3127 24.93C21.4867 24.803 21.6007 24.635 21.6477 24.434C21.6587 24.386 21.6667 24.336 21.6697 24.284C21.6757 24.196 21.6797 24.105 21.6817 24.01C21.6837 24.781 21.7227 25.6 21.6697 26.369C21.6517 26.635 21.5277 26.857 21.3127 27.014C21.0967 27.171 20.8477 27.219 20.5887 27.155C20.4727 27.126 20.3527 27.092 20.2297 27.053Z" fill="url(#paint7_radial_26_810)"/>
<path opacity="0.5" fill-rule="evenodd" clip-rule="evenodd" d="M1.03068 13.436C0.753676 12.759 0.729673 11.352 1.04967 11.373C0.710673 10.982 0.415676 10.604 0.196676 10.255C0.106676 10.111 0.0606743 9.956 0.0616743 9.798C-0.0193257 10.235 -0.0233252 11.486 0.0746748 12.03C0.0936748 12.137 0.134676 12.241 0.196676 12.34C0.411676 12.682 0.698676 13.052 1.03068 13.436Z" fill="url(#paint8_radial_26_810)"/>
<path opacity="0.5" fill-rule="evenodd" clip-rule="evenodd" d="M25.3957 13.436C25.6727 12.759 25.6967 11.352 25.3767 11.373C25.7157 10.982 26.0107 10.604 26.2297 10.255C26.3197 10.111 26.3657 9.956 26.3647 9.798C26.4457 10.235 26.4497 11.486 26.3517 12.03C26.3327 12.137 26.2917 12.241 26.2297 12.34C26.0147 12.682 25.7267 13.052 25.3957 13.436Z" fill="url(#paint9_radial_26_810)"/>
<defs>
<radialGradient id="paint0_radial_26_810" cx="0" cy="0" r="1" gradientUnits="userSpaceOnUse" gradientTransform="translate(4.97627 27.4124) scale(11.0746 11.0746)">
<stop stop-color="#FC8200"/>
<stop offset="1" stop-color="#E34F00"/>
</radialGradient>
<radialGradient id="paint1_radial_26_810" cx="0" cy="0" r="1" gradientUnits="userSpaceOnUse" gradientTransform="translate(7.78767 5.632) scale(24.4798 24.4798)">
<stop stop-color="#FCF800"/>
<stop offset="1" stop-color="#FC9700"/>
</radialGradient>
<radialGradient id="paint2_radial_26_810" cx="0" cy="0" r="1" gradientUnits="userSpaceOnUse" gradientTransform="translate(8.38257 4.547) scale(25.4867)">
<stop offset="7e-08" stop-color="white"/>
<stop offset="0.0963" stop-color="#FFFDF9"/>
<stop offset="0.2205" stop-color="#FFF7E9"/>
<stop offset="0.3601" stop-color="#FFECCF"/>
<stop offset="0.5108" stop-color="#FFDEAA"/>
<stop offset="0.6706" stop-color="#FFCC7A"/>
<stop offset="0.8354" stop-color="#FFB641"/>
<stop offset="1" stop-color="#FF9D00"/>
</radialGradient>
<radialGradient id="paint3_radial_26_810" cx="0" cy="0" r="1" gradientUnits="userSpaceOnUse" gradientTransform="translate(1.06407 11.0135) scale(7.64429 7.6443)">
<stop stop-color="#FCAC00"/>
<stop offset="1" stop-color="#E36600"/>
</radialGradient>
<radialGradient id="paint4_radial_26_810" cx="0" cy="0" r="1" gradientUnits="userSpaceOnUse" gradientTransform="translate(38.9099 17.9928) scale(18.3135 18.3135)">
<stop stop-color="#FCAC00"/>
<stop offset="1" stop-color="#E36600"/>
</radialGradient>
<radialGradient id="paint5_radial_26_810" cx="0" cy="0" r="1" gradientUnits="userSpaceOnUse" gradientTransform="translate(23.0751 24.0441) scale(9.7359 9.7359)">
<stop stop-color="#FCAC00"/>
<stop offset="1" stop-color="#FF6600"/>
</radialGradient>
<radialGradient id="paint6_radial_26_810" cx="0" cy="0" r="1" gradientUnits="userSpaceOnUse" gradientTransform="translate(3.69148 22.7488) scale(5.45256 5.45261)">
<stop stop-color="#FFF261"/>
<stop offset="0.1102" stop-color="#FAEE5F"/>
<stop offset="0.2341" stop-color="#EDE15A"/>
<stop offset="0.3647" stop-color="#D6CB52"/>
<stop offset="0.4999" stop-color="#B7AD46"/>
<stop offset="0.6388" stop-color="#8E8736"/>
<stop offset="0.7807" stop-color="#5C5823"/>
<stop offset="0.9223" stop-color="#23210D"/>
<stop offset="1"/>
</radialGradient>
<radialGradient id="paint7_radial_26_810" cx="0" cy="0" r="1" gradientUnits="userSpaceOnUse" gradientTransform="translate(23.4272 23.1337) scale(5.6878 5.68781)">
<stop stop-color="#FFF261"/>
<stop offset="0.1102" stop-color="#FAEE5F"/>
<stop offset="0.2341" stop-color="#EDE15A"/>
<stop offset="0.3647" stop-color="#D6CB52"/>
<stop offset="0.4999" stop-color="#B7AD46"/>
<stop offset="0.6388" stop-color="#8E8736"/>
<stop offset="0.7807" stop-color="#5C5823"/>
<stop offset="0.9223" stop-color="#23210D"/>
<stop offset="1"/>
</radialGradient>
<radialGradient id="paint8_radial_26_810" cx="0" cy="0" r="1" gradientUnits="userSpaceOnUse" gradientTransform="translate(0.177774 9.4556) scale(3.8287 3.8287)">
<stop stop-color="#FFF261"/>
<stop offset="0.1102" stop-color="#FAEE5F"/>
<stop offset="0.2341" stop-color="#EDE15A"/>
<stop offset="0.3647" stop-color="#D6CB52"/>
<stop offset="0.4999" stop-color="#B7AD46"/>
<stop offset="0.6388" stop-color="#8E8736"/>
<stop offset="0.7807" stop-color="#5C5823"/>
<stop offset="0.9223" stop-color="#23210D"/>
<stop offset="1"/>
</radialGradient>
<radialGradient id="paint9_radial_26_810" cx="0" cy="0" r="1" gradientUnits="userSpaceOnUse" gradientTransform="translate(27.5601 9.2626) scale(5.02376 5.0238)">
<stop stop-color="#FFF261"/>
<stop offset="0.1102" stop-color="#FAEE5F"/>
<stop offset="0.2341" stop-color="#EDE15A"/>
<stop offset="0.3647" stop-color="#D6CB52"/>
<stop offset="0.4999" stop-color="#B7AD46"/>
<stop offset="0.6388" stop-color="#8E8736"/>
<stop offset="0.7807" stop-color="#5C5823"/>
<stop offset="0.9223" stop-color="#23210D"/>
<stop offset="1"/>
</radialGradient>
</defs>
</svg>
